<svg xmlns="http://www.w3.org/2000/svg" xmlns:xlink="http://www.w3.org/1999/xlink" width="257.98" height="78.912" viewBox="0 0 257.98 78.912">
  <defs>
    <filter id="btn-red" x="0" y="0" width="257.98" height="78.912" filterUnits="userSpaceOnUse">
      <feOffset input="SourceAlpha"/>
      <feGaussianBlur stdDeviation="3" result="blur"/>
      <feFlood flood-color="#fff" flood-opacity="0.38"/>
      <feComposite operator="in" in2="blur"/>
      <feComposite in="SourceGraphic"/>
    </filter>
  </defs>
  <g transform="matrix(1, 0, 0, 1, 0, 0)" filter="url(#btn-red)">
    <path id="btn-red-2" data-name="btn-red" d="M858.979,598.114h26.1L897.355,595h36.074s11.9,2.339,16.886,3.119,13.815,1.949,16.5,1.949h14.2c3.07,0,9.594-3.509,11.129,0s2.3,2.729,7.291,2.339,13.048-4.288,14.967-4.288,3.454-1.559,10.745,0,10.745,2.339,15.734,1.949,4.989-3.509,12.281,0,9.21,4.288,12.664,4.288,6.524-2.339,6.524,0-.384,5.458,0,7.8-4.605,5.068,0,6.238,0,8.187,0,8.187h-6.524s.384.39-3.07,3.509l-6.908,6.238-11.9,1.949s-6.908-1.17-9.21,2.339-12.664,4.288-12.664,4.288H978.329l.975,4.407-6.188,4.278-15.51-2.838-3.838-5.848-54.185,1.052-10.974,6.745s-17.106,1.9-24.014,3.067-17.513-5.016-17.513-5.016V644.9l-6.7-3.011L837.5,635.38l3.446-5.3-6.524-9.357,6.524-8.577V609.03s2.3-7.8,6.14-6.627a77.126,77.126,0,0,0,8.827,1.949v-4.288l.763-1.949" transform="translate(-825.42 -586)" fill="#b10606"/>
  </g>
</svg>
