<svg xmlns="http://www.w3.org/2000/svg" xmlns:xlink="http://www.w3.org/1999/xlink" width="34.871" height="26.779" viewBox="0 0 34.871 26.779">
  <defs>
    <radialGradient id="radial-gradient" cx="0.549" cy="0.34" fy="-0.07429290562868118" r="1.227" gradientTransform="matrix(0.628, 0.336, -0.114, 0.48, 0.243, -0.007)" gradientUnits="objectBoundingBox">
      <stop offset="0" stop-color="#ffebce"/>
      <stop offset="0.508" stop-color="#ffd290"/>
      <stop offset="0.992" stop-color="#d98e3f"/>
    </radialGradient>
    <linearGradient id="linear-gradient" x1="-0.94" y1="0.5" x2="1.392" y2="0.5" gradientTransform="matrix(1, 0, 0, 1, 0, 0)" xlink:href="#radial-gradient"/>
    <linearGradient id="linear-gradient-2" x1="-0.876" y1="0.31" x2="1.236" y2="0.584" gradientTransform="matrix(1, 0, 0, 1, 0, 0)" xlink:href="#radial-gradient"/>
    <linearGradient id="linear-gradient-3" x1="-0.478" y1="0.193" x2="1.178" y2="0.713" gradientUnits="objectBoundingBox">
      <stop offset="0" stop-color="#ffebce"/>
      <stop offset="0.271" stop-color="#ffd290"/>
      <stop offset="0.992" stop-color="#d98e3f"/>
    </linearGradient>
    <linearGradient id="linear-gradient-4" x1="-0.721" y1="0.059" x2="1.159" y2="0.776" gradientUnits="objectBoundingBox">
      <stop offset="0" stop-color="#ffebce"/>
      <stop offset="0.301" stop-color="#ffd290"/>
      <stop offset="0.992" stop-color="#d98e3f"/>
    </linearGradient>
    <linearGradient id="linear-gradient-5" x1="-0.882" y1="0.271" x2="1.151" y2="0.628" gradientUnits="objectBoundingBox">
      <stop offset="0" stop-color="#ffebce"/>
      <stop offset="0.454" stop-color="#ffd290"/>
      <stop offset="0.992" stop-color="#d98e3f"/>
    </linearGradient>
    <linearGradient id="linear-gradient-6" x1="-0.748" y1="0.234" x2="1.185" y2="0.677" gradientUnits="objectBoundingBox">
      <stop offset="0" stop-color="#ffebce"/>
      <stop offset="0.418" stop-color="#ffd290"/>
      <stop offset="0.992" stop-color="#d98e3f"/>
    </linearGradient>
    <radialGradient id="radial-gradient-2" cx="0.601" cy="0.306" fx="0.35291749238967896" fy="0.01183632668107748" r="1.746" gradientTransform="matrix(0.628, 0.336, -0.111, 0.466, 0.257, -0.038)" gradientUnits="objectBoundingBox">
      <stop offset="0.334" stop-color="#b78c61"/>
      <stop offset="0.64" stop-color="#ffd290" stop-opacity="0"/>
    </radialGradient>
    <linearGradient id="linear-gradient-7" x1="0.967" y1="1.213" x2="0.296" y2="0.133" gradientUnits="objectBoundingBox">
      <stop offset="0.379" stop-color="#d98e3f"/>
      <stop offset="1" stop-color="#b16a38"/>
    </linearGradient>
    <radialGradient id="radial-gradient-3" cx="0.483" cy="0.563" fx="0.4274229109287262" fy="-0.7750036120414734" r="1.342" gradientTransform="matrix(0.53, 0.322, -0.09, 0.471, 0.278, 0.142)" gradientUnits="objectBoundingBox">
      <stop offset="0" stop-color="#ffebce"/>
      <stop offset="0.56" stop-color="#ffd290"/>
      <stop offset="0.644" stop-color="#fccd8a"/>
      <stop offset="0.753" stop-color="#f4bf7a"/>
      <stop offset="0.875" stop-color="#e8a95f"/>
      <stop offset="0.992" stop-color="#d98e3f"/>
    </radialGradient>
    <linearGradient id="linear-gradient-8" x1="-0.163" y1="3.174" x2="1.707" y2="-4.506" gradientUnits="objectBoundingBox">
      <stop offset="0" stop-color="#c7793f"/>
      <stop offset="0.193" stop-color="#d08546"/>
      <stop offset="0.494" stop-color="#e5a158"/>
    </linearGradient>
    <linearGradient id="linear-gradient-9" x1="0.389" y1="0.994" x2="0.646" y2="-0.037" xlink:href="#linear-gradient-8"/>
    <linearGradient id="linear-gradient-10" x1="-1.213" y1="3.5" x2="1.695" y2="-1.27" xlink:href="#linear-gradient-8"/>
    <linearGradient id="linear-gradient-11" x1="0.127" y1="1.622" x2="0.733" y2="-0.201" xlink:href="#linear-gradient-8"/>
    <linearGradient id="linear-gradient-12" x1="-0.252" y1="8.727" x2="1.041" y2="-5.504" gradientUnits="objectBoundingBox">
      <stop offset="0.131" stop-color="#e5a158"/>
      <stop offset="0.323" stop-color="#e9aa64"/>
      <stop offset="0.672" stop-color="#f5c485"/>
      <stop offset="0.68" stop-color="#f6c586"/>
      <stop offset="0.804" stop-color="#ffd696"/>
    </linearGradient>
    <linearGradient id="linear-gradient-13" x1="0.407" y1="1.58" x2="0.585" y2="-0.33" xlink:href="#linear-gradient-12"/>
    <linearGradient id="linear-gradient-14" x1="-0.503" y1="5.072" x2="1.51" y2="-3.766" xlink:href="#linear-gradient-12"/>
    <linearGradient id="linear-gradient-15" x1="0.23" y1="2.673" x2="0.649" y2="-0.704" xlink:href="#linear-gradient-12"/>
    <radialGradient id="radial-gradient-4" cx="0.487" cy="0.544" fy="-0.20209868252277374" r="1.306" gradientTransform="matrix(0.531, 0.317, -0.088, 0.472, 0.277, 0.133)" gradientUnits="objectBoundingBox">
      <stop offset="0.469" stop-color="#ffd290" stop-opacity="0"/>
      <stop offset="0.588" stop-color="#d99f61" stop-opacity="0.302"/>
      <stop offset="0.693" stop-color="#edba79" stop-opacity="0"/>
    </radialGradient>
    <linearGradient id="linear-gradient-16" x1="0.007" y1="0.5" x2="0.991" y2="0.5" gradientUnits="objectBoundingBox">
      <stop offset="0" stop-color="#eabd54"/>
      <stop offset="0.155" stop-color="#f5d674"/>
      <stop offset="0.277" stop-color="#ffed91"/>
      <stop offset="0.478" stop-color="#ffed91"/>
      <stop offset="0.705" stop-color="#c27917"/>
      <stop offset="0.738" stop-color="#cb8c29"/>
      <stop offset="0.82" stop-color="#e1b753"/>
      <stop offset="0.894" stop-color="#f1d671"/>
      <stop offset="0.956" stop-color="#fbe983"/>
      <stop offset="1" stop-color="#fff08a"/>
    </linearGradient>
    <linearGradient id="linear-gradient-17" x1="0.014" y1="0.5" x2="0.986" y2="0.5" xlink:href="#linear-gradient-16"/>
    <linearGradient id="linear-gradient-18" x1="0.006" y1="0.5" x2="0.991" y2="0.5" xlink:href="#linear-gradient-16"/>
    <linearGradient id="linear-gradient-19" x1="0.021" y1="0.5" x2="0.976" y2="0.5" xlink:href="#linear-gradient-16"/>
    <linearGradient id="linear-gradient-20" x1="0.045" y1="0.5" x2="0.941" y2="0.5" xlink:href="#linear-gradient-16"/>
    <linearGradient id="linear-gradient-21" x1="0.016" y1="0.5" x2="0.988" y2="0.5" xlink:href="#linear-gradient-16"/>
    <linearGradient id="linear-gradient-22" x1="0.005" y1="0.5" x2="0.99" y2="0.5" xlink:href="#linear-gradient-16"/>
    <linearGradient id="linear-gradient-23" x1="0.034" y1="0.5" x2="0.966" y2="0.5" xlink:href="#linear-gradient-16"/>
    <linearGradient id="linear-gradient-24" x1="0.007" y1="0.5" x2="0.997" y2="0.5" xlink:href="#linear-gradient-16"/>
    <linearGradient id="linear-gradient-25" x1="0.018" y1="0.5" x2="0.99" y2="0.5" xlink:href="#linear-gradient-16"/>
    <linearGradient id="linear-gradient-26" x1="0.022" y1="0.5" x2="0.989" y2="0.5" xlink:href="#linear-gradient-16"/>
    <linearGradient id="linear-gradient-27" x1="0.013" y1="0.5" x2="0.992" y2="0.5" xlink:href="#linear-gradient-16"/>
    <linearGradient id="linear-gradient-28" x1="0.03" y1="0.5" x2="0.966" y2="0.5" xlink:href="#linear-gradient-16"/>
    <linearGradient id="linear-gradient-29" x1="0.066" y1="0.5" x2="0.931" y2="0.5" xlink:href="#linear-gradient-16"/>
    <linearGradient id="linear-gradient-30" x1="0.5" y1="0.915" x2="0.5" y2="0.091" xlink:href="#linear-gradient-16"/>
    <linearGradient id="linear-gradient-31" x1="0.5" y1="0.964" x2="0.5" y2="0.069" xlink:href="#linear-gradient-16"/>
    <linearGradient id="linear-gradient-32" x1="0.034" y1="0.5" x2="0.966" y2="0.5" xlink:href="#linear-gradient-16"/>
    <linearGradient id="linear-gradient-33" x1="0.002" y1="0.5" x2="0.989" y2="0.5" xlink:href="#linear-gradient-16"/>
    <linearGradient id="linear-gradient-34" x1="0.007" y1="0.5" x2="0.994" y2="0.5" xlink:href="#linear-gradient-16"/>
    <linearGradient id="linear-gradient-35" x1="0" y1="0.5" x2="1" y2="0.5" xlink:href="#linear-gradient-16"/>
    <linearGradient id="linear-gradient-36" x1="0.008" y1="0.5" x2="0.995" y2="0.5" xlink:href="#linear-gradient-16"/>
    <linearGradient id="linear-gradient-37" x1="0.046" y1="0.5" x2="0.964" y2="0.5" xlink:href="#linear-gradient-16"/>
  </defs>
  <g id="moon-cookie2" transform="translate(-3.205 -0.302)">
    <g id="组_238" data-name="组 238" transform="translate(3.205 0.393)">
      <g id="组_237" data-name="组 237">
        <path id="路径_125" data-name="路径 125" d="M374.552,227.163l-.251.668c-.251.668-2.506,6.934-2.506,6.934a2.4,2.4,0,0,0,1.045,2.386s-.5,1.787,2.875,3.458c0,0,.113,2.205,4.118,3.147a5.738,5.738,0,0,0,5.594,2.681s3.73,3.147,6.255,2.1c0,0,4.273,2.059,5.517.194,0,0,2.953.738,3.924-.738a2.676,2.676,0,0,0,2.331-1.9c.816-1.943,2.242-8.164,2.242-8.164-.6.525-1.99-.121-1.99-.121a.975.975,0,0,1-.166,1.657c-1.16.829-3.438-.166-3.438-.166s-.041.953-1.408,1.118A4.065,4.065,0,0,1,394.842,239c-2.692,1.74-6.131-1.781-6.131-1.781-4.805.828-5.592-2.486-5.592-2.486-5.3-.746-4.184-3.065-4.184-3.065a3.659,3.659,0,0,1-3.06-1.38,1.06,1.06,0,0,1,.208-1.345s-1.681-.645-1.52-2.05Z" transform="translate(-371.755 -222.821)" fill="url(#radial-gradient)"/>
        <path id="路径_126" data-name="路径 126" d="M484.184,286.033s2.953.738,3.924-.738a9.153,9.153,0,0,0,1.749-3.374,41.226,41.226,0,0,0,1.373-5.335c.123-1.383-.538-1.48-.538-1.48a.975.975,0,0,1-.166,1.657c-1.16.829-3.438-.166-3.438-.166Z" transform="translate(-458.739 -260.12)" fill="url(#linear-gradient)"/>
        <path id="路径_127" data-name="路径 127" d="M459.8,289.922s4.273,2.059,5.517.194c0,0,1.083-2.974,1.711-5.053s1.192-4.382,1.192-4.382-.041.953-1.408,1.118a4.065,4.065,0,0,1-3.852-1.408C462.872,280.473,459.8,289.922,459.8,289.922Z" transform="translate(-439.876 -264.209)" fill="url(#linear-gradient-2)"/>
        <path id="路径_128" data-name="路径 128" d="M379.334,247.615c-3.38-1.671-2.875-3.458-2.875-3.458s.93-3.687,1.553-5.4c.941-2.589,1.69-2.8,1.69-2.8a1.06,1.06,0,0,0-.208,1.345,3.659,3.659,0,0,0,3.06,1.38s-1.152,2.412-1.8,4.276A47.514,47.514,0,0,0,379.334,247.615Z" transform="translate(-375.374 -229.827)" fill="url(#linear-gradient-3)"/>
        <path id="路径_129" data-name="路径 129" d="M389.252,256.933s.113,2.205,4.118,3.147l3.286-9.019c-5.3-.746-4.184-3.065-4.184-3.065a67.176,67.176,0,0,0-2.777,7.179A9.447,9.447,0,0,1,389.252,256.933Z" transform="translate(-385.292 -239.145)" fill="url(#linear-gradient-4)"/>
        <path id="路径_130" data-name="路径 130" d="M416.326,264.024c-4.805.828-5.592-2.485-5.592-2.485l-3.286,9.019a5.738,5.738,0,0,0,5.595,2.681Z" transform="translate(-399.37 -249.624)" fill="url(#linear-gradient-5)"/>
        <path id="路径_131" data-name="路径 131" d="M432.167,281.735s3.73,3.147,6.255,2.1a55.714,55.714,0,0,0,2.05-5.251,39.145,39.145,0,0,0,1.11-4.28c-2.692,1.74-6.131-1.781-6.131-1.781Z" transform="translate(-418.494 -258.12)" fill="url(#linear-gradient-6)"/>
        <g id="组_188" data-name="组 188" transform="translate(0 4.074)" style="mix-blend-mode: multiply;isolation: isolate">
          <path id="路径_132" data-name="路径 132" d="M374.552,227.163l-.251.668c-.251.668-2.506,6.934-2.506,6.934a2.4,2.4,0,0,0,1.045,2.386s-.5,1.787,2.875,3.458c0,0,.113,2.205,4.118,3.147a5.738,5.738,0,0,0,5.594,2.681s3.73,3.147,6.255,2.1c0,0,4.273,2.059,5.517.194,0,0,2.953.738,3.924-.738a2.676,2.676,0,0,0,2.331-1.9c.816-1.943,2.242-8.164,2.242-8.164-.6.525-1.99-.121-1.99-.121a.975.975,0,0,1-.166,1.657c-1.16.829-3.438-.166-3.438-.166s-.041.953-1.408,1.118A4.065,4.065,0,0,1,394.842,239c-2.692,1.74-6.131-1.781-6.131-1.781-4.805.828-5.592-2.486-5.592-2.486-5.3-.746-4.184-3.065-4.184-3.065a3.659,3.659,0,0,1-3.06-1.38,1.06,1.06,0,0,1,.208-1.345s-1.681-.645-1.52-2.05Z" transform="translate(-371.755 -226.895)" fill="url(#radial-gradient-2)"/>
        </g>
        <path id="路径_133" data-name="路径 133" d="M414.08,224.738c.84,2.877-2.141,1.5-2.141,1.5a.978.978,0,0,1-.168,1.668c-1.176.834-3.485-.167-3.485-.167s-.042.959-1.428,1.126a4.132,4.132,0,0,1-3.905-1.418c-2.729,1.751-6.215-1.793-6.215-1.793-4.871.834-5.669-2.5-5.669-2.5-5.375-.75-4.241-3.086-4.241-3.086a3.723,3.723,0,0,1-3.1-1.39,1.062,1.062,0,0,1,.211-1.355s-1.7-.649-1.541-2.063,1.984-2.063,3.315-1.878a1.611,1.611,0,0,1,1.77-1.285s1.245-1.87,8.141-.3,12.181,3.952,13.032,4.887c.465.511.091.573.091.573s3.8,1.116,3.554,2.865a3.873,3.873,0,0,1,1.805,2.1A3.808,3.808,0,0,1,414.08,224.738Z" transform="translate(-379.978 -210.654)" stroke="#707070" stroke-linejoin="round" stroke-width="1.068" fill="url(#linear-gradient-7)"/>
        <path id="路径_134" data-name="路径 134" d="M415.382,222.417c.829,2.858-2.113,1.491-2.113,1.491a.975.975,0,0,1-.166,1.657c-1.16.829-3.438-.166-3.438-.166s-.041.953-1.408,1.118a4.065,4.065,0,0,1-3.853-1.408c-2.692,1.74-6.131-1.781-6.131-1.781-4.805.828-5.592-2.485-5.592-2.485-5.3-.745-4.184-3.065-4.184-3.065a3.659,3.659,0,0,1-3.06-1.38,1.06,1.06,0,0,1,.208-1.346s-1.681-.645-1.52-2.05,1.957-2.05,3.27-1.865a1.593,1.593,0,0,1,1.746-1.276s1.229-1.858,8.031-.3,12.016,3.925,12.855,4.854c.458.508.09.569.09.569s3.746,1.109,3.506,2.847a3.746,3.746,0,0,1,1.758,4.586Z" transform="translate(-381.318 -208.928)" fill="url(#radial-gradient-3)"/>
        <g id="组_189" data-name="组 189" transform="translate(5.163 1.404)">
          <path id="路径_135" data-name="路径 135" d="M407.838,235.836a.961.961,0,0,0,.5-.386.646.646,0,0,0,.057-.508.549.549,0,0,0-.206-.288c-.189-.2-.814-.655-2.575-.555a.8.8,0,0,0-.739.394.751.751,0,0,0,.048.713.784.784,0,0,0,.167.181,2.761,2.761,0,0,0,1.764.631A2.7,2.7,0,0,0,407.838,235.836Zm-2.308-.97-.028-.022c-.006-.011-.012-.031-.021-.031h0a.474.474,0,0,1,.175-.035c1.594-.091,2.011.311,2.039.34l.019.024a.707.707,0,0,1-.124.06A2.108,2.108,0,0,1,405.53,234.865Z" transform="translate(-402.49 -229.787)" fill="url(#linear-gradient-8)"/>
          <path id="路径_136" data-name="路径 136" d="M420.415,226.7a.336.336,0,0,0-.36-.158,1.225,1.225,0,0,0,.574-1.081,2.33,2.33,0,0,0-.787-1.481.906.906,0,0,0,.452-.015.855.855,0,0,0,.62-.668,1.2,1.2,0,0,0-.626-1.183,5.69,5.69,0,0,0-1.788-.857.672.672,0,0,0,.1-.14.863.863,0,0,0-.427-1.077,1.4,1.4,0,0,0-1.286-.146.6.6,0,0,0-.4.494.484.484,0,0,0,.284.471,7.944,7.944,0,0,1-1.6-.283,3.3,3.3,0,0,0,.679-.2.8.8,0,0,0,.554-.934c-.145-.584-1.025-1.119-2.431-1-.439.035-.872.109-1.292.18-.365.062-.742.126-1.111.162a.33.33,0,0,0-.192.091l-.1-.066a.325.325,0,0,0,0-.068c0-.009-.128-.867.263-.96a.524.524,0,0,1,.462.078.34.34,0,0,0,.4.5.492.492,0,0,0,.315-.623,1.094,1.094,0,0,0-1.332-.619,1.167,1.167,0,0,0-.807,1.217c-.213-.143-.437-.293-.669-.446a.322.322,0,0,0-.029-.048.966.966,0,0,1-.332-.754.583.583,0,0,1,.225.117.34.34,0,0,0,.4-.547c-.519-.383-.924-.273-1.13-.043a.807.807,0,0,0-.183.593l-.511-.326a.315.315,0,0,0,0-.063l-.156-.7a.34.34,0,0,0-.665.148l.027.121a11.426,11.426,0,0,0-2.482-1.28.343.343,0,0,0-.1,0l-6.039.722a.34.34,0,0,0-.117.64c.621.323,1.214.646,1.791.967-.612-.193-1.167-.377-1.451-.5l-.089-.038a6.459,6.459,0,0,0-1.709-.545,2.342,2.342,0,0,0-1.958.562,1.036,1.036,0,0,0-.347.965.883.883,0,0,0,.746.653,1.073,1.073,0,0,0,.863-.3.717.717,0,0,0,.2-.848.34.34,0,0,0-.616.286.237.237,0,0,1-.05.068.4.4,0,0,1-.309.118.208.208,0,0,1-.17-.132.42.42,0,0,1,.16-.325,1.7,1.7,0,0,1,1.4-.373,5.865,5.865,0,0,1,1.528.5l.089.038c.51.217,1.716.586,2.78.913.689.212,1.4.43,1.556.5h.006c.151.093.3.186.445.278-1.778-.183-4.768-.574-5.237-.661a5.223,5.223,0,0,0-2.136-.058,2.1,2.1,0,0,0-1.72,1.53,1.619,1.619,0,0,0,.692,1.618,3.08,3.08,0,0,0,1.742.5,2.155,2.155,0,0,0,.91-.167.34.34,0,1,0-.3-.608,2.421,2.421,0,0,1-1.952-.283.95.95,0,0,1-.414-.973c.065-.484.65-.83,1.2-.958a4.648,4.648,0,0,1,1.858.065c.606.112,4.456.608,6.023.736a16.538,16.538,0,0,0-5.745,2.371.87.87,0,0,0-.434.87c.1.538.763.868,1.1.967a2.3,2.3,0,0,0,.645.086,4.051,4.051,0,0,0,.752-.081,11.823,11.823,0,0,0,5.666-3.2c.147.1.287.2.429.3a.335.335,0,0,0,.032.111,3.739,3.739,0,0,1,.4,2.41.347.347,0,0,0-.033.126c0,.017,0,.031,0,.048a4.512,4.512,0,0,1-.145.535,2.7,2.7,0,0,1-1.223,1.552,2.5,2.5,0,0,1-1.4.2,1.869,1.869,0,0,1-1.371-.725,1.115,1.115,0,0,1,.163-1.307,1.86,1.86,0,0,1,.67-.394,2.134,2.134,0,0,1,1.279-.162.918.918,0,0,1,.719.728.4.4,0,0,1-.029.2.618.618,0,0,1-.276.24.831.831,0,0,1-.642.108.29.29,0,0,1-.15-.183.117.117,0,0,1,.006-.091.34.34,0,1,0-.536-.419.776.776,0,0,0-.128.682.965.965,0,0,0,.545.638,1.418,1.418,0,0,0,1.23-.138,1.249,1.249,0,0,0,.565-.545,1.071,1.071,0,0,0,.093-.545,1.576,1.576,0,0,0-1.235-1.335,2.775,2.775,0,0,0-1.688.188,2.6,2.6,0,0,0-.906.547,1.8,1.8,0,0,0-.266,2.135,2.479,2.479,0,0,0,1.877,1.053,3.909,3.909,0,0,0,.452.027,2.983,2.983,0,0,0,1.334-.292,2.942,2.942,0,0,0,1.151-1.079,5.24,5.24,0,0,0,.225.881,3.868,3.868,0,0,0,1.642,2.048,2.01,2.01,0,0,0,1,.3,1.381,1.381,0,0,0,.3-.031,1.514,1.514,0,0,0,1.125-1.279,1.96,1.96,0,0,0-.351-1.364,8.305,8.305,0,0,0,2.975,1.389,4.847,4.847,0,0,0,1.077.148,2.508,2.508,0,0,0,.5-.047,1.259,1.259,0,0,0,1.111-1.219c-.045-.506-.469-.895-1.194-1.094l-.016,0c.538-.106,1.06-.215,1.5-.321a.763.763,0,0,0-.192.538.962.962,0,0,0,.3.615,2.308,2.308,0,0,0,1.666.7,2.209,2.209,0,0,0,.832-.16c.043-.018.086-.04.129-.062a.339.339,0,0,0-.029.383,1.81,1.81,0,0,1,.238.521.37.37,0,0,1-.065.326.638.638,0,0,1-.486.067,4.028,4.028,0,0,1-1.859-.713.34.34,0,0,0-.533.23,1.339,1.339,0,0,1-.693.824,3.4,3.4,0,0,1-2.166.506,2.666,2.666,0,0,1-1.854-1.076.34.34,0,0,0-.559.388,3.356,3.356,0,0,0,2.33,1.363,3.652,3.652,0,0,0,.443.027,4.169,4.169,0,0,0,2.161-.628,2.308,2.308,0,0,0,.854-.839,4.714,4.714,0,0,0,1.8.593,1.288,1.288,0,0,0,1.032-.248,1.024,1.024,0,0,0,.265-.952A2.338,2.338,0,0,0,420.415,226.7Zm-.171-3.523a.177.177,0,0,1-.135.134.361.361,0,0,1-.371-.146.34.34,0,0,0-.48-.026.334.334,0,0,0-.1.291,13.387,13.387,0,0,0-3-1.358c-.146-.05-.265-.091-.345-.122a.336.336,0,0,0-.134-.022q-.26-.2-.529-.394a13.635,13.635,0,0,1,2.189.152,5.834,5.834,0,0,1,2.555.977C420.179,222.874,420.263,223.066,420.244,223.173Zm-2.972-2.414a.339.339,0,0,0,.084-.285.812.812,0,0,1,.452.14.466.466,0,0,1,.179.192s-.046.047-.273.059c-.2.01-.407.012-.609.007A.418.418,0,0,0,417.272,220.759Zm-4.479-1.47c.424-.072.824-.14,1.232-.173,1.092-.085,1.665.282,1.717.49.016.067-.143.138-.162.146a4.693,4.693,0,0,1-2.157.2,9.661,9.661,0,0,1,1.384-.046.34.34,0,0,0,.061-.678,11.12,11.12,0,0,0-2.653.222l-.078-.054C412.358,219.361,412.578,219.325,412.793,219.288ZM405,215.782c1.62.406,10.885,6.948,12.464,8.457-.8.226-2.781.609-4.625.916-.339-.24-.808-.622-1.386-1.093a68.674,68.674,0,0,0-11.354-7.695Zm-4.463,7.756a2.387,2.387,0,0,1-1.079.01c-.28-.082-.6-.3-.624-.433-.006-.035.043-.111.168-.2a14.987,14.987,0,0,1,5.024-2.137,43.25,43.25,0,0,1-3.936,1.87.34.34,0,1,0,.26.628,43.921,43.921,0,0,0,5.385-2.677l.016.011A11.053,11.053,0,0,1,400.536,223.538Zm10.317,3.906a.836.836,0,0,1-.6.707,1.2,1.2,0,0,1-.805-.192,3.192,3.192,0,0,1-1.344-1.692,5.518,5.518,0,0,1-.272-2.2,4.381,4.381,0,0,0-.074-2.031c.251.186.495.368.727.545a4.8,4.8,0,0,0,1.728,2.84,1.311,1.311,0,0,0-.188-.041,1.065,1.065,0,0,0-1.138.618,1.124,1.124,0,0,0,.28,1.162,2.616,2.616,0,0,0,.843.539.34.34,0,0,0,.286-.617,2.067,2.067,0,0,1-.635-.389.47.47,0,0,1-.141-.446.407.407,0,0,1,.415-.193.966.966,0,0,1,.572.365A1.355,1.355,0,0,1,410.853,227.444Zm5.3-.94c.02.222-.277.434-.567.492a1.79,1.79,0,0,1-.268.032.34.34,0,0,0-.289-.614.175.175,0,0,1-.137-.017.216.216,0,0,1-.112-.124.287.287,0,0,1,.179-.308.924.924,0,0,1,.5.042C415.618,226.049,416.131,226.212,416.157,226.5Zm-2.031-.058a.872.872,0,0,0,.351.492l-.174-.038a8.266,8.266,0,0,1-3.4-1.782,5.723,5.723,0,0,1-1.528-1.848c.635.5,1.186.947,1.645,1.321.683.557,1.177.959,1.547,1.207a.337.337,0,0,0,.189.058.357.357,0,0,0,.056,0c.334-.055.9-.151,1.539-.265A.939.939,0,0,0,414.126,226.445Zm4.39-.809a.105.105,0,0,1-.057.045.118.118,0,0,1-.064.008.34.34,0,0,0-.565.121,1.412,1.412,0,0,1-.1-.1c-.1-.108-.115-.162-.115-.181,0-.059.112-.163.265-.21a.841.841,0,0,1,.245-.039.511.511,0,0,1,.27.068A.269.269,0,0,1,418.516,225.636Zm.956.453a1.52,1.52,0,0,1-.559.108.748.748,0,0,0,.228-.29.94.94,0,0,0-.39-1.135,1.147,1.147,0,0,0-.5-.165.384.384,0,0,0,.074-.309c-.036-.188-.413-.57-.981-1.053,1.186.506,2.528,1.274,2.6,2.264C419.97,225.755,419.724,225.986,419.472,226.089Z" transform="translate(-394.569 -215.097)" fill="url(#linear-gradient-9)"/>
          <path id="路径_137" data-name="路径 137" d="M512.659,257.068a.34.34,0,0,0-.651-.2.721.721,0,0,1-.738.479.34.34,0,0,0-.183.647,1.574,1.574,0,0,1,.607.49.721.721,0,0,1,.158.343.229.229,0,0,1-.063.195.707.707,0,0,1-.373.031l-.7-.054a.34.34,0,1,0-.052.678l.7.054c.062,0,.138.01.22.01a1.01,1.01,0,0,0,.6-.169.891.891,0,0,0,.341-.811,1.375,1.375,0,0,0-.289-.684,2.212,2.212,0,0,0-.205-.238A1.374,1.374,0,0,0,512.659,257.068Z" transform="translate(-484.145 -247.229)" fill="url(#linear-gradient-10)"/>
          <path id="路径_138" data-name="路径 138" d="M444.211,228.029a.34.34,0,0,0,.232-.589c-3.463-3.236-10.474-7.468-10.545-7.51a.34.34,0,1,0-.351.583c.07.042,7.02,4.237,10.431,7.424A.338.338,0,0,0,444.211,228.029Z" transform="translate(-424.598 -218.798)" fill="url(#linear-gradient-11)"/>
        </g>
        <g id="组_190" data-name="组 190" transform="translate(5.214 0.887)">
          <path id="路径_139" data-name="路径 139" d="M408.064,233.551a.959.959,0,0,0,.5-.386.644.644,0,0,0,.057-.508.549.549,0,0,0-.206-.288c-.189-.2-.814-.655-2.575-.555a.8.8,0,0,0-.739.394.75.75,0,0,0,.048.713.783.783,0,0,0,.167.181,2.762,2.762,0,0,0,1.764.631A2.7,2.7,0,0,0,408.064,233.551Zm-2.308-.97-.028-.022c-.006-.011-.012-.031-.021-.031h0a.473.473,0,0,1,.175-.035c1.594-.091,2.012.311,2.039.34l.019.024a.682.682,0,0,1-.124.06A2.107,2.107,0,0,1,405.756,232.581Z" transform="translate(-402.716 -227.503)" fill="url(#linear-gradient-12)"/>
          <path id="路径_140" data-name="路径 140" d="M420.641,224.412a.336.336,0,0,0-.36-.158,1.225,1.225,0,0,0,.574-1.081,2.331,2.331,0,0,0-.787-1.482.9.9,0,0,0,.452-.015.855.855,0,0,0,.619-.668,1.2,1.2,0,0,0-.626-1.183,5.684,5.684,0,0,0-1.788-.856.67.67,0,0,0,.095-.14.862.862,0,0,0-.427-1.077,1.4,1.4,0,0,0-1.286-.146.6.6,0,0,0-.4.494.484.484,0,0,0,.284.471,7.986,7.986,0,0,1-1.6-.283,3.283,3.283,0,0,0,.679-.2.8.8,0,0,0,.554-.934c-.144-.584-1.025-1.119-2.431-1-.439.035-.872.109-1.292.18-.365.062-.742.126-1.111.162a.333.333,0,0,0-.192.091l-.1-.066a.309.309,0,0,0,0-.068c0-.009-.127-.867.263-.96a.524.524,0,0,1,.462.078.34.34,0,0,0,.4.5.492.492,0,0,0,.315-.623,1.093,1.093,0,0,0-1.331-.619,1.167,1.167,0,0,0-.807,1.217c-.213-.143-.437-.293-.669-.446a.319.319,0,0,0-.029-.048.965.965,0,0,1-.332-.755.585.585,0,0,1,.225.117.34.34,0,0,0,.4-.547c-.519-.383-.924-.273-1.13-.043a.808.808,0,0,0-.183.594l-.511-.327a.326.326,0,0,0,0-.063l-.156-.7a.34.34,0,0,0-.664.147l.027.122a11.44,11.44,0,0,0-2.482-1.28.351.351,0,0,0-.1,0l-6.039.722a.34.34,0,0,0-.117.64c.621.323,1.214.646,1.791.968-.612-.193-1.168-.377-1.452-.5l-.089-.038a6.467,6.467,0,0,0-1.709-.545,2.343,2.343,0,0,0-1.959.562,1.037,1.037,0,0,0-.347.965.885.885,0,0,0,.746.653,1.073,1.073,0,0,0,.863-.3.717.717,0,0,0,.2-.849.34.34,0,0,0-.616.286.233.233,0,0,1-.05.068.393.393,0,0,1-.308.118.208.208,0,0,1-.17-.132.419.419,0,0,1,.16-.325,1.7,1.7,0,0,1,1.4-.373,5.855,5.855,0,0,1,1.528.5l.089.038c.51.217,1.716.587,2.78.913.689.211,1.4.43,1.556.5h.006l.445.278c-1.778-.183-4.768-.574-5.237-.66a5.222,5.222,0,0,0-2.136-.058,2.1,2.1,0,0,0-1.72,1.53,1.619,1.619,0,0,0,.692,1.618,3.08,3.08,0,0,0,1.741.5,2.159,2.159,0,0,0,.911-.166.34.34,0,0,0-.3-.608,2.421,2.421,0,0,1-1.952-.283.95.95,0,0,1-.414-.973c.065-.484.65-.83,1.2-.958a4.648,4.648,0,0,1,1.858.065c.606.112,4.456.609,6.023.736a16.542,16.542,0,0,0-5.745,2.371.87.87,0,0,0-.434.87c.1.537.763.868,1.1.967a2.29,2.29,0,0,0,.645.087,4.046,4.046,0,0,0,.751-.081,11.819,11.819,0,0,0,5.666-3.2c.146.1.287.2.429.3a.334.334,0,0,0,.032.111,3.74,3.74,0,0,1,.4,2.41.344.344,0,0,0-.033.125c0,.017,0,.031,0,.048a4.509,4.509,0,0,1-.144.535,2.7,2.7,0,0,1-1.223,1.552,2.505,2.505,0,0,1-1.4.2,1.87,1.87,0,0,1-1.371-.725,1.115,1.115,0,0,1,.163-1.307,1.856,1.856,0,0,1,.67-.394,2.135,2.135,0,0,1,1.279-.162.917.917,0,0,1,.719.728.392.392,0,0,1-.029.2.616.616,0,0,1-.276.24.83.83,0,0,1-.642.108.29.29,0,0,1-.15-.183.12.12,0,0,1,.006-.091.34.34,0,0,0-.536-.419.778.778,0,0,0-.128.682.966.966,0,0,0,.545.638,1.419,1.419,0,0,0,1.231-.138,1.249,1.249,0,0,0,.565-.545,1.076,1.076,0,0,0,.093-.545,1.577,1.577,0,0,0-1.235-1.335,2.775,2.775,0,0,0-1.688.188,2.6,2.6,0,0,0-.906.547,1.8,1.8,0,0,0-.266,2.135,2.479,2.479,0,0,0,1.877,1.053,3.913,3.913,0,0,0,.452.027,2.98,2.98,0,0,0,1.334-.292,2.94,2.94,0,0,0,1.151-1.079,5.2,5.2,0,0,0,.225.881,3.869,3.869,0,0,0,1.642,2.048,2.009,2.009,0,0,0,1,.3,1.385,1.385,0,0,0,.3-.031,1.515,1.515,0,0,0,1.125-1.279,1.962,1.962,0,0,0-.351-1.364,8.3,8.3,0,0,0,2.975,1.389,4.864,4.864,0,0,0,1.077.148,2.51,2.51,0,0,0,.5-.047,1.259,1.259,0,0,0,1.111-1.219c-.045-.506-.469-.895-1.194-1.094l-.016,0c.538-.105,1.06-.215,1.5-.321a.764.764,0,0,0-.192.538.964.964,0,0,0,.3.615,2.307,2.307,0,0,0,1.666.7,2.206,2.206,0,0,0,.832-.16c.043-.017.086-.04.129-.062a.339.339,0,0,0-.029.383,1.8,1.8,0,0,1,.237.521.371.371,0,0,1-.065.326.638.638,0,0,1-.487.067,4.03,4.03,0,0,1-1.859-.713.34.34,0,0,0-.534.23,1.34,1.34,0,0,1-.692.824,3.4,3.4,0,0,1-2.166.506,2.664,2.664,0,0,1-1.854-1.076.34.34,0,1,0-.559.388,3.356,3.356,0,0,0,2.33,1.363,3.691,3.691,0,0,0,.442.027,4.168,4.168,0,0,0,2.161-.628,2.306,2.306,0,0,0,.854-.839,4.717,4.717,0,0,0,1.8.593,1.289,1.289,0,0,0,1.032-.248,1.024,1.024,0,0,0,.265-.952A2.346,2.346,0,0,0,420.641,224.412Zm-.171-3.523a.178.178,0,0,1-.136.134.361.361,0,0,1-.371-.146.34.34,0,0,0-.48-.026.334.334,0,0,0-.1.291,13.391,13.391,0,0,0-3-1.358c-.146-.05-.264-.091-.345-.122a.337.337,0,0,0-.134-.022c-.173-.13-.35-.262-.529-.394a13.638,13.638,0,0,1,2.19.152,5.835,5.835,0,0,1,2.555.977C420.4,220.59,420.489,220.781,420.47,220.889Zm-2.973-2.414a.339.339,0,0,0,.084-.284.812.812,0,0,1,.452.14.465.465,0,0,1,.179.192s-.046.047-.272.059c-.2.01-.407.012-.609.007A.417.417,0,0,0,417.5,218.474ZM413.018,217c.423-.072.824-.14,1.232-.173,1.092-.085,1.665.282,1.717.49.016.067-.144.137-.162.145a4.686,4.686,0,0,1-2.156.2,9.721,9.721,0,0,1,1.384-.046.34.34,0,1,0,.06-.678,11.114,11.114,0,0,0-2.653.222l-.078-.054C412.584,217.076,412.8,217.04,413.018,217Zm-7.794-3.507c1.62.406,10.885,6.948,12.464,8.457-.8.226-2.781.609-4.625.916-.339-.24-.808-.622-1.386-1.093a68.658,68.658,0,0,0-11.354-7.695Zm-4.463,7.756a2.387,2.387,0,0,1-1.079.01c-.28-.082-.6-.3-.624-.433-.006-.035.043-.111.168-.2a14.994,14.994,0,0,1,5.024-2.137,43.227,43.227,0,0,1-3.936,1.87.34.34,0,1,0,.26.629,43.963,43.963,0,0,0,5.385-2.677l.016.011A11.053,11.053,0,0,1,400.762,221.253Zm10.317,3.906a.837.837,0,0,1-.6.707,1.2,1.2,0,0,1-.805-.192,3.189,3.189,0,0,1-1.344-1.692,5.513,5.513,0,0,1-.273-2.2,4.378,4.378,0,0,0-.074-2.031c.251.186.495.368.727.545a4.8,4.8,0,0,0,1.728,2.84,1.274,1.274,0,0,0-.188-.041,1.065,1.065,0,0,0-1.138.618,1.123,1.123,0,0,0,.28,1.162,2.612,2.612,0,0,0,.842.538.34.34,0,1,0,.287-.617,2.066,2.066,0,0,1-.635-.389.469.469,0,0,1-.141-.446.407.407,0,0,1,.415-.193.964.964,0,0,1,.572.365A1.356,1.356,0,0,1,411.079,225.159Zm5.3-.94c.02.222-.277.434-.568.492a1.754,1.754,0,0,1-.267.032.34.34,0,0,0-.289-.614.176.176,0,0,1-.136-.017.216.216,0,0,1-.113-.125.287.287,0,0,1,.179-.308.924.924,0,0,1,.5.042C415.844,223.764,416.357,223.927,416.383,224.218Zm-2.031-.058a.872.872,0,0,0,.351.492l-.174-.038a8.267,8.267,0,0,1-3.4-1.782,5.729,5.729,0,0,1-1.529-1.847c.635.5,1.186.946,1.645,1.321.683.557,1.177.959,1.546,1.207a.339.339,0,0,0,.189.057.354.354,0,0,0,.055,0c.334-.055.9-.15,1.539-.265A.94.94,0,0,0,414.352,224.16Zm4.39-.809a.1.1,0,0,1-.057.045.117.117,0,0,1-.065.008.34.34,0,0,0-.478-.012.336.336,0,0,0-.088.133q-.055-.048-.1-.1c-.1-.108-.115-.162-.115-.181,0-.059.112-.163.265-.21a.848.848,0,0,1,.245-.038.509.509,0,0,1,.27.068A.268.268,0,0,1,418.742,223.352Zm.956.453a1.524,1.524,0,0,1-.559.108.751.751,0,0,0,.227-.29.94.94,0,0,0-.389-1.135,1.148,1.148,0,0,0-.5-.165.384.384,0,0,0,.074-.308c-.036-.188-.413-.57-.981-1.053,1.186.506,2.528,1.274,2.6,2.264C420.2,223.47,419.95,223.7,419.7,223.8Z" transform="translate(-394.794 -212.812)" fill="url(#linear-gradient-13)"/>
          <path id="路径_141" data-name="路径 141" d="M512.885,254.784a.34.34,0,0,0-.65-.2.721.721,0,0,1-.738.479.34.34,0,0,0-.183.647,1.578,1.578,0,0,1,.607.49.721.721,0,0,1,.157.343.229.229,0,0,1-.063.195.707.707,0,0,1-.373.031l-.7-.054a.34.34,0,0,0-.052.678l.7.054c.063,0,.138.011.22.011a1.008,1.008,0,0,0,.6-.169.889.889,0,0,0,.341-.811,1.378,1.378,0,0,0-.289-.684,2.245,2.245,0,0,0-.205-.237A1.374,1.374,0,0,0,512.885,254.784Z" transform="translate(-484.371 -244.944)" fill="url(#linear-gradient-14)"/>
          <path id="路径_142" data-name="路径 142" d="M444.436,225.745a.34.34,0,0,0,.232-.589c-3.463-3.236-10.474-7.468-10.545-7.51a.34.34,0,0,0-.351.583c.07.042,7.021,4.237,10.431,7.424A.338.338,0,0,0,444.436,225.745Z" transform="translate(-424.824 -216.514)" fill="url(#linear-gradient-15)"/>
        </g>
        <g id="组_191" data-name="组 191" transform="translate(2.801)" style="mix-blend-mode: multiply;isolation: isolate">
          <path id="路径_143" data-name="路径 143" d="M415.4,222.372c.828,2.858-2.112,1.491-2.112,1.491a.975.975,0,0,1-.166,1.657c-1.16.828-3.438-.166-3.438-.166s-.041.953-1.408,1.118a4.065,4.065,0,0,1-3.853-1.408c-2.693,1.74-6.131-1.781-6.131-1.781-4.805.829-5.592-2.485-5.592-2.485-5.3-.746-4.184-3.065-4.184-3.065a3.66,3.66,0,0,1-3.06-1.381,1.06,1.06,0,0,1,.208-1.345s-1.681-.645-1.52-2.05,1.957-2.05,3.27-1.865a1.593,1.593,0,0,1,1.746-1.276s1.229-1.858,8.031-.3,12.016,3.925,12.855,4.854c.458.507.09.569.09.569s3.746,1.109,3.506,2.847a3.746,3.746,0,0,1,1.758,4.586Z" transform="translate(-384.131 -208.893)" fill="url(#radial-gradient-4)"/>
        </g>
        <g id="组_236" data-name="组 236" transform="translate(5.469 1.145)">
          <g id="组_193" data-name="组 193" transform="translate(3.523 4.699)">
            <g id="组_192" data-name="组 192">
              <path id="路径_144" data-name="路径 144" d="M418.673,234.713a19.409,19.409,0,0,0-5.04,1.455c-.547.229-2.373.835-2.124,1.739.372,1.351,2.755.625,3.5.408a7.489,7.489,0,0,0,4.229-3.1c.065-.1-.092-.189-.157-.091a7.17,7.17,0,0,1-3.436,2.784,9.626,9.626,0,0,1-2.013.531c-.4.059-1.044.223-1.384-.094a.828.828,0,0,1-.052-1.25,8.862,8.862,0,0,1,3.116-1.361,17.231,17.231,0,0,1,3.362-.844c.114-.014.116-.2,0-.181Z" transform="translate(-411.487 -234.713)" fill="url(#linear-gradient-16)"/>
            </g>
          </g>
          <g id="组_195" data-name="组 195" transform="translate(5.377 4.832)">
            <g id="组_194" data-name="组 194">
              <path id="路径_145" data-name="路径 145" d="M419.817,238.1c1.77-.891,3.56-1.744,5.33-2.635.1-.052.012-.209-.092-.156-1.77.891-3.559,1.744-5.329,2.635-.1.052-.012.209.091.156Z" transform="translate(-419.68 -235.302)" fill="url(#linear-gradient-17)"/>
            </g>
          </g>
          <g id="组_197" data-name="组 197" transform="translate(0 3.274)">
            <g id="组_196" data-name="组 196">
              <path id="路径_146" data-name="路径 146" d="M398.837,231.443a3.1,3.1,0,0,1-2.083-.264c-1.228-.84-.35-2.179.608-2.484,1-.319,2.064.146,3.046.316,1.759.3,3.611.345,5.39.481.116.009.116-.172,0-.181a43.729,43.729,0,0,1-6.079-.634c-.962-.213-2.129-.513-3.008.129-.619.452-1.107,1.51-.539,2.175a3.075,3.075,0,0,0,2.713.637c.115-.016.066-.19-.048-.175Z" transform="translate(-395.921 -228.417)" fill="url(#linear-gradient-18)"/>
            </g>
          </g>
          <g id="组_199" data-name="组 199" transform="translate(2.455 4.257)">
            <g id="组_198" data-name="组 198">
              <path id="路径_147" data-name="路径 147" d="M408.449,232.766c-.374,0-1.646-.089-1.678.486s.881.807,1.284.86c.437.058,1.388.079,1.606-.453.229-.558-.494-.762-.883-.8-.116-.012-.115.169,0,.181l.28.037.2.719c-.079.136-.576.158-.731.165a2.67,2.67,0,0,1-.907-.121c-.123-.039-.425-.139-.489-.265l-.018-.474.19-.045a2.579,2.579,0,0,1,1.142-.106.091.091,0,0,0,0-.181Z" transform="translate(-406.77 -232.76)" fill="url(#linear-gradient-19)"/>
            </g>
          </g>
          <g id="组_201" data-name="组 201" transform="translate(9.498 9.079)">
            <g id="组_200" data-name="组 200">
              <path id="路径_148" data-name="路径 148" d="M437.96,254.107a.575.575,0,0,0,.138.722.983.983,0,0,0,.99.075c.109-.039.062-.214-.048-.175a.9.9,0,0,1-.748.017.408.408,0,0,1-.175-.548.091.091,0,0,0-.156-.091Z" transform="translate(-437.886 -254.064)" fill="url(#linear-gradient-20)"/>
            </g>
          </g>
          <g id="组_203" data-name="组 203" transform="translate(12.522 9.256)">
            <g id="组_202" data-name="组 202">
              <path id="路径_149" data-name="路径 149" d="M454.016,257.546q-.84-.345.251-1.363a1.513,1.513,0,0,1,.62.865c.257.871-.3,1.847-1.3,1.609a2.042,2.042,0,0,1-.879-.511,4.947,4.947,0,0,1-1.279-3.212c-.011-.115-.193-.116-.181,0a5.083,5.083,0,0,0,1.383,3.386,1.509,1.509,0,0,0,2.188.136c.651-.761.24-2.508-.894-2.561a.787.787,0,0,0-.86.7c-.035.537.457.871.86,1.108a.091.091,0,0,0,.092-.157Z" transform="translate(-451.247 -254.846)" fill="url(#linear-gradient-21)"/>
            </g>
          </g>
          <g id="组_205" data-name="组 205" transform="translate(7.614 5.816)">
            <g id="组_204" data-name="组 204">
              <path id="路径_150" data-name="路径 150" d="M433.117,243.451c.738-1.188-.839-1.961-1.852-1.721-1.166.277-2.28,1.645-1.359,2.738a2.792,2.792,0,0,0,3.8.063c1.443-1.152,1.335-3.293.674-4.836-.046-.107-.2-.015-.157.092.763,1.783.635,4.2-1.393,5.035-.792.326-2.624.439-2.949-.692a1.8,1.8,0,0,1,.925-2.032l.509-.193q1.307-.36,1.648,1.455c-.062.1.1.19.157.091Z" transform="translate(-429.565 -239.647)" fill="url(#linear-gradient-22)"/>
            </g>
          </g>
          <g id="组_207" data-name="组 207" transform="translate(19.608 10.032)">
            <g id="组_206" data-name="组 206">
              <path id="路径_151" data-name="路径 151" d="M484.487,258.814c-.445-.47-1.258-.817-1.77-.223a.634.634,0,0,0,.39,1.049c.114.019.163-.156.048-.175a.468.468,0,0,1-.143-.887,1.086,1.086,0,0,1,1.345.363c.081.085.208-.043.128-.128Z" transform="translate(-482.556 -258.277)" fill="url(#linear-gradient-23)"/>
            </g>
          </g>
          <g id="组_209" data-name="组 209" transform="translate(13.924 7.375)">
            <g id="组_208" data-name="组 208">
              <path id="路径_152" data-name="路径 152" d="M457.445,246.649c.318,1.783,2.312,3.2,3.846,3.893a4.993,4.993,0,0,0,3.165.519c.649-.18,1.079-.553.7-1.209a.091.091,0,0,0-.157.091c.83,1.451-2.637.807-2.935.709a7.928,7.928,0,0,1-2.448-1.353,4.811,4.811,0,0,1-2-2.7c-.02-.115-.2-.066-.175.048Z" transform="translate(-457.444 -246.535)" fill="url(#linear-gradient-24)"/>
            </g>
          </g>
          <g id="组_211" data-name="组 211" transform="translate(21.186 6.892)">
            <g id="组_210" data-name="组 210">
              <path id="路径_153" data-name="路径 153" d="M489.577,244.569a15.3,15.3,0,0,1,3.049,1.515,3.07,3.07,0,0,1,.913.932,1.055,1.055,0,0,1-.85,1.534,2.651,2.651,0,0,1-1.017-.186c-.169-.068-.626-.246-.635-.458l.869-.764q.545.663-.011.958c-.09.074.038.2.128.128.362-.293.736-.716.272-1.1a1.028,1.028,0,0,0-1.393.116c-.735,1,1.224,1.5,1.849,1.482a1.13,1.13,0,0,0,1.069-.872,1.528,1.528,0,0,0-.646-1.556,11.78,11.78,0,0,0-3.5-1.89c-.106-.047-.2.109-.091.156Z" transform="translate(-489.53 -244.404)" fill="url(#linear-gradient-25)"/>
            </g>
          </g>
          <g id="组_213" data-name="组 213" transform="translate(22.091 5.77)">
            <g id="组_212" data-name="组 212">
              <path id="路径_154" data-name="路径 154" d="M493.594,239.62a9.866,9.866,0,0,1,1.961.549,4.655,4.655,0,0,1,.951.5,1.848,1.848,0,0,1,.515.506c.215.391-.1,1.205-.829.418-.08-.086-.208.043-.128.128.281.3.635.533,1,.217a.61.61,0,0,0,.115-.854c-.669-1.068-2.4-1.433-3.535-1.64-.114-.021-.163.154-.048.175Z" transform="translate(-493.529 -239.443)" fill="url(#linear-gradient-26)"/>
            </g>
          </g>
          <g id="组_215" data-name="组 215" transform="translate(18.499 4.629)">
            <g id="组_214" data-name="组 214">
              <path id="路径_155" data-name="路径 155" d="M477.7,235.123a5.538,5.538,0,0,0,1.885.5c.714.092,2.269.438,2.888-.094.8-.684-.874-1.7-1.348-.717-.051.1.106.2.156.091l1.129-.038-.835.688a2.339,2.339,0,0,1-.675-.01,10.731,10.731,0,0,1-1.764-.172,4.86,4.86,0,0,1-1.344-.4c-.1-.056-.194.1-.091.157Z" transform="translate(-477.656 -234.403)" fill="url(#linear-gradient-27)"/>
            </g>
          </g>
          <g id="组_217" data-name="组 217" transform="translate(16.038 1.831)">
            <g id="组_216" data-name="组 216">
              <path id="路径_156" data-name="路径 156" d="M467,223.71a1.452,1.452,0,0,1,.229-1.3c.39-.384,1.166-.067.937.52-.042.109.133.156.175.048a.722.722,0,0,0-.908-.905c-.708.229-.7,1.09-.608,1.685.018.115.193.066.175-.048Z" transform="translate(-466.786 -222.039)" fill="url(#linear-gradient-28)"/>
            </g>
          </g>
          <g id="组_219" data-name="组 219" transform="translate(14.332 1.211)">
            <g id="组_218" data-name="组 218">
              <path id="路径_157" data-name="路径 157" d="M459.7,220.573a.7.7,0,0,1-.259-.667.511.511,0,0,1,.145-.341c.2-.173.36-.039.5.1.082.083.21-.045.128-.128a.574.574,0,0,0-.5-.232.542.542,0,0,0-.4.338.922.922,0,0,0,.29,1.084c.1.068.186-.089.092-.157Z" transform="translate(-459.245 -219.302)" fill="url(#linear-gradient-29)"/>
            </g>
          </g>
          <g id="组_221" data-name="组 221" transform="translate(12.909 0.618)">
            <g id="组_220" data-name="组 220">
              <path id="路径_158" data-name="路径 158" d="M452.961,216.769a2.65,2.65,0,0,0,.088.8.091.091,0,0,0,.175-.048,2.484,2.484,0,0,1-.081-.747c0-.117-.177-.117-.181,0Z" transform="translate(-452.959 -216.681)" fill="url(#linear-gradient-30)"/>
            </g>
          </g>
          <g id="组_223" data-name="组 223" transform="translate(16.546 3.266)">
            <g id="组_222" data-name="组 222">
              <path id="路径_159" data-name="路径 159" d="M469.142,229.112a8.534,8.534,0,0,1,3.47-.451c.495.081,1.451.368.536,1.237a1.837,1.837,0,0,1-1.053.276,5.614,5.614,0,0,1-1.472-.2.091.091,0,0,0-.048.175,3.886,3.886,0,0,0,2.392.043c.374-.159,1-.577.827-1.066-.485-1.4-3.8-.443-4.7-.189a.091.091,0,0,0,.048.175Z" transform="translate(-469.03 -228.381)" fill="url(#linear-gradient-31)"/>
            </g>
          </g>
          <g id="组_225" data-name="组 225" transform="translate(17.6 4.077)">
            <g id="组_224" data-name="组 224">
              <path id="路径_160" data-name="路径 160" d="M473.772,232.286q1.169-.051,2.336-.139c.116-.009.117-.19,0-.181q-1.167.088-2.336.14c-.116.005-.117.186,0,.181Z" transform="translate(-473.684 -231.965)" fill="url(#linear-gradient-32)"/>
            </g>
          </g>
          <g id="组_227" data-name="组 227" transform="translate(0.617 1.223)">
            <g id="组_226" data-name="组 226">
              <path id="路径_161" data-name="路径 161" d="M399.675,220.244c.085-.557-.138-.713.57-.718a3.953,3.953,0,0,1,1.088.2c.581.168,1.145.419,1.711.631a13.056,13.056,0,0,0,2.986.8c.116.014.115-.167,0-.181a28.886,28.886,0,0,1-4.648-1.424,2.431,2.431,0,0,0-2.453.263c-.924.929.723,1.776.922.474.017-.114-.157-.163-.175-.048Z" transform="translate(-398.649 -219.353)" fill="url(#linear-gradient-33)"/>
            </g>
          </g>
          <g id="组_229" data-name="组 229" transform="translate(8.789 1.017)">
            <g id="组_228" data-name="组 228">
              <path id="路径_162" data-name="路径 162" d="M434.794,218.615c1.5,1.027,3.047,1.988,4.552,3.009a35.805,35.805,0,0,1,5.879,4.435c.081.084.209-.044.128-.128a35.013,35.013,0,0,0-5.7-4.318c-1.575-1.072-3.195-2.078-4.766-3.154-.1-.066-.187.091-.091.156Z" transform="translate(-434.753 -218.443)" fill="url(#linear-gradient-34)"/>
            </g>
          </g>
          <g id="组_231" data-name="组 231" transform="translate(4.301)">
            <g id="组_230" data-name="组 230">
              <path id="路径_163" data-name="路径 163" d="M428.555,224.009a11.382,11.382,0,0,0-1.981-1.622q-2.272-1.742-4.629-3.369c-1.853-1.285-3.738-2.529-5.689-3.661-.154-.09-1.063-.757-1.229-.5a1.453,1.453,0,0,1,.347-.045c.606-.084,1.214-.156,1.82-.234a18.1,18.1,0,0,1,3.576-.459,7.449,7.449,0,0,1,2.022,1.113,65.966,65.966,0,0,1,9,6.09c.178.149,1.666,1.166,1.651,1.429-.016.279-1.009.379-1.289.443-1.226.28-2.457.54-3.689.794-.114.024-.066.2.048.175q1.05-.217,2.1-.442a9.841,9.841,0,0,0,2.8-.649c.28-.176.31-.145.135-.466s-.7-.615-.957-.838q-.993-.854-2.016-1.673a57.3,57.3,0,0,0-6.348-4.214q-1.379-.827-2.765-1.64a1.3,1.3,0,0,0-.819-.285,22.167,22.167,0,0,0-3.128.4l-2.5.321c-.081.01-.133.121-.046.169a82.771,82.771,0,0,1,8.572,5.523c1.158.831,2.306,1.678,3.429,2.555a8.713,8.713,0,0,1,1.455,1.215C428.5,224.228,428.628,224.1,428.555,224.009Z" transform="translate(-414.925 -213.95)" fill="url(#linear-gradient-35)"/>
            </g>
          </g>
          <g id="组_233" data-name="组 233" transform="translate(17.219 11.414)">
            <g id="组_232" data-name="组 232">
              <path id="路径_164" data-name="路径 164" d="M472.017,265.58a3.45,3.45,0,0,0,5.15.222c.36-.466.116-.7.65-.384a3.8,3.8,0,0,0,1.653.63c1.036.05,1-.819.746-1.6-.036-.11-.211-.063-.175.048a1.943,1.943,0,0,1,.16.8c-.251.891-1.143.513-1.606.315a5.9,5.9,0,0,1-1.1-.616.092.092,0,0,0-.133.054c-.795,1.919-4.063,2.185-5.194.436-.063-.1-.22-.007-.156.091Z" transform="translate(-472.002 -264.383)" fill="url(#linear-gradient-36)"/>
            </g>
          </g>
          <g id="组_235" data-name="组 235" transform="translate(26.221 9.452)">
            <g id="组_234" data-name="组 234">
              <path id="路径_165" data-name="路径 165" d="M511.863,258.2a2.547,2.547,0,0,0,1.45-.106c.8-.45-.477-1.466-.8-1.733l-.064.155a1.529,1.529,0,0,0,1.13-.669c.061-.1-.1-.191-.157-.091a1.335,1.335,0,0,1-.973.579c-.068.009-.132.1-.064.155.344.286,1.6,1.315.583,1.529a3.547,3.547,0,0,1-1.108,0c-.116-.013-.115.168,0,.181Z" transform="translate(-511.776 -255.713)" fill="url(#linear-gradient-37)"/>
            </g>
          </g>
        </g>
      </g>
    </g>
  </g>
</svg>
