<svg xmlns="http://www.w3.org/2000/svg" xmlns:xlink="http://www.w3.org/1999/xlink" width="65.986" height="51.024" viewBox="0 0 65.986 51.024">
  <defs>
    <linearGradient id="linear-gradient" x1="0.483" y1="0.916" x2="0.483" y2="-0.113" gradientUnits="objectBoundingBox">
      <stop offset="0.32" stop-color="#d99f61"/>
      <stop offset="0.717" stop-color="#ffd290"/>
      <stop offset="1" stop-color="#ffebce"/>
    </linearGradient>
    <linearGradient id="linear-gradient-2" x1="1.551" y1="0.068" x2="-0.214" y2="0.936" gradientUnits="objectBoundingBox">
      <stop offset="0" stop-color="#ffebce"/>
      <stop offset="0.481" stop-color="#ffd290"/>
      <stop offset="0.992" stop-color="#d98e3f"/>
    </linearGradient>
    <linearGradient id="linear-gradient-3" x1="-0.46" y1="-0.441" x2="0.752" y2="0.801" gradientUnits="objectBoundingBox">
      <stop offset="0" stop-color="#ffebce"/>
      <stop offset="0.456" stop-color="#ffd290"/>
      <stop offset="0.992" stop-color="#d98e3f"/>
    </linearGradient>
    <linearGradient id="linear-gradient-4" x1="-0.346" y1="-0.148" x2="0.99" y2="0.941" gradientUnits="objectBoundingBox">
      <stop offset="0" stop-color="#ffebce"/>
      <stop offset="0.286" stop-color="#ffd290"/>
      <stop offset="0.992" stop-color="#d98e3f"/>
    </linearGradient>
    <linearGradient id="linear-gradient-5" x1="-0.592" y1="-0.213" x2="0.864" y2="0.982" gradientUnits="objectBoundingBox">
      <stop offset="0" stop-color="#ffebce"/>
      <stop offset="0.508" stop-color="#ffd290"/>
      <stop offset="0.992" stop-color="#d98e3f"/>
    </linearGradient>
    <linearGradient id="linear-gradient-6" x1="-0.682" y1="0.177" x2="1.023" y2="0.945" gradientUnits="objectBoundingBox">
      <stop offset="0.012" stop-color="#ffebce"/>
      <stop offset="0.51" stop-color="#ffd290"/>
      <stop offset="0.992" stop-color="#d98e3f"/>
    </linearGradient>
    <linearGradient id="linear-gradient-7" x1="-1.583" y1="-0.515" x2="1.023" y2="0.664" gradientUnits="objectBoundingBox">
      <stop offset="0" stop-color="#ffebce"/>
      <stop offset="0.618" stop-color="#ffd290"/>
      <stop offset="0.992" stop-color="#d98e3f"/>
    </linearGradient>
    <radialGradient id="radial-gradient" cx="0.488" cy="0.457" fx="0.3645424544811249" fy="0.06832055002450943" r="1.47" gradientTransform="matrix(0.613, -0.123, 0.039, 0.518, 0.164, 0.277)" gradientUnits="objectBoundingBox">
      <stop offset="0.334" stop-color="#b78c61"/>
      <stop offset="0.729" stop-color="#ffd290" stop-opacity="0"/>
    </radialGradient>
    <linearGradient id="linear-gradient-8" x1="-0.003" y1="0.45" x2="0.987" y2="0.45" gradientUnits="objectBoundingBox">
      <stop offset="0" stop-color="#b16a38"/>
      <stop offset="1" stop-color="#d98e3f"/>
    </linearGradient>
    <radialGradient id="radial-gradient-2" cx="0.495" cy="0.499" fy="-0.42855194211006165" r="1.032" gradientTransform="matrix(0.581, -0.123, 0.041, 0.566, 0.188, 0.276)" gradientUnits="objectBoundingBox">
      <stop offset="0" stop-color="#ffebce"/>
      <stop offset="0.687" stop-color="#ffd290"/>
      <stop offset="0.829" stop-color="#f4bf79"/>
      <stop offset="1" stop-color="#f0b770"/>
    </radialGradient>
    <linearGradient id="linear-gradient-9" x1="0.429" y1="0.941" x2="0.429" y2="-1.689" gradientUnits="objectBoundingBox">
      <stop offset="0" stop-color="#c7793f"/>
      <stop offset="1" stop-color="#c7793f"/>
    </linearGradient>
    <linearGradient id="linear-gradient-10" x1="0.467" y1="1.36" x2="0.467" y2="-2.173" xlink:href="#linear-gradient-9"/>
    <linearGradient id="linear-gradient-11" x1="0.432" y1="1.152" x2="0.432" y2="-2.294" xlink:href="#linear-gradient-9"/>
    <linearGradient id="linear-gradient-12" x1="0.304" y1="0.925" x2="0.304" y2="-1.869" xlink:href="#linear-gradient-9"/>
    <linearGradient id="linear-gradient-13" x1="0.41" y1="1.127" x2="0.41" y2="-2.013" xlink:href="#linear-gradient-9"/>
    <linearGradient id="linear-gradient-14" x1="0.521" y1="1.706" x2="0.521" y2="-0.448" xlink:href="#linear-gradient-9"/>
    <linearGradient id="linear-gradient-15" x1="0.54" y1="1.717" x2="0.54" y2="-0.453" xlink:href="#linear-gradient-9"/>
    <linearGradient id="linear-gradient-16" x1="0.512" y1="1.332" x2="0.512" y2="-0.697" xlink:href="#linear-gradient-9"/>
    <linearGradient id="linear-gradient-17" x1="0.672" y1="5.233" x2="0.672" y2="-0.189" xlink:href="#linear-gradient-9"/>
    <linearGradient id="linear-gradient-18" x1="0.736" y1="4.732" x2="0.736" y2="-0.325" xlink:href="#linear-gradient-9"/>
    <linearGradient id="linear-gradient-19" x1="0.776" y1="4.489" x2="0.776" y2="0.007" xlink:href="#linear-gradient-9"/>
    <linearGradient id="linear-gradient-20" x1="0.76" y1="3.895" x2="0.76" y2="-0.069" xlink:href="#linear-gradient-9"/>
    <linearGradient id="linear-gradient-21" x1="0.601" y1="3.796" x2="0.601" y2="-0.661" xlink:href="#linear-gradient-9"/>
    <linearGradient id="linear-gradient-22" x1="0.515" y1="1.549" x2="0.515" y2="-0.32" xlink:href="#linear-gradient-9"/>
    <linearGradient id="linear-gradient-23" x1="0.434" y1="1.242" x2="0.434" y2="-1.717" gradientUnits="objectBoundingBox">
      <stop offset="0.131" stop-color="#e5a158"/>
      <stop offset="0.323" stop-color="#e9aa64"/>
      <stop offset="0.672" stop-color="#f5c485"/>
      <stop offset="0.68" stop-color="#f6c586"/>
      <stop offset="0.804" stop-color="#ffd696"/>
    </linearGradient>
    <linearGradient id="linear-gradient-24" x1="0.47" y1="1.765" x2="0.47" y2="-2.211" xlink:href="#linear-gradient-23"/>
    <linearGradient id="linear-gradient-25" x1="0.437" y1="1.547" x2="0.437" y2="-2.331" xlink:href="#linear-gradient-23"/>
    <linearGradient id="linear-gradient-26" x1="0.311" y1="1.245" x2="0.311" y2="-1.899" xlink:href="#linear-gradient-23"/>
    <linearGradient id="linear-gradient-27" x1="0.415" y1="1.486" x2="0.415" y2="-2.047" xlink:href="#linear-gradient-23"/>
    <linearGradient id="linear-gradient-28" x1="0.523" y1="1.952" x2="0.523" y2="-0.471" xlink:href="#linear-gradient-23"/>
    <linearGradient id="linear-gradient-29" x1="0.543" y1="1.965" x2="0.543" y2="-0.476" xlink:href="#linear-gradient-23"/>
    <linearGradient id="linear-gradient-30" x1="0.515" y1="1.564" x2="0.515" y2="-0.719" xlink:href="#linear-gradient-23"/>
    <linearGradient id="linear-gradient-31" x1="0.677" y1="5.854" x2="0.677" y2="-0.247" xlink:href="#linear-gradient-23"/>
    <linearGradient id="linear-gradient-32" x1="0.744" y1="5.311" x2="0.744" y2="-0.379" xlink:href="#linear-gradient-23"/>
    <linearGradient id="linear-gradient-33" x1="0.784" y1="5.002" x2="0.784" y2="-0.041" xlink:href="#linear-gradient-23"/>
    <linearGradient id="linear-gradient-34" x1="0.769" y1="4.349" x2="0.769" y2="-0.111" xlink:href="#linear-gradient-23"/>
    <linearGradient id="linear-gradient-35" x1="0.606" y1="4.306" x2="0.606" y2="-0.709" xlink:href="#linear-gradient-23"/>
    <linearGradient id="linear-gradient-36" x1="0.517" y1="1.763" x2="0.517" y2="-0.34" xlink:href="#linear-gradient-23"/>
    <radialGradient id="radial-gradient-3" cx="0.489" cy="0.52" fy="-0.04974319413304329" r="1.007" gradientTransform="matrix(0.582, -0.112, 0.037, 0.562, 0.186, 0.28)" gradientUnits="objectBoundingBox">
      <stop offset="0.667" stop-color="#ffd290" stop-opacity="0"/>
      <stop offset="0.806" stop-color="#d99f61" stop-opacity="0.302"/>
      <stop offset="1" stop-color="#edba79" stop-opacity="0"/>
    </radialGradient>
    <linearGradient id="linear-gradient-37" x1="0.014" y1="0.5" x2="0.992" y2="0.5" gradientUnits="objectBoundingBox">
      <stop offset="0" stop-color="#eabd54"/>
      <stop offset="0.155" stop-color="#f5d674"/>
      <stop offset="0.277" stop-color="#ffed91"/>
      <stop offset="0.478" stop-color="#ffed91"/>
      <stop offset="0.705" stop-color="#c27917"/>
      <stop offset="0.738" stop-color="#cb8c29"/>
      <stop offset="0.82" stop-color="#e1b753"/>
      <stop offset="0.894" stop-color="#f1d671"/>
      <stop offset="0.956" stop-color="#fbe983"/>
      <stop offset="1" stop-color="#fff08a"/>
    </linearGradient>
    <linearGradient id="linear-gradient-38" x1="0.018" y1="0.5" x2="0.986" y2="0.5" xlink:href="#linear-gradient-37"/>
    <linearGradient id="linear-gradient-39" x1="0.004" y1="0.5" x2="0.992" y2="0.5" xlink:href="#linear-gradient-37"/>
    <linearGradient id="linear-gradient-40" x1="0.016" y1="0.5" x2="0.988" y2="0.5" xlink:href="#linear-gradient-37"/>
    <linearGradient id="linear-gradient-41" x1="0.02" y1="0.5" x2="0.974" y2="0.5" xlink:href="#linear-gradient-37"/>
    <linearGradient id="linear-gradient-42" x1="0.011" y1="0.5" x2="0.99" y2="0.5" xlink:href="#linear-gradient-37"/>
    <linearGradient id="linear-gradient-43" x1="0.022" y1="0.5" x2="0.978" y2="0.5" xlink:href="#linear-gradient-37"/>
    <linearGradient id="linear-gradient-44" x1="0.038" y1="0.5" x2="0.953" y2="0.5" xlink:href="#linear-gradient-37"/>
    <linearGradient id="linear-gradient-45" x1="0.011" y1="0.5" x2="0.996" y2="0.5" xlink:href="#linear-gradient-37"/>
    <linearGradient id="linear-gradient-46" x1="0.028" y1="0.5" x2="0.977" y2="0.5" xlink:href="#linear-gradient-37"/>
    <linearGradient id="linear-gradient-47" x1="0.014" y1="0.5" x2="0.992" y2="0.5" xlink:href="#linear-gradient-37"/>
    <linearGradient id="linear-gradient-48" x1="0.024" y1="0.5" x2="0.974" y2="0.5" xlink:href="#linear-gradient-37"/>
    <linearGradient id="linear-gradient-49" x1="0.001" y1="0.5" x2="0.984" y2="0.5" xlink:href="#linear-gradient-37"/>
    <linearGradient id="linear-gradient-50" x1="0.023" y1="0.5" x2="0.981" y2="0.5" xlink:href="#linear-gradient-37"/>
    <linearGradient id="linear-gradient-51" x1="0.016" y1="0.5" x2="0.988" y2="0.5" xlink:href="#linear-gradient-37"/>
    <linearGradient id="linear-gradient-52" x1="0.005" y1="0.5" x2="0.996" y2="0.5" xlink:href="#linear-gradient-37"/>
    <linearGradient id="linear-gradient-53" x1="0.013" y1="0.5" x2="0.986" y2="0.5" xlink:href="#linear-gradient-37"/>
    <linearGradient id="linear-gradient-54" x1="0.013" y1="0.5" x2="0.994" y2="0.5" xlink:href="#linear-gradient-37"/>
    <linearGradient id="linear-gradient-55" x1="0.017" y1="0.5" x2="0.983" y2="0.5" xlink:href="#linear-gradient-37"/>
    <linearGradient id="linear-gradient-56" x1="0.019" y1="0.5" x2="0.98" y2="0.5" xlink:href="#linear-gradient-37"/>
    <linearGradient id="linear-gradient-57" x1="0.024" y1="0.5" x2="0.983" y2="0.5" xlink:href="#linear-gradient-37"/>
    <linearGradient id="linear-gradient-58" x1="0.032" y1="0.5" x2="0.97" y2="0.5" xlink:href="#linear-gradient-37"/>
    <linearGradient id="linear-gradient-59" x1="0.015" y1="0.5" x2="0.991" y2="0.5" xlink:href="#linear-gradient-37"/>
    <linearGradient id="linear-gradient-60" x1="0.04" y1="0.5" x2="0.954" y2="0.5" xlink:href="#linear-gradient-37"/>
    <linearGradient id="linear-gradient-61" x1="0.018" y1="0.5" x2="0.977" y2="0.5" xlink:href="#linear-gradient-37"/>
    <linearGradient id="linear-gradient-62" x1="0.013" y1="0.5" x2="0.977" y2="0.5" xlink:href="#linear-gradient-37"/>
    <linearGradient id="linear-gradient-63" x1="0.005" y1="0.5" x2="0.986" y2="0.5" xlink:href="#linear-gradient-37"/>
    <linearGradient id="linear-gradient-64" x1="0.009" y1="0.5" x2="0.985" y2="0.5" xlink:href="#linear-gradient-37"/>
    <linearGradient id="linear-gradient-65" x1="0.015" y1="0.5" x2="0.983" y2="0.5" xlink:href="#linear-gradient-37"/>
  </defs>
  <g id="moon-cookie" transform="translate(0 0)">
    <g id="组_63" data-name="组 63" transform="translate(0.064 10.322)">
      <path id="路径_35" data-name="路径 35" d="M425.337,335.123" transform="translate(-359.64 -317.503)" fill="#fff"/>
      <g id="组_61" data-name="组 61">
        <path id="路径_36" data-name="路径 36" d="M304.348,287.719a32.193,32.193,0,0,1,4.292,15.411,27.756,27.756,0,0,1-.258,5.017c-1.258,3.774-5.449,7.179-5.449,7.179-2.1,4.982-10.51,5.217-10.51,5.217-4.377,6.871-13.02,4.421-13.02,4.421-8.306,4.342-13.99-.182-13.99-.182-9.355,2.361-11.8-2.764-11.8-2.764-4.737-.118-7.022-2.349-7.923-3.945a7.409,7.409,0,0,1-.587-3.947,4.405,4.405,0,0,1-1.888-3.838c-.045-2.808-.494-10.078-.494-10.078.256,1.286,2.36,2.288,2.36,2.288a3.789,3.789,0,0,0,2.206,5.1,6.342,6.342,0,0,0,4.464.166s-.348,2.408,4.5,3.386,7.253-1.039,7.253-1.039,2.183,2.64,7.366,2.076c4.737-.516,6.74-2.169,6.74-2.169s2.8,1.393,7.337-.334,5.634-5.124,5.634-5.124,4.266.919,7.357-1.326,1.971-4.338,1.971-4.338,7.656-2.176,4.044-7.746a4.668,4.668,0,0,0-.618-5.007Z" transform="translate(-242.724 -286.145)" fill="url(#linear-gradient)"/>
      </g>
      <g id="组_62" data-name="组 62" transform="translate(57.19 5.007)">
        <path id="路径_37" data-name="路径 37" d="M410.159,317.058c-1.258,3.774-5.449,7.179-5.449,7.179l-3.018-16.428s7.656-2.175,4.044-7.746a30.5,30.5,0,0,1,3.2,7.642A38.927,38.927,0,0,1,410.159,317.058Z" transform="translate(-401.692 -300.063)" fill="url(#linear-gradient-2)"/>
      </g>
    </g>
    <g id="组_64" data-name="组 64" transform="translate(9.089 31.943)">
      <path id="路径_38" data-name="路径 38" d="M267.815,346.243s-.348,2.408,4.5,3.386,7.253-1.039,7.253-1.039l1.9,14.669c-9.355,2.361-11.8-2.764-11.8-2.764a63.982,63.982,0,0,1-1.336-6.649C267.991,351,267.815,346.243,267.815,346.243Z" transform="translate(-267.81 -346.243)" fill="url(#linear-gradient-3)"/>
    </g>
    <g id="组_65" data-name="组 65" transform="translate(20.85 34.196)">
      <path id="路径_39" data-name="路径 39" d="M316.393,367.451c-8.306,4.342-13.99-.182-13.99-.182L300.5,352.6s2.183,2.64,7.366,2.075c4.737-.516,6.74-2.169,6.74-2.169Z" transform="translate(-300.5 -352.507)" fill="url(#linear-gradient-4)"/>
    </g>
    <g id="组_66" data-name="组 66" transform="translate(34.955 28.738)">
      <path id="路径_40" data-name="路径 40" d="M341.5,357.737s8.643,2.45,13.02-4.421a39.608,39.608,0,0,0-.255-6.011,68.969,68.969,0,0,0-1.581-9.97s-1.085,3.393-5.634,5.124-7.337.334-7.337.334Z" transform="translate(-339.709 -337.335)" fill="url(#linear-gradient-5)"/>
    </g>
    <g id="组_67" data-name="组 67" transform="translate(47.927 23.075)">
      <path id="路径_41" data-name="路径 41" d="M377.6,343.238s8.412-.234,10.51-5.216c.18-2.225-2.118-14.536-3.018-16.428a2.842,2.842,0,0,1,.173,1.327,4.59,4.59,0,0,1-2.145,3.011c-3.091,2.245-7.357,1.326-7.357,1.326a65.59,65.59,0,0,1,1.581,9.97Z" transform="translate(-375.764 -321.593)" fill="url(#linear-gradient-6)"/>
    </g>
    <g id="组_68" data-name="组 68" transform="translate(2.121 29.095)">
      <path id="路径_42" data-name="路径 42" d="M248.766,347.533a7.409,7.409,0,0,0,.587,3.947c.9,1.6,3.186,3.827,7.923,3.945a37.414,37.414,0,0,1-1.336-6.649,65.382,65.382,0,0,1-.526-7.6,6.342,6.342,0,0,1-4.464-.166,3.628,3.628,0,0,1-2.418-2.568C248.231,337.126,248.766,347.533,248.766,347.533Z" transform="translate(-248.441 -338.326)" fill="url(#linear-gradient-7)"/>
    </g>
    <path id="路径_43" data-name="路径 43" d="M304.348,287.719a32.193,32.193,0,0,1,4.292,15.411,27.756,27.756,0,0,1-.258,5.017c-1.258,3.774-5.449,7.179-5.449,7.179-2.1,4.982-10.51,5.217-10.51,5.217-4.377,6.871-13.02,4.421-13.02,4.421-8.306,4.342-13.99-.182-13.99-.182-9.355,2.361-11.8-2.764-11.8-2.764-4.737-.118-7.022-2.349-7.923-3.945a7.409,7.409,0,0,1-.587-3.947,4.405,4.405,0,0,1-1.888-3.838c-.045-2.808-.494-10.078-.494-10.078.256,1.286,2.36,2.288,2.36,2.288a3.789,3.789,0,0,0,2.206,5.1,6.342,6.342,0,0,0,4.464.166s-.348,2.408,4.5,3.386,7.253-1.039,7.253-1.039,2.183,2.64,7.366,2.076c4.737-.516,6.74-2.169,6.74-2.169s2.8,1.393,7.337-.334,5.634-5.124,5.634-5.124,4.266.919,7.357-1.326,1.971-4.338,1.971-4.338,7.656-2.176,4.044-7.746a4.668,4.668,0,0,0-.618-5.007Z" transform="translate(-242.66 -275.823)" fill="url(#radial-gradient)" style="mix-blend-mode: multiply;isolation: isolate"/>
    <path id="路径_44" data-name="路径 44" d="M301.486,275.369a3.806,3.806,0,0,0-1.511-3.337c-1.866-1.414-4.91-.725-4.91-.725s-.452-2.293-4.039-3.26c-4.462-1.2-6.859.612-6.859.612-.262-.751-2.506-1.8-6.171-1.352a10.73,10.73,0,0,0-5.813,2.559,9.7,9.7,0,0,0-5.972-.2,7.355,7.355,0,0,0-5,3.572c-8.209.476-8.472,4.806-8.472,4.806s-1.788.4-3.788,2.994-.007,4.339-.007,4.339c-1.8,1.251-3.388-.266-3.167,1.526a5.307,5.307,0,0,0,1.45,3.272s-2.387,4.845,1.367,6.215a11.635,11.635,0,0,0,4.872.608s-.161,2.665,4.734,3.539,7.342-1.041,7.342-1.041,2.183,2.457,7.427,1.88c4.793-.528,6.834-2.1,6.834-2.1s2.818,1.281,7.42-.381,5.743-4.859,5.743-4.859a12.1,12.1,0,0,0,7.188-1.717c3.145-2.134,2.4-4.607,2.4-4.607s6.474-2.684,4.047-6.378c0,0-1.743-5.495-2.051-6.293C303.56,272.46,301.486,275.369,301.486,275.369Z" transform="translate(-244.602 -263.692)" stroke="#707070" stroke-linejoin="round" stroke-width="1.602" fill="url(#linear-gradient-8)"/>
    <g id="组_69" data-name="组 69">
      <path id="路径_45" data-name="路径 45" d="M298.721,266.373a4.3,4.3,0,0,0-1.527-3.571c-1.86-1.525-4.864-.82-4.864-.82s-.469-2.449-4.027-3.513c-4.426-1.325-6.779.586-6.779.586-.266-.8-2.5-1.948-6.118-1.5a10.106,10.106,0,0,0-5.726,2.672,9,9,0,0,0-5.91-.274,7.224,7.224,0,0,0-4.91,3.759c-8.116.429-8.335,5.042-8.335,5.042a8.122,8.122,0,0,0-4.76,3.239c-1.954,2.749-.441,4.617-.441,4.617-1.764,1.317-3.091,3.344-2.714,5.232.256,1.286,2.36,2.288,2.36,2.288a3.789,3.789,0,0,0,2.206,5.1,6.342,6.342,0,0,0,4.464.165s-.348,2.408,4.5,3.386,7.253-1.039,7.253-1.039,2.183,2.64,7.366,2.075c4.737-.516,6.74-2.169,6.74-2.169s2.8,1.393,7.337-.334,5.634-5.124,5.634-5.124,4.266.919,7.357-1.326,1.971-4.338,1.971-4.338,7.656-2.175,4.044-7.746a4.668,4.668,0,0,0-.618-5.007A4.234,4.234,0,0,0,298.721,266.373Z" transform="translate(-242.545 -257.453)" fill="url(#radial-gradient-2)"/>
    </g>
    <g id="组_79" data-name="组 79" transform="translate(4.962 1.384)">
      <g id="组_70" data-name="组 70" transform="translate(7.332 20.005)">
        <path id="路径_46" data-name="路径 46" d="M282.149,328.723a.535.535,0,0,1-.138,0,9,9,0,0,1-3.252-1.08,3.518,3.518,0,0,1-2.038-2.659A3.864,3.864,0,0,1,278,322.233a16.212,16.212,0,0,1,4.169-3.222c.316-.17.638-.331.961-.491a10.659,10.659,0,0,0,2.413-1.472.551.551,0,0,1,.734.822,11.677,11.677,0,0,1-2.656,1.637c-.312.154-.623.309-.928.474a15.12,15.12,0,0,0-3.886,3,2.911,2.911,0,0,0-.982,1.924c.059.85.953,1.478,1.48,1.775a7.9,7.9,0,0,0,2.851.947.551.551,0,0,1,0,1.093Z" transform="translate(-276.716 -316.908)" fill="url(#linear-gradient-9)"/>
      </g>
      <g id="组_71" data-name="组 71" transform="translate(1.074 19.16)">
        <path id="路径_47" data-name="路径 47" d="M262.128,323.328a3.063,3.063,0,0,1-1.437-.153,2.038,2.038,0,0,1-1.215-1.139,2.691,2.691,0,0,1,.637-2.725c1.594-1.892,4.226-2.233,6.785-2.422,2.2-.163,4.662-.472,5.959-2.12a.551.551,0,0,1,.866.681c-1.574,2-4.307,2.36-6.744,2.538-2.421.177-4.7.467-6.023,2.033a1.7,1.7,0,0,0-.46,1.6.951.951,0,0,0,.583.525,2.152,2.152,0,0,0,1.615-.116,2.041,2.041,0,0,0,1.216-2.157.551.551,0,0,1,1.055-.318,3.09,3.09,0,0,1-1.779,3.46A3.278,3.278,0,0,1,262.128,323.328Z" transform="translate(-259.323 -314.559)" fill="url(#linear-gradient-10)"/>
      </g>
      <path id="路径_48" data-name="路径 48" d="M305.982,319.382a.551.551,0,0,0-.46.629,5.548,5.548,0,0,1-1.775,5.1,6.365,6.365,0,0,1-4.346,1.73,7.214,7.214,0,0,1,.642-1.56,37.066,37.066,0,0,1,2.939-4.748c.089-.122.239-.327.358-.364a.551.551,0,1,0-.324-1.053,1.878,1.878,0,0,0-.924.768,38.153,38.153,0,0,0-3.026,4.891,7.666,7.666,0,0,0-.766,1.977c-.041-.007-.083-.009-.125-.017a2.617,2.617,0,0,1-1.473-.7c-.741-.816-.42-2.189.08-3.117a5.958,5.958,0,0,1,2.9-2.926.551.551,0,0,0-.463-1,7.035,7.035,0,0,0-3.407,3.4c-.67,1.244-1.053,3.138.075,4.38a3.648,3.648,0,0,0,2.073,1.044,7.264,7.264,0,0,0,2.314.081,7.469,7.469,0,0,0,4.236-1.99,6.679,6.679,0,0,0,2.1-6.061A.545.545,0,0,0,305.982,319.382Z" transform="translate(-281.199 -298.199)" fill="url(#linear-gradient-11)"/>
      <g id="组_72" data-name="组 72" transform="translate(23.325 20.835)">
        <path id="路径_49" data-name="路径 49" d="M322.27,330.293c-.172.021-.345.037-.519.045a.55.55,0,0,1-.578-.522.544.544,0,0,1,.522-.578,6.509,6.509,0,0,0,4.2-1.865,3.71,3.71,0,0,0,.9-1.3,4.171,4.171,0,0,0,.043-2.337,9.5,9.5,0,0,0-1.636-3.64.551.551,0,0,1,.887-.654,10.6,10.6,0,0,1,1.827,4.066,5.217,5.217,0,0,1-.089,2.953,4.774,4.774,0,0,1-1.153,1.7A7.627,7.627,0,0,1,322.27,330.293Z" transform="translate(-321.172 -319.215)" fill="url(#linear-gradient-12)"/>
      </g>
      <g id="组_73" data-name="组 73" transform="translate(30.334 19.97)">
        <path id="路径_50" data-name="路径 50" d="M345.954,326.677a3.606,3.606,0,0,1-2.56-.626,2.141,2.141,0,0,1-.935-1.44,1.5,1.5,0,0,1,.335-1.108,1.228,1.228,0,0,1,.861-.458.551.551,0,0,1,.078,1.1.277.277,0,0,0-.092.062.4.4,0,0,0-.087.28,1.129,1.129,0,0,0,.491.676,2.59,2.59,0,0,0,3.214-.251,2,2,0,0,0,.72-1.457,4.534,4.534,0,0,0-1.723-2.811,12.457,12.457,0,0,0-5.2-2.75.551.551,0,0,1,.291-1.063,13.582,13.582,0,0,1,5.667,3.017c1.375,1.317,2.049,2.493,2.063,3.593a3.087,3.087,0,0,1-1.04,2.247A3.55,3.55,0,0,1,345.954,326.677Z" transform="translate(-340.653 -316.809)" fill="url(#linear-gradient-13)"/>
      </g>
      <path id="路径_51" data-name="路径 51" d="M319.815,284.538a3.129,3.129,0,0,0-.472-1.914,4.81,4.81,0,0,0-5.161-2.129,2.419,2.419,0,0,0-.934-.773,4.382,4.382,0,0,0-2.14-.3,5.393,5.393,0,0,0-2.043.448,3.8,3.8,0,0,0-1.083.8,6.38,6.38,0,0,0-5.937,2.9,5.974,5.974,0,0,0-3.891,1.631,1.958,1.958,0,0,0-.6,1.311,1.665,1.665,0,0,0,.564,1.207,4.007,4.007,0,0,0-.04,3.057,3.334,3.334,0,0,0,2.2,1.422,5.934,5.934,0,0,0,2.329.306,2.962,2.962,0,0,0,.443-.089v0a2.008,2.008,0,0,0,1.707,1.373,3.425,3.425,0,0,0,.98.018,4.354,4.354,0,0,0,2.785-1.617,3.439,3.439,0,0,0,1.038.585,3.87,3.87,0,0,0,1.306.165,12.959,12.959,0,0,0,1.55-.083,6,6,0,0,0,2.418-.783,3.63,3.63,0,0,0,1.806-3.426c.142-.006.285-.009.423-.026a4.233,4.233,0,0,0,3.17-1.9,1.791,1.791,0,0,0,.294-.938A1.576,1.576,0,0,0,319.815,284.538Zm-1.1-.434-.05-.011a13.824,13.824,0,0,0-3.21-.222l2.639-1.107a3.18,3.18,0,0,1,.3.421A2.3,2.3,0,0,1,318.712,284.1Zm-7.838,1.793a5.831,5.831,0,0,1-3.051.9,2.881,2.881,0,0,1-1.038-.093.9.9,0,0,1-.567-.481.841.841,0,0,1,.026-.558.554.554,0,0,0,.265-.174A4.216,4.216,0,0,1,308,284.37a.547.547,0,0,0,.258-.108,4.189,4.189,0,0,1,1.563-.279,2.125,2.125,0,0,1,1.259.355.908.908,0,0,1,.384.887A1.332,1.332,0,0,1,310.874,285.9Zm-6.137-3.409q.263.531.547,1.053c-.6-.042-1.2-.061-1.793-.052A5.28,5.28,0,0,1,304.737,282.489Zm12.406-.523-3.248,1.363c.077-.119.155-.244.239-.383a2.668,2.668,0,0,0,.436-1.2,1.684,1.684,0,0,0-.005-.2A3.667,3.667,0,0,1,317.143,281.966Zm-7.6-1.106a4.4,4.4,0,0,1,1.627-.34,3.41,3.41,0,0,1,1.609.2,1.116,1.116,0,0,1,.691.959,1.7,1.7,0,0,1-.281.7,4.668,4.668,0,0,1-1.126,1.388,2.164,2.164,0,0,0-.322-.306,3.184,3.184,0,0,0-1.9-.578,5.347,5.347,0,0,0-2.158.418h0A4.138,4.138,0,0,1,309.544,280.859Zm-2.351.881a8.878,8.878,0,0,0-.688,1.562.526.526,0,0,0-.017.132c-.263-.464-.516-.935-.753-1.412A5.243,5.243,0,0,1,307.193,281.741Zm-8.23,4.2c.749-.809,1.955-1.232,3.795-1.33a19.659,19.659,0,0,1,2.777.05c-.026.038-.055.075-.08.114a2.168,2.168,0,0,0-.318,1.614,11.533,11.533,0,0,1-5.078.856,2.516,2.516,0,0,1-1.011-.214.677.677,0,0,1-.39-.522A.947.947,0,0,1,298.963,285.943Zm.135,2.275a4.721,4.721,0,0,0,.9.13,12.53,12.53,0,0,0,2.291-.073c.189-.023.375-.06.562-.092l-.988.5c-1.142.572-2.129,1.065-2.568,1.333a.54.54,0,0,0-.217.274c-.008-.013-.017-.024-.024-.037A2.965,2.965,0,0,1,299.1,288.218Zm1.483,2.917a6.753,6.753,0,0,1-.652-.221c.433-.255,1.4-.737,2.422-1.25.816-.408,1.642-.822,2.35-1.193a10.2,10.2,0,0,0-1.556,2.744.529.529,0,0,0-.126.032A3.585,3.585,0,0,1,300.581,291.134Zm4.355,1.565c-.344-.057-.747-.253-.818-.548a1.2,1.2,0,0,1,.056-.544,13.775,13.775,0,0,1,2.3-3.648l.13-.168a4.162,4.162,0,0,0,1.27.1q.367-.018.714-.06c.072-.009.138-.026.209-.036a6.593,6.593,0,0,1-.862,3.318A3.153,3.153,0,0,1,304.936,292.7Zm5.924-.864a2.908,2.908,0,0,1-.941-.1,1.84,1.84,0,0,1-.767-.463c0-.013-.015-.022-.02-.035a8.433,8.433,0,0,0,.775-3.685c.131-.04.261-.081.386-.128.765,1.451,1.6,2.877,2.5,4.251A9.929,9.929,0,0,1,310.86,291.835Zm3.4-.7a3.749,3.749,0,0,1-.374.2c-.937-1.415-1.809-2.893-2.6-4.4.071-.044.148-.081.216-.127.041-.028.073-.058.111-.087.316.176.622.363.924.55a8.176,8.176,0,0,0,2.968,1.316A2.458,2.458,0,0,1,314.257,291.13Zm5.03-4.977a3.548,3.548,0,0,1-3.449,1.372,6.819,6.819,0,0,1-2.726-1.194c-.242-.15-.492-.3-.742-.441a1.793,1.793,0,0,0,.155-.382c0-.011,0-.023.006-.034a12.62,12.62,0,0,1,5.908-.3,2.116,2.116,0,0,1,.732.255.518.518,0,0,1,.251.368A.765.765,0,0,1,319.287,286.153Z" transform="translate(-282.727 -272.891)" fill="url(#linear-gradient-14)"/>
      <path id="路径_52" data-name="路径 52" d="M271.426,280.613a5.032,5.032,0,0,0-2.8-1.072,6.476,6.476,0,0,0-2.814.159,3.282,3.282,0,0,0-2.182,2.071,3.419,3.419,0,0,0,.74,3.088,7.812,7.812,0,0,0,.859.879,14.831,14.831,0,0,0-4.285.12c-2.348.495-4.545,2.72-4.61,4.669-.027.815.29,2.284,2.72,2.968a7.789,7.789,0,0,0,3.067.23,6.9,6.9,0,0,0,4.471-2.269,2.064,2.064,0,0,0,.42-2.3c-.842-1.529-3.269-1.857-5.035-1.283-1.363.443-2.1,1.352-1.96,2.43a.551.551,0,0,0,.614.478h0a.55.55,0,0,0,.477-.616c-.093-.737.814-1.116,1.208-1.243,1.324-.431,3.2-.194,3.729.766.2.363-.156.877-.318,1.082a6.365,6.365,0,0,1-6.376,1.665c-1.3-.366-1.946-1-1.917-1.871.048-1.443,1.9-3.24,3.736-3.628,2.219-.467,6.446-.167,8.019,1.369a.551.551,0,0,0,.77-.789,5.831,5.831,0,0,0-2.267-1.266c-.005,0-.008-.009-.013-.012a12.277,12.277,0,0,1-2.452-2.067,2.4,2.4,0,0,1-.546-2.078,2.216,2.216,0,0,1,1.471-1.346,5.287,5.287,0,0,1,2.334-.113,4.044,4.044,0,0,1,2.2.8,1.417,1.417,0,0,1,.386,1.715,1.589,1.589,0,0,1-.734.523,3.34,3.34,0,0,1-1.526.236,2.02,2.02,0,0,1-1.182-.446.972.972,0,0,1-.327-.926.551.551,0,1,0-1.06-.3,2.052,2.052,0,0,0,.646,2.045,3.063,3.063,0,0,0,1.833.729,4.439,4.439,0,0,0,2.033-.314,2.648,2.648,0,0,0,1.226-.921A2.489,2.489,0,0,0,271.426,280.613Z" transform="translate(-256.337 -272.926)" fill="url(#linear-gradient-15)"/>
      <path id="路径_53" data-name="路径 53" d="M376.264,292.515a3.9,3.9,0,0,0-2.42-1.358,5.313,5.313,0,0,0-3.766.914,2.233,2.233,0,0,0-.777,1.255,2.059,2.059,0,0,0,.37,1.711,2.451,2.451,0,0,0,1.648.911,4.213,4.213,0,0,0,2.438-.414.548.548,0,1,0-.512-.969,3.141,3.141,0,0,1-1.763.3,1.4,1.4,0,0,1-.939-.491.955.955,0,0,1-.171-.815,1.144,1.144,0,0,1,.41-.647,4.2,4.2,0,0,1,2.893-.671,2.783,2.783,0,0,1,1.768,1,1.769,1.769,0,0,1,.595,1.3,2.216,2.216,0,0,1-1.29,1.506,6.783,6.783,0,0,1-3.3.682,17.849,17.849,0,0,1-3.616-.649.54.54,0,0,0-.156-.014,7.988,7.988,0,0,0-5.668.1.551.551,0,1,0,.4,1.026,7,7,0,0,1,7.152,1.207,4.27,4.27,0,0,1,1.716,3.984c-.308,1.308-1.558,2.281-3.616,2.812a3.254,3.254,0,0,1-3.978-2.044c-.381-.983-.348-2.275.624-2.79a3.112,3.112,0,0,1,3.554.456,1.216,1.216,0,0,1,.037,1.638.551.551,0,1,0,.912.618,2.316,2.316,0,0,0-.127-2.991,4.225,4.225,0,0,0-4.891-.695c-1.343.711-1.81,2.422-1.136,4.162a4.31,4.31,0,0,0,4.607,2.842,5.188,5.188,0,0,0,.674-.13c3.133-.808,4.129-2.418,4.413-3.626a5.263,5.263,0,0,0-1.892-4.9c.337.044.659.073.946.085a8.362,8.362,0,0,0,1.355-.058,7.234,7.234,0,0,0,2.509-.756,3.253,3.253,0,0,0,1.86-2.368A2.861,2.861,0,0,0,376.264,292.515Z" transform="translate(-323.768 -280.386)" fill="url(#linear-gradient-16)"/>
      <path id="路径_54" data-name="路径 54" d="M344.439,266.513a2.586,2.586,0,0,0-1.969-1.725,6.612,6.612,0,0,0-2.9-.292,4.539,4.539,0,0,0-2.691,1.336,7.341,7.341,0,0,0-1.465,3.062.551.551,0,0,0,1.057.309,6.41,6.41,0,0,1,1.211-2.616,3.439,3.439,0,0,1,2.041-1,4.651,4.651,0,0,1,.684-.036,13.878,13.878,0,0,0-1.729,2.98.551.551,0,0,0,1,.464,11.041,11.041,0,0,1,1.874-3.1.55.55,0,0,0,.113-.177c.156.037.312.074.471.124.408.128,1.109.418,1.226.923.107.461-.3.978-.551,1.246a5.359,5.359,0,0,1-1.507,1.122.551.551,0,0,0,.494.985,6.452,6.452,0,0,0,1.815-1.353A2.491,2.491,0,0,0,344.439,266.513Z" transform="translate(-306.954 -263.312)" fill="url(#linear-gradient-17)"/>
      <g id="组_74" data-name="组 74" transform="translate(15.96 2.048)">
        <path id="路径_55" data-name="路径 55" d="M306.548,273.109l-.019,0a5.7,5.7,0,0,1-5.454-2.464,2.392,2.392,0,0,1-.242-2.041,2.529,2.529,0,0,1,1.4-1.375,2.7,2.7,0,0,1,2-.086,1.421,1.421,0,0,1,.948,1.752,1.665,1.665,0,0,1-1.958.934.547.547,0,1,1,.3-1.052.618.618,0,0,0,.622-.244c.041-.116-.106-.29-.314-.372a1.636,1.636,0,0,0-1.168.072,1.479,1.479,0,0,0-.8.757,1.382,1.382,0,0,0,.174,1.122,4.659,4.659,0,0,0,4.4,1.906.547.547,0,0,1,.115,1.088Z" transform="translate(-300.701 -266.992)" fill="url(#linear-gradient-18)"/>
      </g>
      <g id="组_75" data-name="组 75" transform="translate(24.353)">
        <path id="路径_56" data-name="路径 56" d="M325.519,268.23a.547.547,0,0,1-.4-.112c-.951-.736-1.157-2.529-1.064-3.554a3.163,3.163,0,0,1,1.744-2.524,6.25,6.25,0,0,1,4.711-.472.551.551,0,1,1-.494.985,5.354,5.354,0,0,0-3.681.45,2.081,2.081,0,0,0-1.182,1.661,3.556,3.556,0,0,0,.641,2.584.55.55,0,0,1-.27.982Z" transform="translate(-324.03 -261.3)" fill="url(#linear-gradient-19)"/>
      </g>
      <g id="组_76" data-name="组 76" transform="translate(37.591 0.589)">
        <path id="路径_57" data-name="路径 57" d="M361.444,270.772a.551.551,0,0,1-.161-1.09,5.987,5.987,0,0,0,3.4-2.408,2.05,2.05,0,0,0,.148-1.844,2.175,2.175,0,0,0-1.163-.986,7.708,7.708,0,0,0-1.773-.411.551.551,0,0,1,.165-1.089,8.543,8.543,0,0,1,2.029.482,3.267,3.267,0,0,1,1.732,1.521,3.118,3.118,0,0,1-.174,2.862,5.8,5.8,0,0,1-1.873,1.918,5.943,5.943,0,0,1-2.3,1.042Z" transform="translate(-360.826 -262.937)" fill="url(#linear-gradient-20)"/>
      </g>
      <g id="组_77" data-name="组 77" transform="translate(39.512 4.659)">
        <path id="路径_58" data-name="路径 58" d="M370.032,281.115c-.083.01-.165.019-.249.028a11.042,11.042,0,0,1-3.158-.074.551.551,0,0,1,.185-1.086,9.834,9.834,0,0,0,2.864.064,6.911,6.911,0,0,0,3.012-.95,4.34,4.34,0,0,0,1.889-2.313,1.38,1.38,0,0,0-.224-1.055,1.418,1.418,0,0,0-1.311-.362c-.806.08-1.044.474-1.1.592a.314.314,0,0,0,0,.3c.048.064.17.082.33.068a.551.551,0,0,1,.149,1.092,1.424,1.424,0,0,1-1.358-.495,1.383,1.383,0,0,1-.126-1.4,2.3,2.3,0,0,1,1.995-1.248,2.262,2.262,0,0,1,2.7,2.848,5.44,5.44,0,0,1-2.357,2.914A7.894,7.894,0,0,1,370.032,281.115Z" transform="translate(-366.167 -274.25)" fill="url(#linear-gradient-21)"/>
      </g>
      <g id="组_78" data-name="组 78" transform="translate(12.704 5.362)">
        <path id="路径_59" data-name="路径 59" d="M305.4,292.674a34.315,34.315,0,0,1-5.041.125,19.529,19.529,0,0,1-2.577-.18,10.138,10.138,0,0,1-3.724-1.384,5.14,5.14,0,0,1-2.043-2.084,7.563,7.563,0,0,1-.361-2.818.473.473,0,0,1,.005-.055,6.866,6.866,0,0,1,.752-2.653,6.981,6.981,0,0,1,2.008-2.13,25.9,25.9,0,0,1,12.892-5.168,14.624,14.624,0,0,1,3.575-.02,20.331,20.331,0,0,1,4.321,1.24,7.568,7.568,0,0,1,1.693.794,7.531,7.531,0,0,1,2.708,3.9,5.953,5.953,0,0,1-1.257,4.435,11.2,11.2,0,0,1-3.787,3.341,21.532,21.532,0,0,1-4.652,1.66,33.293,33.293,0,0,1-4.4.981Zm-12.647-6.268a6.468,6.468,0,0,0,.254,2.268,4.1,4.1,0,0,0,1.63,1.625,9.031,9.031,0,0,0,3.317,1.233,18.731,18.731,0,0,0,2.432.167,34.8,34.8,0,0,0,4.98-.13,32.419,32.419,0,0,0,4.257-.952,20.678,20.678,0,0,0,4.418-1.566,10.087,10.087,0,0,0,3.412-3.011,4.9,4.9,0,0,0,1.072-3.588,5.072,5.072,0,0,0-1.313-2.328,5.16,5.16,0,0,0-.934-.873,6.738,6.738,0,0,0-1.454-.671,19.471,19.471,0,0,0-4.085-1.181,13.58,13.58,0,0,0-3.309.023,24.659,24.659,0,0,0-12.344,4.947,6.018,6.018,0,0,0-1.709,1.781A5.742,5.742,0,0,0,292.757,286.406Z" transform="translate(-291.649 -276.206)" fill="url(#linear-gradient-22)"/>
      </g>
    </g>
    <g id="组_89" data-name="组 89" transform="translate(4.371 1.029)">
      <g id="组_80" data-name="组 80" transform="translate(7.332 20.005)">
        <path id="路径_60" data-name="路径 60" d="M280.507,327.735a.552.552,0,0,1-.138,0,9,9,0,0,1-3.252-1.081A3.518,3.518,0,0,1,275.079,324a3.864,3.864,0,0,1,1.275-2.751,16.221,16.221,0,0,1,4.17-3.222c.316-.17.638-.331.96-.491a10.662,10.662,0,0,0,2.413-1.472.551.551,0,1,1,.734.822,11.667,11.667,0,0,1-2.656,1.636c-.312.155-.623.309-.928.474a15.121,15.121,0,0,0-3.886,3,2.911,2.911,0,0,0-.982,1.924c.059.851.953,1.478,1.48,1.776a7.9,7.9,0,0,0,2.851.947.551.551,0,0,1,0,1.093Z" transform="translate(-275.073 -315.92)" fill="url(#linear-gradient-23)"/>
      </g>
      <g id="组_81" data-name="组 81" transform="translate(1.074 19.16)">
        <path id="路径_61" data-name="路径 61" d="M260.485,322.34a3.064,3.064,0,0,1-1.438-.153,2.039,2.039,0,0,1-1.215-1.138,2.691,2.691,0,0,1,.638-2.726c1.594-1.892,4.226-2.233,6.785-2.422,2.2-.163,4.662-.471,5.958-2.12a.551.551,0,0,1,.866.681c-1.574,2-4.307,2.36-6.744,2.538-2.421.177-4.7.467-6.023,2.033a1.7,1.7,0,0,0-.46,1.6.952.952,0,0,0,.583.526,2.154,2.154,0,0,0,1.615-.116,2.041,2.041,0,0,0,1.216-2.157.551.551,0,0,1,1.055-.318,3.09,3.09,0,0,1-1.779,3.46A3.278,3.278,0,0,1,260.485,322.34Z" transform="translate(-257.68 -313.572)" fill="url(#linear-gradient-24)"/>
      </g>
      <path id="路径_62" data-name="路径 62" d="M304.339,318.394a.55.55,0,0,0-.459.629,5.549,5.549,0,0,1-1.775,5.1,6.365,6.365,0,0,1-4.345,1.73,7.18,7.18,0,0,1,.642-1.56,37.019,37.019,0,0,1,2.939-4.748c.089-.122.239-.327.358-.364a.551.551,0,1,0-.323-1.053,1.879,1.879,0,0,0-.925.768,38.152,38.152,0,0,0-3.026,4.891,7.664,7.664,0,0,0-.766,1.977c-.041-.007-.083-.009-.124-.017a2.617,2.617,0,0,1-1.474-.7c-.741-.816-.42-2.189.08-3.117a5.954,5.954,0,0,1,2.9-2.926.551.551,0,0,0-.463-1,7.034,7.034,0,0,0-3.407,3.4c-.67,1.244-1.053,3.138.075,4.38a3.649,3.649,0,0,0,2.073,1.044,7.287,7.287,0,0,0,2.314.081,7.474,7.474,0,0,0,4.237-1.991,6.68,6.68,0,0,0,2.1-6.061A.545.545,0,0,0,304.339,318.394Z" transform="translate(-279.556 -297.211)" fill="url(#linear-gradient-25)"/>
      <g id="组_82" data-name="组 82" transform="translate(23.325 20.835)">
        <path id="路径_63" data-name="路径 63" d="M320.627,329.3c-.173.021-.346.037-.519.045a.551.551,0,0,1-.579-.521.544.544,0,0,1,.522-.578,6.509,6.509,0,0,0,4.2-1.865,3.7,3.7,0,0,0,.9-1.3,4.172,4.172,0,0,0,.043-2.337,9.5,9.5,0,0,0-1.636-3.641.551.551,0,0,1,.887-.654,10.605,10.605,0,0,1,1.827,4.066,5.219,5.219,0,0,1-.089,2.953,4.78,4.78,0,0,1-1.154,1.7A7.628,7.628,0,0,1,320.627,329.3Z" transform="translate(-319.529 -318.227)" fill="url(#linear-gradient-26)"/>
      </g>
      <g id="组_83" data-name="组 83" transform="translate(30.334 19.97)">
        <path id="路径_64" data-name="路径 64" d="M344.311,325.689a3.6,3.6,0,0,1-2.56-.626,2.137,2.137,0,0,1-.935-1.44,1.5,1.5,0,0,1,.334-1.109,1.229,1.229,0,0,1,.861-.458.551.551,0,0,1,.078,1.1.273.273,0,0,0-.092.062.4.4,0,0,0-.087.28,1.13,1.13,0,0,0,.491.676,2.589,2.589,0,0,0,3.214-.251,2,2,0,0,0,.72-1.457,4.532,4.532,0,0,0-1.723-2.812,12.454,12.454,0,0,0-5.2-2.75.551.551,0,0,1,.291-1.062,13.585,13.585,0,0,1,5.668,3.017c1.374,1.318,2.049,2.493,2.062,3.593a3.086,3.086,0,0,1-1.04,2.247A3.544,3.544,0,0,1,344.311,325.689Z" transform="translate(-339.01 -315.822)" fill="url(#linear-gradient-27)"/>
      </g>
      <path id="路径_65" data-name="路径 65" d="M318.172,283.55a3.126,3.126,0,0,0-.472-1.914,4.809,4.809,0,0,0-5.161-2.13,2.422,2.422,0,0,0-.934-.773,4.38,4.38,0,0,0-2.14-.3,5.393,5.393,0,0,0-2.043.448,3.806,3.806,0,0,0-1.083.8,6.379,6.379,0,0,0-5.937,2.9,5.973,5.973,0,0,0-3.891,1.631,1.958,1.958,0,0,0-.6,1.311,1.666,1.666,0,0,0,.564,1.208,4.007,4.007,0,0,0-.04,3.057,3.335,3.335,0,0,0,2.2,1.422,5.927,5.927,0,0,0,2.329.306,3.025,3.025,0,0,0,.443-.089v0a2.009,2.009,0,0,0,1.707,1.372,3.41,3.41,0,0,0,.98.018,4.356,4.356,0,0,0,2.785-1.617,3.45,3.45,0,0,0,1.038.585,3.878,3.878,0,0,0,1.306.164,12.957,12.957,0,0,0,1.551-.083,6,6,0,0,0,2.418-.783,3.63,3.63,0,0,0,1.806-3.426c.142-.006.285-.009.423-.026a4.233,4.233,0,0,0,3.17-1.9,1.789,1.789,0,0,0,.294-.937A1.575,1.575,0,0,0,318.172,283.55Zm-1.1-.434-.05-.012a13.824,13.824,0,0,0-3.21-.222l2.638-1.107a3.217,3.217,0,0,1,.3.421A2.307,2.307,0,0,1,317.069,283.116Zm-7.838,1.793a5.829,5.829,0,0,1-3.051.9,2.889,2.889,0,0,1-1.038-.094.905.905,0,0,1-.567-.481.842.842,0,0,1,.026-.558.551.551,0,0,0,.265-.174,4.223,4.223,0,0,1,1.489-1.12.546.546,0,0,0,.258-.108,4.183,4.183,0,0,1,1.564-.279,2.122,2.122,0,0,1,1.259.355.907.907,0,0,1,.384.886A1.332,1.332,0,0,1,309.231,284.909Zm-6.138-3.408q.263.53.548,1.053-.9-.064-1.794-.052A5.27,5.27,0,0,1,303.094,281.5Zm12.406-.523-3.248,1.363c.077-.118.155-.244.24-.383a2.668,2.668,0,0,0,.436-1.2,1.751,1.751,0,0,0,0-.2A3.665,3.665,0,0,1,315.5,280.978Zm-7.6-1.106a4.393,4.393,0,0,1,1.627-.34,3.4,3.4,0,0,1,1.609.2,1.116,1.116,0,0,1,.691.958,1.7,1.7,0,0,1-.281.7,4.681,4.681,0,0,1-1.126,1.388,2.184,2.184,0,0,0-.322-.306,3.183,3.183,0,0,0-1.9-.578,5.34,5.34,0,0,0-2.158.419h0A4.137,4.137,0,0,1,307.9,279.872Zm-2.351.881a8.87,8.87,0,0,0-.687,1.562.531.531,0,0,0-.017.132q-.4-.7-.753-1.412A5.247,5.247,0,0,1,305.55,280.753Zm-8.23,4.2c.75-.809,1.956-1.232,3.795-1.33a19.776,19.776,0,0,1,2.777.05c-.027.038-.056.075-.08.115a2.168,2.168,0,0,0-.318,1.614,11.532,11.532,0,0,1-5.078.856,2.516,2.516,0,0,1-1.011-.214.677.677,0,0,1-.39-.523A.949.949,0,0,1,297.32,284.955Zm.135,2.275a4.7,4.7,0,0,0,.9.13,12.569,12.569,0,0,0,2.292-.072c.189-.023.375-.06.562-.092l-.988.5c-1.142.572-2.129,1.065-2.568,1.334a.538.538,0,0,0-.217.273c-.008-.013-.018-.024-.024-.037A2.965,2.965,0,0,1,297.455,287.23Zm1.483,2.917a6.724,6.724,0,0,1-.652-.221c.433-.255,1.4-.738,2.422-1.25.816-.408,1.642-.822,2.35-1.193a10.2,10.2,0,0,0-1.556,2.744.525.525,0,0,0-.126.032A3.582,3.582,0,0,1,298.939,290.147Zm4.354,1.564c-.344-.057-.746-.253-.818-.548a1.2,1.2,0,0,1,.056-.544,13.766,13.766,0,0,1,2.3-3.648l.131-.168a4.16,4.16,0,0,0,1.27.1q.367-.017.714-.06c.072-.009.138-.026.209-.036a6.6,6.6,0,0,1-.863,3.318A3.153,3.153,0,0,1,303.293,291.711Zm5.925-.864a2.9,2.9,0,0,1-.941-.1,1.846,1.846,0,0,1-.767-.463c0-.013-.015-.022-.02-.035a8.432,8.432,0,0,0,.775-3.685c.131-.041.262-.081.386-.128.764,1.451,1.6,2.877,2.5,4.251A9.9,9.9,0,0,1,309.218,290.847Zm3.4-.7a3.768,3.768,0,0,1-.374.2c-.937-1.415-1.809-2.893-2.6-4.4.071-.044.148-.081.216-.127.041-.028.072-.058.111-.087.315.176.622.363.923.55a8.177,8.177,0,0,0,2.969,1.316A2.459,2.459,0,0,1,312.615,290.142Zm5.029-4.977a3.547,3.547,0,0,1-3.448,1.372,6.82,6.82,0,0,1-2.726-1.194c-.242-.15-.492-.3-.742-.441a1.774,1.774,0,0,0,.155-.382c0-.011,0-.023.006-.034a12.625,12.625,0,0,1,5.908-.3,2.111,2.111,0,0,1,.732.255.518.518,0,0,1,.251.368A.764.764,0,0,1,317.644,285.165Z" transform="translate(-281.084 -271.903)" fill="url(#linear-gradient-28)"/>
      <path id="路径_66" data-name="路径 66" d="M269.783,279.625a5.032,5.032,0,0,0-2.8-1.072,6.477,6.477,0,0,0-2.814.159,3.283,3.283,0,0,0-2.182,2.071,3.419,3.419,0,0,0,.74,3.088,7.834,7.834,0,0,0,.859.88,14.823,14.823,0,0,0-4.285.119c-2.348.5-4.545,2.721-4.61,4.669-.027.815.29,2.284,2.72,2.968a7.786,7.786,0,0,0,3.067.23,6.9,6.9,0,0,0,4.471-2.27,2.064,2.064,0,0,0,.42-2.3c-.842-1.529-3.269-1.857-5.035-1.283-1.363.443-2.1,1.351-1.96,2.429a.551.551,0,0,0,.614.478h0a.551.551,0,0,0,.478-.616c-.093-.737.813-1.116,1.207-1.243,1.324-.431,3.2-.194,3.73.766.2.363-.156.877-.319,1.082a6.365,6.365,0,0,1-6.376,1.665c-1.3-.366-1.946-1-1.917-1.871.047-1.443,1.9-3.24,3.736-3.628,2.219-.467,6.446-.167,8.02,1.369a.551.551,0,0,0,.769-.789,5.821,5.821,0,0,0-2.266-1.266c-.005,0-.008-.009-.013-.012a12.275,12.275,0,0,1-2.452-2.067,2.4,2.4,0,0,1-.546-2.078,2.216,2.216,0,0,1,1.471-1.346,5.293,5.293,0,0,1,2.334-.113,4.042,4.042,0,0,1,2.2.8,1.417,1.417,0,0,1,.386,1.715,1.593,1.593,0,0,1-.734.523,3.339,3.339,0,0,1-1.526.236,2.025,2.025,0,0,1-1.182-.446.971.971,0,0,1-.327-.927.551.551,0,0,0-1.06-.3,2.051,2.051,0,0,0,.646,2.045,3.063,3.063,0,0,0,1.833.729,4.443,4.443,0,0,0,2.033-.314,2.65,2.65,0,0,0,1.226-.921A2.489,2.489,0,0,0,269.783,279.625Z" transform="translate(-254.694 -271.939)" fill="url(#linear-gradient-29)"/>
      <path id="路径_67" data-name="路径 67" d="M374.622,291.528a3.9,3.9,0,0,0-2.421-1.357,5.313,5.313,0,0,0-3.766.913,2.233,2.233,0,0,0-.777,1.256,2.059,2.059,0,0,0,.37,1.71,2.452,2.452,0,0,0,1.648.911,4.214,4.214,0,0,0,2.438-.414.548.548,0,1,0-.511-.969,3.143,3.143,0,0,1-1.763.3,1.4,1.4,0,0,1-.94-.491.954.954,0,0,1-.171-.814,1.147,1.147,0,0,1,.41-.648,4.2,4.2,0,0,1,2.893-.67,2.781,2.781,0,0,1,1.767,1,1.769,1.769,0,0,1,.595,1.3,2.215,2.215,0,0,1-1.29,1.506,6.787,6.787,0,0,1-3.3.683,17.874,17.874,0,0,1-3.617-.649.538.538,0,0,0-.156-.014,7.988,7.988,0,0,0-5.668.1.551.551,0,1,0,.4,1.026,7,7,0,0,1,7.152,1.207,4.27,4.27,0,0,1,1.716,3.984c-.307,1.308-1.557,2.28-3.616,2.811a3.254,3.254,0,0,1-3.978-2.044c-.381-.983-.348-2.275.624-2.79a3.112,3.112,0,0,1,3.555.456,1.216,1.216,0,0,1,.036,1.638.551.551,0,1,0,.912.618,2.316,2.316,0,0,0-.127-2.991,4.224,4.224,0,0,0-4.891-.694c-1.343.711-1.81,2.422-1.136,4.162a4.31,4.31,0,0,0,4.607,2.842,5.185,5.185,0,0,0,.675-.13c3.132-.808,4.129-2.418,4.413-3.626a5.264,5.264,0,0,0-1.892-4.9c.337.043.659.073.946.085a8.362,8.362,0,0,0,1.355-.058,7.234,7.234,0,0,0,2.51-.757,3.253,3.253,0,0,0,1.859-2.368A2.862,2.862,0,0,0,374.622,291.528Z" transform="translate(-322.125 -279.399)" fill="url(#linear-gradient-30)"/>
      <path id="路径_68" data-name="路径 68" d="M342.8,265.525a2.587,2.587,0,0,0-1.969-1.725,6.611,6.611,0,0,0-2.895-.292,4.538,4.538,0,0,0-2.692,1.336,7.34,7.34,0,0,0-1.465,3.061.551.551,0,0,0,1.057.309,6.414,6.414,0,0,1,1.211-2.616,3.437,3.437,0,0,1,2.041-1,4.65,4.65,0,0,1,.684-.036,13.862,13.862,0,0,0-1.729,2.98.551.551,0,0,0,1,.464,11.065,11.065,0,0,1,1.874-3.1.55.55,0,0,0,.113-.177c.156.037.312.074.471.124.408.128,1.109.418,1.226.923.107.461-.3.979-.551,1.246a5.359,5.359,0,0,1-1.507,1.122.551.551,0,0,0,.494.985,6.46,6.46,0,0,0,1.815-1.353A2.491,2.491,0,0,0,342.8,265.525Z" transform="translate(-305.311 -262.324)" fill="url(#linear-gradient-31)"/>
      <g id="组_84" data-name="组 84" transform="translate(15.961 2.048)">
        <path id="路径_69" data-name="路径 69" d="M304.906,272.121l-.02,0a5.7,5.7,0,0,1-5.454-2.464,2.392,2.392,0,0,1-.242-2.041,2.527,2.527,0,0,1,1.4-1.375,2.7,2.7,0,0,1,2-.086,1.421,1.421,0,0,1,.948,1.751,1.665,1.665,0,0,1-1.958.934.547.547,0,1,1,.3-1.052.618.618,0,0,0,.622-.243c.041-.117-.106-.291-.314-.372a1.636,1.636,0,0,0-1.167.072,1.48,1.48,0,0,0-.8.757,1.38,1.38,0,0,0,.175,1.122,4.657,4.657,0,0,0,4.4,1.906.547.547,0,0,1,.115,1.088Z" transform="translate(-299.059 -266.004)" fill="url(#linear-gradient-32)"/>
      </g>
      <g id="组_85" data-name="组 85" transform="translate(24.353)">
        <path id="路径_70" data-name="路径 70" d="M323.876,267.242a.547.547,0,0,1-.4-.112c-.95-.736-1.157-2.528-1.064-3.554a3.162,3.162,0,0,1,1.744-2.524,6.249,6.249,0,0,1,4.711-.473.551.551,0,1,1-.494.985,5.359,5.359,0,0,0-3.682.45,2.081,2.081,0,0,0-1.182,1.661,3.557,3.557,0,0,0,.641,2.584.55.55,0,0,1-.27.982Z" transform="translate(-322.387 -260.313)" fill="url(#linear-gradient-33)"/>
      </g>
      <g id="组_86" data-name="组 86" transform="translate(37.591 0.589)">
        <path id="路径_71" data-name="路径 71" d="M359.8,269.784a.551.551,0,0,1-.161-1.09,5.99,5.99,0,0,0,3.4-2.408,2.05,2.05,0,0,0,.148-1.844,2.179,2.179,0,0,0-1.163-.986,7.7,7.7,0,0,0-1.774-.411.551.551,0,0,1,.165-1.089,8.54,8.54,0,0,1,2.029.482,3.267,3.267,0,0,1,1.732,1.521,3.118,3.118,0,0,1-.174,2.861,5.805,5.805,0,0,1-1.873,1.918,5.947,5.947,0,0,1-2.3,1.042Z" transform="translate(-359.183 -261.949)" fill="url(#linear-gradient-34)"/>
      </g>
      <g id="组_87" data-name="组 87" transform="translate(39.512 4.659)">
        <path id="路径_72" data-name="路径 72" d="M368.389,280.128l-.249.028a11.042,11.042,0,0,1-3.158-.074.551.551,0,0,1,.185-1.086,9.83,9.83,0,0,0,2.864.064,6.9,6.9,0,0,0,3.012-.95,4.342,4.342,0,0,0,1.889-2.313,1.38,1.38,0,0,0-.224-1.055,1.417,1.417,0,0,0-1.311-.362c-.805.08-1.044.474-1.1.592a.314.314,0,0,0,0,.3c.048.064.17.082.33.068a.551.551,0,0,1,.149,1.092,1.424,1.424,0,0,1-1.358-.495,1.382,1.382,0,0,1-.126-1.4,2.3,2.3,0,0,1,2-1.248,2.262,2.262,0,0,1,2.7,2.848,5.443,5.443,0,0,1-2.357,2.914A7.9,7.9,0,0,1,368.389,280.128Z" transform="translate(-364.524 -273.262)" fill="url(#linear-gradient-35)"/>
      </g>
      <g id="组_88" data-name="组 88" transform="translate(12.704 5.362)">
        <path id="路径_73" data-name="路径 73" d="M303.761,291.686a34.28,34.28,0,0,1-5.041.125,19.476,19.476,0,0,1-2.577-.18,10.138,10.138,0,0,1-3.724-1.384,5.143,5.143,0,0,1-2.043-2.084,7.562,7.562,0,0,1-.361-2.818.479.479,0,0,1,.005-.055,6.864,6.864,0,0,1,.752-2.653,6.985,6.985,0,0,1,2.008-2.13,25.9,25.9,0,0,1,12.892-5.168,14.63,14.63,0,0,1,3.575-.02,20.333,20.333,0,0,1,4.321,1.24,7.575,7.575,0,0,1,1.693.794,7.534,7.534,0,0,1,2.708,3.9,5.953,5.953,0,0,1-1.257,4.435,11.2,11.2,0,0,1-3.787,3.341,21.542,21.542,0,0,1-4.652,1.66,33.41,33.41,0,0,1-4.4.981Zm-12.647-6.268a6.466,6.466,0,0,0,.255,2.268,4.1,4.1,0,0,0,1.63,1.625,9.037,9.037,0,0,0,3.317,1.232,18.608,18.608,0,0,0,2.432.167,34.8,34.8,0,0,0,4.98-.13,32.474,32.474,0,0,0,4.257-.952,20.66,20.66,0,0,0,4.418-1.566,10.084,10.084,0,0,0,3.412-3.01,4.9,4.9,0,0,0,1.072-3.588,5.067,5.067,0,0,0-1.313-2.328,5.165,5.165,0,0,0-.934-.873,6.722,6.722,0,0,0-1.454-.67,19.446,19.446,0,0,0-4.085-1.181,13.559,13.559,0,0,0-3.309.023,24.654,24.654,0,0,0-12.344,4.947,6.016,6.016,0,0,0-1.709,1.78A5.753,5.753,0,0,0,291.114,285.418Z" transform="translate(-290.007 -275.218)" fill="url(#linear-gradient-36)"/>
      </g>
    </g>
    <g id="组_90" data-name="组 90" transform="translate(0.015 0.004)" style="mix-blend-mode: multiply;isolation: isolate">
      <path id="路径_74" data-name="路径 74" d="M298.763,266.383a4.3,4.3,0,0,0-1.527-3.571c-1.86-1.525-4.864-.82-4.864-.82s-.469-2.449-4.027-3.513c-4.426-1.325-6.779.586-6.779.586-.266-.8-2.5-1.948-6.118-1.5a10.106,10.106,0,0,0-5.726,2.672,9,9,0,0,0-5.91-.274,7.224,7.224,0,0,0-4.911,3.759c-8.116.429-8.335,5.042-8.335,5.042a8.122,8.122,0,0,0-4.76,3.239c-1.954,2.749-.441,4.617-.441,4.617-1.764,1.317-3.091,3.344-2.714,5.232.256,1.286,2.361,2.288,2.361,2.288a3.789,3.789,0,0,0,2.206,5.1,6.341,6.341,0,0,0,4.463.165s-.348,2.408,4.5,3.386,7.253-1.039,7.253-1.039,2.183,2.64,7.365,2.075c4.737-.516,6.74-2.169,6.74-2.169s2.8,1.393,7.337-.334,5.634-5.124,5.634-5.124,4.265.919,7.356-1.326,1.971-4.338,1.971-4.338,7.656-2.175,4.044-7.746a4.667,4.667,0,0,0-.618-5.007A4.234,4.234,0,0,0,298.763,266.383Z" transform="translate(-242.587 -257.463)" fill="url(#radial-gradient-3)"/>
    </g>
    <g id="组_149" data-name="组 149" transform="translate(5.059 1.448)">
      <g id="组_92" data-name="组 92" transform="translate(43.621 10.772)">
        <g id="组_91" data-name="组 91">
          <path id="路径_75" data-name="路径 75" d="M383.468,294.759c-1.267.68-4.1.164-3.416-1.733.621-1.726,3.766-1.535,5.078-.85a2.2,2.2,0,0,1,1.027,3.1,4.5,4.5,0,0,1-2.938,1.566,9.021,9.021,0,0,1-5.141-.434c-.168-.072-.315.176-.145.249,2.24.959,5.661,1.023,7.706-.467,2.14-1.558.878-4.1-1.358-4.628-1.507-.359-4.541-.177-4.6,1.936-.056,1.938,2.617,2.213,3.935,1.505.163-.088.018-.337-.146-.249Z" transform="translate(-377.857 -291.421)" fill="url(#linear-gradient-37)"/>
        </g>
      </g>
      <g id="组_94" data-name="组 94" transform="translate(7.323 20.175)">
        <g id="组_93" data-name="组 93">
          <path id="路径_76" data-name="路径 76" d="M282.13,328.27a25.162,25.162,0,0,1-2.912-1.025c-1.693-.9-2.581-2.771-1.121-4.338a19.587,19.587,0,0,1,3.9-2.955,14.776,14.776,0,0,1,4.207-2.111c.18-.044.1-.321-.077-.278a16.96,16.96,0,0,0-5.165,2.723c-1.211.82-3.082,1.88-3.7,3.28-1.425,3.211,2.738,4.185,4.8,4.982.173.067.248-.212.077-.278Z" transform="translate(-276.963 -317.558)" fill="url(#linear-gradient-38)"/>
        </g>
      </g>
      <g id="组_96" data-name="组 96" transform="translate(1.325 19.35)">
        <g id="组_95" data-name="组 95">
          <path id="路径_77" data-name="路径 77" d="M264.611,319.962c.481,2.815-4.83,4.055-3.924.487a3.23,3.23,0,0,1,2.579-2.268c3.673-1,7.3-.165,10.541-2.64.145-.111,0-.362-.145-.249-3.193,2.441-6.835,1.685-10.472,2.611a3.454,3.454,0,0,0-2.787,2.5c-.994,4.133,5.025,2.633,4.486-.522-.031-.182-.309-.105-.278.077Z" transform="translate(-260.291 -315.264)" fill="url(#linear-gradient-39)"/>
        </g>
      </g>
      <g id="组_98" data-name="组 98" transform="translate(7.173 6.4)">
        <g id="组_97" data-name="组 97">
          <path id="路径_78" data-name="路径 78" d="M280.354,286.272c-1.516-.874-4.456-3.39-3.21-5.4.68-1.1,2.513-1.246,3.652-1.254a4.245,4.245,0,0,1,2.205.445c1.018.614,1.779,2.156.67,3.008a3.836,3.836,0,0,1-2.3.836,2.01,2.01,0,0,1-1.944-2.119c.025-.181-.253-.26-.278-.077-.316,2.3,2.323,2.829,3.941,2.036.627-.307,1.385-.737,1.476-1.5a2.855,2.855,0,0,0-1.66-2.551c-1.511-.7-4.469-.581-5.713.666-2.076,2.081,1.332,5.192,3.014,6.162a.144.144,0,0,0,.145-.249Z" transform="translate(-276.544 -279.267)" fill="url(#linear-gradient-40)"/>
        </g>
      </g>
      <g id="组_100" data-name="组 100" transform="translate(16.144 1.985)">
        <g id="组_99" data-name="组 99">
          <path id="路径_79" data-name="路径 79" d="M306.6,272.078a5.581,5.581,0,0,1-4.218-1.569,1.85,1.85,0,0,1-.273-2.385,2.4,2.4,0,0,1,1.539-.775,1.235,1.235,0,0,1,.567,0l.527.594-.5.706a2.676,2.676,0,0,1-.695.1c-.184.013-.185.3,0,.288.477-.032,1.155-.074,1.414-.558a1.068,1.068,0,0,0-.275-1.2c-.866-.75-2.656.158-3.054,1.046-.5,1.119.273,2.278,1.13,2.948a6.514,6.514,0,0,0,3.835,1.1c.185.009.185-.279,0-.288Z" transform="translate(-301.48 -266.995)" fill="url(#linear-gradient-41)"/>
        </g>
      </g>
      <g id="组_102" data-name="组 102" transform="translate(0 12.711)">
        <g id="组_101" data-name="组 101">
          <path id="路径_80" data-name="路径 80" d="M260.275,300.71a3.927,3.927,0,0,1,3.12-1.622c1.461-.126,4.206.94,2.646,2.732-1.545,1.775-6.281,2.77-8.121,1.124-2.13-1.905-.107-4.182,1.838-5.123a9.977,9.977,0,0,1,5.183-.659,13.9,13.9,0,0,1,4.5,1.433c.168.073.315-.175.145-.249a13.491,13.491,0,0,0-6.38-1.53c-2.381.068-7.943,1.9-6.307,5.311,1.317,2.745,5.233,1.975,7.451,1.049,1.727-.721,3.788-2.814,1.15-4.1-1.116-.546-5.732-.43-5.308,1.821a.145.145,0,0,0,.241.064l.041-.043c.128-.134-.075-.338-.2-.2Z" transform="translate(-256.607 -296.812)" fill="url(#linear-gradient-42)"/>
        </g>
      </g>
      <g id="组_104" data-name="组 104" transform="translate(24.297)">
        <g id="组_103" data-name="组 103">
          <path id="路径_81" data-name="路径 81" d="M325.1,267.292c-.6-1.217-1.113-3.158,0-4.213a5.563,5.563,0,0,1,4.834-1.194c.181.037.258-.241.077-.278a5.767,5.767,0,0,0-5.282,1.435c-1.047,1.143-.48,3.172.125,4.4.082.166.331.021.249-.145Z" transform="translate(-324.143 -261.479)" fill="url(#linear-gradient-43)"/>
        </g>
      </g>
      <g id="组_106" data-name="组 106" transform="translate(31.661 1.243)">
        <g id="组_105" data-name="组 105">
          <path id="路径_82" data-name="路径 82" d="M344.876,269.154a18.94,18.94,0,0,1,2.191-4.015c.113-.147-.137-.291-.249-.145a18.939,18.939,0,0,0-2.191,4.015c-.074.168.174.315.249.145Z" transform="translate(-344.613 -264.933)" fill="url(#linear-gradient-44)"/>
        </g>
      </g>
      <g id="组_108" data-name="组 108" transform="translate(28.412 1.117)">
        <g id="组_107" data-name="组 107">
          <path id="路径_83" data-name="路径 83" d="M335.863,268.716a5.032,5.032,0,0,1,1.529-2.931c1.058-.986,2.938-.992,4.309-.725.868.169,1.93.593,1.962,1.624.036,1.162-1.271,2.145-2.1,2.734-.15.107-.006.357.145.249,1.563-1.119,3.581-3.639.795-4.685a6.527,6.527,0,0,0-4.585.036,5.051,5.051,0,0,0-2.338,3.622c-.032.181.245.259.278.077Z" transform="translate(-335.583 -264.584)" fill="url(#linear-gradient-45)"/>
        </g>
      </g>
      <g id="组_110" data-name="组 110" transform="translate(37.68 0.577)">
        <g id="组_109" data-name="组 109">
          <path id="路径_84" data-name="路径 84" d="M362.158,263.371a3.767,3.767,0,0,1,3.114,1.765c1.166,2.251-2.331,3.993-3.854,4.759-.166.083-.02.332.145.249,1.591-.8,5.019-2.544,4.07-4.92a3.969,3.969,0,0,0-3.475-2.141c-.185-.01-.185.278,0,.288Z" transform="translate(-361.345 -263.082)" fill="url(#linear-gradient-46)"/>
        </g>
      </g>
      <path id="路径_85" data-name="路径 85" d="M373.036,276.939a1.047,1.047,0,0,1-1.074-.606c-.213-.5.2-1.691,2.478-1.417a1.337,1.337,0,0,1,1.285,1.3c.067.883-.156,4.485-8.191,4.56" transform="translate(-327.628 -270.056)" fill="none" stroke="#707070" stroke-linecap="round" stroke-linejoin="round" stroke-width="0.801"/>
      <g id="组_112" data-name="组 112" transform="translate(38.27 15.311)">
        <g id="组_111" data-name="组 111">
          <path id="路径_86" data-name="路径 86" d="M363.163,304.587c2.573-.564,5.23-.436,7.3,1.421s2.6,4.654.14,6.469c-1.327.979-3.069,1.715-4.677.927a4.127,4.127,0,0,1-2.32-3.572c.108-4.031,7.064-2.322,5.3.791a.144.144,0,0,0,.249.145c1.608-2.839-2.5-4.358-4.581-3.23-3.009,1.633-.3,6.064,2.28,6.447a5.98,5.98,0,0,0,5.123-2.375,3.632,3.632,0,0,0,.077-4.016c-1.78-3.323-5.553-4.034-8.968-3.286-.181.04-.1.318.077.278Z" transform="translate(-362.983 -304.038)" fill="url(#linear-gradient-47)"/>
        </g>
      </g>
      <g id="组_114" data-name="组 114" transform="translate(16.979 21.431)">
        <g id="组_113" data-name="组 113">
          <path id="路径_87" data-name="路径 87" d="M307.474,321.119c-.777,1.357-1.522,2.733-2.26,4.112a13.151,13.151,0,0,0-1.406,3.071c-.043.18.235.257.278.077a15.229,15.229,0,0,1,1.637-3.489c.652-1.217,1.313-2.428,2-3.626a.144.144,0,0,0-.249-.145Z" transform="translate(-303.804 -321.049)" fill="url(#linear-gradient-48)"/>
        </g>
      </g>
      <g id="组_116" data-name="组 116" transform="translate(14.018 20.561)">
        <g id="组_115" data-name="组 115">
          <path id="路径_88" data-name="路径 88" d="M299.247,318.647c-2.822,1.389-5.859,6.76-1.451,8.084a6.889,6.889,0,0,0,5.959-1.225c1.713-1.285,3.127-4.178,2.264-6.318-.068-.17-.347-.1-.278.076.825,2.046-.544,4.8-2.18,6.018a6.667,6.667,0,0,1-5.312,1.27c-4.526-1.037-1.649-6.28,1.143-7.655.167-.082.021-.331-.145-.249Z" transform="translate(-295.572 -318.631)" fill="url(#linear-gradient-49)"/>
        </g>
      </g>
      <g id="组_118" data-name="组 118" transform="translate(23.614 20.646)">
        <g id="组_117" data-name="组 117">
          <path id="路径_89" data-name="路径 89" d="M322.427,329.355a7.015,7.015,0,0,0,4.614-2.307c1.976-2.577.768-5.741-.835-8.117-.1-.153-.353-.009-.249.145,1.664,2.465,2.88,5.987.342,8.355a7.408,7.408,0,0,1-3.949,1.645c-.183.03-.105.308.077.278Z" transform="translate(-322.246 -318.866)" fill="url(#linear-gradient-50)"/>
        </g>
      </g>
      <g id="组_120" data-name="组 120" transform="translate(30.179 19.872)">
        <g id="组_119" data-name="组 119">
          <path id="路径_90" data-name="路径 90" d="M340.592,317a14.563,14.563,0,0,1,5.912,3.162,3.7,3.7,0,0,1,1.324,3.469c-.619,2.491-5.657,2.358-5.014-.195a.144.144,0,0,0-.278-.077c-.338,1.34,1.136,2.252,2.293,2.4a2.779,2.779,0,0,0,3.34-2.416c.506-3.733-4.758-5.685-7.5-6.623-.176-.06-.251.218-.077.278Z" transform="translate(-340.493 -316.715)" fill="url(#linear-gradient-51)"/>
        </g>
      </g>
      <g id="组_122" data-name="组 122" transform="translate(12.712 5.384)">
        <g id="组_121" data-name="组 121">
          <path id="路径_91" data-name="路径 91" d="M294.939,290.953a4.981,4.981,0,0,1-2.665-4.864,5.487,5.487,0,0,1,2.048-3.973,18.7,18.7,0,0,1,5.539-3.479,22.6,22.6,0,0,1,11.283-1.725c2.771.391,8.018,2.293,8.046,5.734.02,2.516-2.362,4.929-4.358,6.176a18.806,18.806,0,0,1-6.328,2.3c-4.228.839-9.436,1.23-13.6-.179-.176-.06-.251.218-.077.278,4.355,1.475,9.782,1.035,14.191.088a16.851,16.851,0,0,0,6.9-2.889c1.7-1.329,3.676-3.609,3.561-5.927-.164-3.314-4.785-5.177-7.533-5.737A21.8,21.8,0,0,0,299,278.7c-2.338,1.108-5.193,2.767-6.466,5.122-1.343,2.487-.354,6.186,2.254,7.376C294.961,291.278,295.108,291.03,294.939,290.953Z" transform="translate(-291.941 -276.443)" fill="url(#linear-gradient-52)"/>
        </g>
      </g>
      <g id="组_124" data-name="组 124" transform="translate(23.988 6.34)">
        <g id="组_123" data-name="组 123">
          <path id="路径_92" data-name="路径 92" d="M323.572,283.458a4.214,4.214,0,0,1,3.112-3.942,4.14,4.14,0,0,1,1.115-.126c1.028.017,1.079.155,1.694,1a1.161,1.161,0,0,1,.281,1.83l-.492.658a7.065,7.065,0,0,1-.935.852c-.145.115.06.318.2.2.941-.749,2.014-1.811,1.794-3.136a2.18,2.18,0,0,0-2.159-1.665,4.472,4.472,0,0,0-4.9,4.329.144.144,0,0,0,.288,0Z" transform="translate(-323.284 -279.101)" fill="url(#linear-gradient-53)"/>
        </g>
      </g>
      <g id="组_126" data-name="组 126" transform="translate(28.582 10.939)">
        <g id="组_125" data-name="组 125">
          <path id="路径_93" data-name="路径 93" d="M336.116,293.767c2.09,1.564,7.021,3.694,8.223-.1.87-2.747-6.54-1.537-7.68-1.367-.183.027-.105.3.077.278a22.542,22.542,0,0,1,5.13-.263c1,.081,2.668.108,2.123,1.448-1.357,3.339-5.785,1.213-7.728-.241-.149-.111-.292.139-.145.249Z" transform="translate(-336.055 -291.886)" fill="url(#linear-gradient-54)"/>
        </g>
      </g>
      <g id="组_128" data-name="组 128" transform="translate(15.707 13.638)">
        <g id="组_127" data-name="组 127">
          <path id="路径_94" data-name="路径 94" d="M300.484,303.3c2.3-1.238,4.607-2.483,6.947-3.647.166-.083.02-.331-.145-.249-2.34,1.165-4.645,2.409-6.947,3.647-.163.088-.018.337.145.249Z" transform="translate(-300.267 -299.388)" fill="url(#linear-gradient-55)"/>
        </g>
      </g>
      <g id="组_130" data-name="组 130" transform="translate(29.098 8.534)">
        <g id="组_129" data-name="组 129">
          <path id="路径_95" data-name="路径 95" d="M343.422,285.216c-1.905.912-3.879,1.709-5.837,2.5-.17.068-.1.347.077.278,1.981-.8,3.979-1.6,5.906-2.527.167-.08.021-.329-.145-.249Z" transform="translate(-337.489 -285.201)" fill="url(#linear-gradient-56)"/>
        </g>
      </g>
      <g id="组_132" data-name="组 132" transform="translate(30.837 7.463)">
        <g id="组_131" data-name="组 131">
          <path id="路径_96" data-name="路径 96" d="M342.46,282.581a7.226,7.226,0,0,1,2.775.136c1.654.483,2.272,1.883,2.246,3.519a.144.144,0,0,0,.288,0,3.551,3.551,0,0,0-1.94-3.611,6.641,6.641,0,0,0-3.368-.333c-.183.019-.185.308,0,.288Z" transform="translate(-342.322 -282.224)" fill="url(#linear-gradient-57)"/>
        </g>
      </g>
      <g id="组_134" data-name="组 134" transform="translate(27.312 13.327)">
        <g id="组_133" data-name="组 133">
          <path id="路径_97" data-name="路径 97" d="M332.546,298.737a44.9,44.9,0,0,0,3.029,5.113c.115.145.318-.06.2-.2a44.47,44.47,0,0,1-2.985-5.054.144.144,0,0,0-.249.145Z" transform="translate(-332.525 -298.522)" fill="url(#linear-gradient-58)"/>
        </g>
      </g>
      <g id="组_136" data-name="组 136" transform="translate(25.06 14.525)">
        <g id="组_135" data-name="组 135">
          <path id="路径_98" data-name="路径 98" d="M334.061,301.992c.324,4.2-4.651,4.93-7.579,3.38-.164-.087-.309.162-.145.249,3.136,1.661,8.353.785,8.012-3.628-.014-.184-.3-.185-.288,0Z" transform="translate(-326.265 -301.853)" fill="url(#linear-gradient-59)"/>
        </g>
      </g>
      <g id="组_138" data-name="组 138" transform="translate(21.678 8.185)">
        <g id="组_137" data-name="组 137">
          <path id="路径_99" data-name="路径 99" d="M316.876,284.451a6.249,6.249,0,0,0,2.126,2.6c.15.11.294-.14.145-.249a5.986,5.986,0,0,1-2.023-2.5c-.072-.17-.321-.023-.249.145Z" transform="translate(-316.863 -284.23)" fill="url(#linear-gradient-60)"/>
        </g>
      </g>
      <g id="组_140" data-name="组 140" transform="translate(19.377 7.645)">
        <g id="组_139" data-name="组 139">
          <path id="路径_100" data-name="路径 100" d="M310.738,285.611a5.218,5.218,0,0,1,5.4-2.529c.181.028.26-.249.077-.278a5.523,5.523,0,0,0-5.73,2.662.144.144,0,0,0,.249.145Z" transform="translate(-310.468 -282.729)" fill="url(#linear-gradient-61)"/>
        </g>
      </g>
      <g id="组_142" data-name="组 142" transform="translate(15.156 14.034)">
        <g id="组_141" data-name="组 141">
          <path id="路径_101" data-name="路径 101" d="M299.058,300.591c-.376,1.314-.658,2.751.543,3.707a4.908,4.908,0,0,0,4.4.52.144.144,0,0,0-.077-.278,4.694,4.694,0,0,1-4.034-.391c-1.213-.865-.916-2.228-.558-3.482a.144.144,0,0,0-.278-.077Z" transform="translate(-298.734 -300.489)" fill="url(#linear-gradient-62)"/>
        </g>
      </g>
      <g id="组_144" data-name="组 144" transform="translate(20.298 13.724)">
        <g id="组_143" data-name="组 143">
          <path id="路径_102" data-name="路径 102" d="M315.643,299.672a10.977,10.977,0,0,0-2.534,4.29c-.333,1.166.381,1.806,1.565,2.035,1.336.258,2.506-.828,3.255-1.808a6.633,6.633,0,0,0,1.325-4.378c-.008-.185-.3-.186-.288,0,.092,2.113-1.05,5.317-3.414,5.891a1.645,1.645,0,0,1-2.165-1.663,4.2,4.2,0,0,1,.543-1.364,11.638,11.638,0,0,1,1.918-2.8c.126-.136-.078-.341-.2-.2Z" transform="translate(-313.027 -299.627)" fill="url(#linear-gradient-63)"/>
        </g>
      </g>
      <g id="组_146" data-name="组 146" transform="translate(14.731 10.332)">
        <g id="组_145" data-name="组 145">
          <path id="路径_103" data-name="路径 103" d="M306.634,290.61c-1.79-.154-3.781-.658-5.565-.262-1.045.232-3.519,1.182-3.514,2.526,0,1.149,1.659,1.651,2.531,1.763a8.585,8.585,0,0,0,5.3-1.275.144.144,0,0,0-.145-.249,8.7,8.7,0,0,1-4.595,1.274l-1-.112a1.068,1.068,0,0,1-1.193-1.215q-.788-1.109.587-1.491a5.177,5.177,0,0,1,1.024-.546c2.058-.919,4.41-.31,6.572-.124.185.016.183-.272,0-.288Z" transform="translate(-297.554 -290.199)" fill="url(#linear-gradient-64)"/>
        </g>
      </g>
      <g id="组_148" data-name="组 148" transform="translate(22.419 9.917)">
        <g id="组_147" data-name="组 147">
          <path id="路径_104" data-name="路径 104" d="M320.611,289.737c-1.049.6-2.164,1.665-1.476,2.945.7,1.3,2.577.851,3.673.476,1.047-.359,4.011-1.553,2.8-3.169-1.111-1.478-3.63-.946-4.994-.252-.166.084-.02.333.145.249,1.232-.627,3.329-1.1,4.465.012,1.541,1.513-2.087,2.792-3.027,3.051-.878.241-2.284.482-2.81-.511-.589-1.112.475-2.04,1.372-2.551A.144.144,0,0,0,320.611,289.737Z" transform="translate(-318.923 -289.045)" fill="url(#linear-gradient-65)"/>
        </g>
      </g>
    </g>
  </g>
</svg>
