<svg xmlns="http://www.w3.org/2000/svg" xmlns:xlink="http://www.w3.org/1999/xlink" width="33.59" height="24.446" viewBox="0 0 33.59 24.446">
  <defs>
    <radialGradient id="radial-gradient" cx="0.831" cy="0.53" r="0.238" gradientTransform="matrix(1.172, -0.306, 0.946, 2.388, -0.644, -0.481)" gradientUnits="objectBoundingBox">
      <stop offset="0" stop-color="#ecdfcf"/>
      <stop offset="0.888" stop-color="#fff"/>
    </radialGradient>
    <linearGradient id="linear-gradient" x1="0.236" y1="0.5" x2="0.821" y2="0.5" gradientUnits="objectBoundingBox">
      <stop offset="0" stop-color="#fff08a"/>
      <stop offset="1" stop-color="#eabd54"/>
    </linearGradient>
    <linearGradient id="linear-gradient-2" x1="0.133" y1="0.5" x2="0.855" y2="0.5" xlink:href="#linear-gradient"/>
    <linearGradient id="linear-gradient-3" x1="0.176" y1="0.5" x2="0.847" y2="0.5" xlink:href="#linear-gradient"/>
    <linearGradient id="linear-gradient-4" x1="0.314" y1="0.5" x2="0.735" y2="0.5" xlink:href="#linear-gradient"/>
    <linearGradient id="linear-gradient-5" x1="0.035" y1="0.5" x2="0.976" y2="0.5" gradientUnits="objectBoundingBox">
      <stop offset="0" stop-color="#eabd54"/>
      <stop offset="0.155" stop-color="#f5d674"/>
      <stop offset="0.277" stop-color="#ffed91"/>
      <stop offset="0.478" stop-color="#ffed91"/>
      <stop offset="0.705" stop-color="#c27917"/>
      <stop offset="0.738" stop-color="#cb8c29"/>
      <stop offset="0.82" stop-color="#e1b753"/>
      <stop offset="0.894" stop-color="#f1d671"/>
      <stop offset="0.956" stop-color="#fbe983"/>
      <stop offset="1" stop-color="#fff08a"/>
    </linearGradient>
    <radialGradient id="radial-gradient-2" cx="0.827" cy="0.486" fx="0.9812034368515015" fy="0.6520429253578186" r="0.325" gradientTransform="matrix(0.774, -0.306, 0.37, 1.412, -0.008, 0.035)" gradientUnits="objectBoundingBox">
      <stop offset="0.094" stop-color="#b38164"/>
      <stop offset="0.211" stop-color="#caa67a"/>
      <stop offset="0.888" stop-color="#fff"/>
    </radialGradient>
    <linearGradient id="linear-gradient-6" x1="0.5" y1="1" x2="0.5" y2="0" xlink:href="#linear-gradient"/>
    <linearGradient id="linear-gradient-7" x1="0.319" y1="0.5" x2="0.591" y2="0.5" xlink:href="#linear-gradient"/>
    <linearGradient id="linear-gradient-8" x1="0.22" y1="0.5" x2="0.783" y2="0.5" xlink:href="#linear-gradient"/>
    <linearGradient id="linear-gradient-9" x1="0.181" y1="0.5" x2="0.847" y2="0.5" xlink:href="#linear-gradient"/>
    <linearGradient id="linear-gradient-10" x1="0.302" y1="0.5" x2="0.714" y2="0.5" xlink:href="#linear-gradient"/>
    <linearGradient id="linear-gradient-11" x1="0.215" y1="0.5" x2="0.789" y2="0.5" xlink:href="#linear-gradient"/>
    <linearGradient id="linear-gradient-12" x1="0.436" y1="0.5" x2="0.589" y2="0.5" xlink:href="#linear-gradient"/>
    <linearGradient id="linear-gradient-13" x1="0.5" y1="0.9" x2="0.5" y2="0.094" xlink:href="#linear-gradient"/>
    <linearGradient id="linear-gradient-14" x1="0.01" y1="0.5" x2="0.988" y2="0.5" xlink:href="#linear-gradient-5"/>
    <linearGradient id="linear-gradient-15" x1="0.02" y1="0.5" x2="0.948" y2="0.5" xlink:href="#linear-gradient"/>
    <linearGradient id="linear-gradient-16" x1="0.162" y1="0.5" x2="0.905" y2="0.5" xlink:href="#linear-gradient"/>
    <linearGradient id="linear-gradient-17" x1="0.162" y1="0.5" x2="0.905" y2="0.5" xlink:href="#linear-gradient"/>
    <linearGradient id="linear-gradient-18" x1="0.173" y1="0.5" x2="0.824" y2="0.5" xlink:href="#linear-gradient"/>
    <linearGradient id="linear-gradient-23" x1="0.142" y1="0.5" x2="0.858" y2="0.5" xlink:href="#linear-gradient"/>
    <linearGradient id="linear-gradient-24" x1="0.091" y1="0.5" x2="0.892" y2="0.5" xlink:href="#linear-gradient"/>
    <linearGradient id="linear-gradient-25" x1="0.201" y1="0.5" x2="0.852" y2="0.5" xlink:href="#linear-gradient"/>
    <linearGradient id="linear-gradient-26" x1="0.253" y1="0.5" x2="0.81" y2="0.5" xlink:href="#linear-gradient"/>
    <linearGradient id="linear-gradient-27" x1="0.154" y1="0.5" x2="0.835" y2="0.5" xlink:href="#linear-gradient"/>
    <linearGradient id="linear-gradient-28" x1="0.119" y1="0.5" x2="0.865" y2="0.5" xlink:href="#linear-gradient"/>
    <linearGradient id="linear-gradient-29" x1="0.16" y1="0.5" x2="0.798" y2="0.5" xlink:href="#linear-gradient"/>
    <linearGradient id="linear-gradient-30" x1="0.248" y1="0.5" x2="0.755" y2="0.5" xlink:href="#linear-gradient"/>
    <linearGradient id="linear-gradient-31" x1="0.248" y1="0.5" x2="0.69" y2="0.5" xlink:href="#linear-gradient"/>
    <linearGradient id="linear-gradient-32" x1="0.335" y1="0.5" x2="0.672" y2="0.5" xlink:href="#linear-gradient"/>
  </defs>
  <g id="rabit-body" transform="translate(0 0)">
    <path id="路径_1" data-name="路径 1" d="M254.372,249.992c-1.557.12-4.211.859-3.474,4.073.659,2.875,3.773,3.713,5.391,1.917C256.971,255.223,254.372,249.992,254.372,249.992Z" transform="translate(-250.772 -236.863)" fill="url(#radial-gradient)"/>
    <g id="组_2" data-name="组 2" transform="translate(1.44 16.192)">
      <g id="组_1" data-name="组 1">
        <path id="路径_2" data-name="路径 2" d="M254.775,258.6c.019.16.051.412.219.482a.077.077,0,0,0,.114-.065c.005-.151-.11-.293-.141-.443-.022-.105-.2-.084-.191.026Z" transform="translate(-254.774 -258.508)" fill="url(#linear-gradient)"/>
      </g>
    </g>
    <g id="组_4" data-name="组 4" transform="translate(1.755 17.285)">
      <g id="组_3" data-name="组 3">
        <path id="路径_3" data-name="路径 3" d="M255.665,261.725a1.4,1.4,0,0,0,.573.632c.119.055.248-.086.146-.189a2.845,2.845,0,0,1-.511-.564.121.121,0,0,0-.208.122Z" transform="translate(-255.649 -261.544)" fill="url(#linear-gradient-2)"/>
      </g>
    </g>
    <g id="组_6" data-name="组 6" transform="translate(2.915 18.32)">
      <g id="组_5" data-name="组 5">
        <path id="路径_4" data-name="路径 4" d="M259.03,264.745a1.527,1.527,0,0,0,.618.017.139.139,0,0,0,.032-.25,1.59,1.59,0,0,0-.65-.091c-.21-.014-.2.3,0,.324Z" transform="translate(-258.875 -264.421)" fill="url(#linear-gradient-3)"/>
      </g>
    </g>
    <g id="组_8" data-name="组 8" transform="translate(4.181 18.324)">
      <g id="组_7" data-name="组 7">
        <path id="路径_5" data-name="路径 5" d="M262.621,264.947a.443.443,0,0,0,.316-.3.166.166,0,0,0-.241-.185,1.079,1.079,0,0,1-.176.124c-.225.087-.127.453.1.364Z" transform="translate(-262.393 -264.434)" fill="url(#linear-gradient-4)"/>
      </g>
    </g>
    <g id="组_10" data-name="组 10" transform="translate(0.582 13.686)">
      <g id="组_9" data-name="组 9">
        <path id="路径_6" data-name="路径 6" d="M257.165,256.137c-1.528,2.367-4.966-.249-4.354-2.517.33-1.225,1.885-1.518,2.956-1.639.278-.032.28-.473,0-.44-1.43.173-3.388.721-3.378,2.476a3.892,3.892,0,0,0,1.963,3.205,2.487,2.487,0,0,0,3.05-.948.137.137,0,0,0-.236-.138Z" transform="translate(-252.389 -251.54)" fill="url(#linear-gradient-5)"/>
      </g>
    </g>
    <path id="路径_7" data-name="路径 7" d="M261.184,221.712c-1.19,3.193-.68,10.128,3.189,13.608,1,.9,4.628,4.186,12.176,1.734,2.575-.836,2.387-1.06,2.387-1.06s8.583,1.885,9.768,1.422-1.706-2.9-4.126-2.81c0,0,5.076-3.8,5.93-6.023s-1.967-7.219-4.47-10C284.148,216.475,266.788,206.677,261.184,221.712Z" transform="translate(-257.075 -213.499)" fill="url(#radial-gradient-2)"/>
    <path id="路径_8" data-name="路径 8" d="M274.885,267.606a12.559,12.559,0,0,1-3.822-3.446c-.877-1.5,1.566-2.068,2.068-.877S274.885,267.606,274.885,267.606Z" transform="translate(-263.642 -244.961)" fill="url(#linear-gradient-6)"/>
    <g id="组_25" data-name="组 25" transform="translate(11.284 18.427)">
      <g id="组_12" data-name="组 12" transform="translate(1.92)">
        <g id="组_11" data-name="组 11">
          <path id="路径_9" data-name="路径 9" d="M287.484,264.973a1.316,1.316,0,0,1,.074.519,2.749,2.749,0,0,0-.076.505.234.234,0,0,0,.393.163c.318-.333.147-.977-.027-1.342-.1-.2-.439-.06-.366.154Z" transform="translate(-287.474 -264.721)" fill="url(#linear-gradient-7)"/>
        </g>
      </g>
      <g id="组_14" data-name="组 14" transform="translate(0.624 0.412)">
        <g id="组_13" data-name="组 13">
          <path id="路径_10" data-name="路径 10" d="M283.95,266.322a2.056,2.056,0,0,1,.325.337,2.823,2.823,0,0,0,.289.4.274.274,0,0,0,.454-.265,1.687,1.687,0,0,0-.749-.884c-.242-.171-.545.219-.319.413Z" transform="translate(-283.87 -265.866)" fill="url(#linear-gradient-8)"/>
        </g>
      </g>
      <g id="组_16" data-name="组 16" transform="translate(0 1.55)">
        <g id="组_15" data-name="组 15">
          <path id="路径_11" data-name="路径 11" d="M283.459,269.282a1.143,1.143,0,0,0-1.19-.141.266.266,0,0,0,.2.484.9.9,0,0,1,.737.083c.272.178.5-.24.249-.426Z" transform="translate(-282.137 -269.029)" fill="url(#linear-gradient-9)"/>
        </g>
      </g>
      <g id="组_18" data-name="组 18" transform="translate(0.68 2.418)">
        <g id="组_17" data-name="组 17">
          <path id="路径_12" data-name="路径 12" d="M284.441,271.529c-.126.142-.252.281-.365.433-.184.247.207.523.416.321.119-.115.225-.244.334-.369.228-.263-.151-.648-.385-.385Z" transform="translate(-284.028 -271.441)" fill="url(#linear-gradient-10)"/>
        </g>
      </g>
      <g id="组_20" data-name="组 20" transform="translate(2.277 1.766)">
        <g id="组_19" data-name="组 19">
          <path id="路径_13" data-name="路径 13" d="M289.408,269.726a.8.8,0,0,0-.87.067c-.181.141.016.477.228.391a.55.55,0,0,1,.462-.03c.243.1.419-.314.18-.428Z" transform="translate(-288.467 -269.629)" fill="url(#linear-gradient-11)"/>
        </g>
      </g>
      <g id="组_22" data-name="组 22" transform="translate(1.472 1.857)">
        <g id="组_21" data-name="组 21">
          <path id="路径_14" data-name="路径 14" d="M286.485,269.92l-.1.045c-.374.182-.018.794.325.557.029-.019.058-.04.086-.061a.314.314,0,0,0-.316-.541Z" transform="translate(-286.23 -269.884)" fill="url(#linear-gradient-12)"/>
        </g>
      </g>
      <g id="组_24" data-name="组 24" transform="translate(2.052 2.637)">
        <g id="组_23" data-name="组 23">
          <path id="路径_15" data-name="路径 15" d="M287.875,272.376a6.393,6.393,0,0,1,.841,1.694.232.232,0,0,0,.448-.124,4.944,4.944,0,0,0-.955-1.828c-.149-.187-.474.061-.334.258Z" transform="translate(-287.841 -272.052)" fill="url(#linear-gradient-13)"/>
        </g>
      </g>
    </g>
    <g id="组_27" data-name="组 27" transform="translate(4.388 0.836)">
      <g id="组_26" data-name="组 26">
        <path id="路径_16" data-name="路径 16" d="M269.111,237.833c-2.869-2.117-5.336-4.875-5.627-8.581-.253-3.214.659-7.332,2.9-9.735,5.255-5.631,13.457-2.814,19.147.458a.29.29,0,0,0,.293-.5c-6.009-3.4-15.178-6.269-20.265.291a14.5,14.5,0,0,0-2.5,9.958c.448,3.682,2.922,6.4,5.845,8.46.216.152.413-.2.205-.351Z" transform="translate(-262.968 -215.824)" fill="url(#linear-gradient-14)"/>
      </g>
    </g>
    <g id="组_29" data-name="组 29" transform="translate(12.244 13.444)">
      <g id="组_28" data-name="组 28">
        <path id="路径_17" data-name="路径 17" d="M284.911,251.116c2.6-.113,4.452,2.4,4.537,4.833a.273.273,0,0,0,.534.072c.326-1.257-.613-3.09-1.48-3.979a4.318,4.318,0,0,0-3.59-1.146c-.138.014-.144.226,0,.22Z" transform="translate(-284.806 -250.868)" fill="url(#linear-gradient-15)"/>
      </g>
    </g>
    <g id="组_31" data-name="组 31" transform="translate(19.568 2.751)">
      <g id="组_30" data-name="组 30">
        <path id="路径_18" data-name="路径 18" d="M305.3,221.572l.5.2a.63.63,0,0,0,.452.063.122.122,0,0,0,.072-.177.651.651,0,0,0-.379-.279l-.529-.22c-.252-.1-.364.307-.113.41Z" transform="translate(-305.164 -221.145)" fill="url(#linear-gradient-16)"/>
      </g>
    </g>
    <g id="组_33" data-name="组 33" transform="translate(18.057 1.667)">
      <g id="组_32" data-name="组 32">
        <path id="路径_19" data-name="路径 19" d="M301.1,218.561l.5.2a.632.632,0,0,0,.453.063.123.123,0,0,0,.072-.177.653.653,0,0,0-.379-.279l-.529-.22c-.251-.1-.363.307-.113.41Z" transform="translate(-300.963 -218.134)" fill="url(#linear-gradient-17)"/>
      </g>
    </g>
    <g id="组_35" data-name="组 35" transform="translate(21.709 3.116)">
      <g id="组_34" data-name="组 34">
        <path id="路径_20" data-name="路径 20" d="M311.206,222.486c.224.112.445.233.676.33.2.083.333-.246.146-.346-.207-.11-.428-.2-.642-.292s-.388.2-.18.308Z" transform="translate(-311.114 -222.161)" fill="url(#linear-gradient-18)"/>
      </g>
    </g>
    <g id="组_36" data-name="组 36" transform="translate(6.231 5.086)">
      <path id="路径_21" data-name="路径 21" d="M270.075,227.725c.609-.554.33,1.622.319,2.446a3.879,3.879,0,0,1-.714,2.322,1.082,1.082,0,0,1-.486.395.918.918,0,0,1-1.067-.713A5.475,5.475,0,0,1,270.075,227.725Z" transform="translate(-268.091 -227.636)" fill="url(#linear-gradient-6)"/>
    </g>
    <g id="组_37" data-name="组 37" transform="translate(8.754 2.763)">
      <path id="路径_22" data-name="路径 22" d="M278.826,221.257a1.327,1.327,0,0,1,.85.589,1.085,1.085,0,0,1-.472,1.191,3.841,3.841,0,0,1-4.093.073s-.121-.328.722-.921C277.542,220.986,278.5,221.143,278.826,221.257Z" transform="translate(-275.104 -221.18)" fill="url(#linear-gradient-6)"/>
    </g>
    <path id="路径_23" data-name="路径 23" d="M274.965,230.957c-.089,1.247-.785,1.816-.133,2.448,1.558,1.513,1.738-.431,1.469-1.869a13.725,13.725,0,0,0-1.38-3.472A21.675,21.675,0,0,1,274.965,230.957Z" transform="translate(-266 -222.823)" fill="url(#linear-gradient-6)"/>
    <path id="路径_24" data-name="路径 24" d="M277.426,228.187a4.227,4.227,0,0,0,3.294-.312c.713-.369,1.6,2.181-.356,2.27A3.446,3.446,0,0,1,277.426,228.187Z" transform="translate(-267.837 -222.68)" fill="url(#linear-gradient-6)"/>
    <g id="组_39" data-name="组 39" transform="translate(12.642 14.665)">
      <g id="组_38" data-name="组 38">
        <path id="路径_25" data-name="路径 25" d="M286.019,254.558c.238.058.476.121.716.168a.151.151,0,0,0,.08-.292c-.236-.065-.477-.114-.716-.168-.189-.043-.27.245-.081.292Z" transform="translate(-285.911 -254.262)" fill="url(#linear-gradient-23)"/>
      </g>
    </g>
    <g id="组_41" data-name="组 41" transform="translate(13.747 14.704)">
      <g id="组_40" data-name="组 40">
        <path id="路径_26" data-name="路径 26" d="M289.045,254.54a1.288,1.288,0,0,1,.648.342c.1.1.256-.056.155-.155a1.239,1.239,0,0,0-.78-.356c-.1-.009-.118.151-.023.17Z" transform="translate(-288.983 -254.37)" fill="url(#linear-gradient-24)"/>
      </g>
    </g>
    <g id="组_43" data-name="组 43" transform="translate(14.765 15.839)">
      <g id="组_42" data-name="组 42">
        <path id="路径_27" data-name="路径 27" d="M291.844,257.777c.1.145.2.294.289.448a2.761,2.761,0,0,0,.262.432c.1.12.259-.014.238-.138a2.5,2.5,0,0,0-.49-.916c-.127-.181-.428-.007-.3.175Z" transform="translate(-291.812 -257.526)" fill="url(#linear-gradient-25)"/>
      </g>
    </g>
    <g id="组_45" data-name="组 45" transform="translate(15.192 17.848)">
      <g id="组_44" data-name="组 44">
        <path id="路径_28" data-name="路径 28" d="M293.078,263.493c.18.151.393.418.64.423a.188.188,0,0,0,.179-.235c-.044-.219-.33-.378-.493-.515-.226-.19-.554.135-.326.326Z" transform="translate(-293.001 -263.109)" fill="url(#linear-gradient-26)"/>
      </g>
    </g>
    <g id="组_59" data-name="组 59" transform="translate(5.528 11.383)">
      <g id="组_54" data-name="组 54" transform="translate(0 0.359)">
        <g id="组_47" data-name="组 47" transform="translate(0.663 2.289)">
          <g id="组_46" data-name="组 46">
            <path id="路径_29" data-name="路径 29" d="M268,252.824a.909.909,0,0,0,.453.454.717.717,0,0,0,.657.023c.136-.09.145-.359-.051-.389a1.906,1.906,0,0,1-.4-.037.525.525,0,0,1-.286-.266c-.126-.249-.477-.031-.368.215Z" transform="translate(-267.981 -252.499)" fill="url(#linear-gradient-27)"/>
          </g>
        </g>
        <g id="组_49" data-name="组 49" transform="translate(0.963 1.336)">
          <g id="组_48" data-name="组 48">
            <path id="路径_30" data-name="路径 30" d="M268.936,250.5a1.016,1.016,0,0,0,1.2-.346c.091-.163-.1-.389-.271-.271a1.024,1.024,0,0,1-.843.288.171.171,0,0,0-.091.33Z" transform="translate(-268.816 -249.851)" fill="url(#linear-gradient-28)"/>
          </g>
        </g>
        <g id="组_51" data-name="组 51" transform="translate(0.779)">
          <g id="组_50" data-name="组 50">
            <path id="路径_31" data-name="路径 31" d="M268.586,247.4a1.716,1.716,0,0,0,.8-.957c.064-.253-.307-.429-.434-.183a2.075,2.075,0,0,1-.568.8c-.2.146-.022.471.2.337Z" transform="translate(-268.303 -246.137)" fill="url(#linear-gradient-29)"/>
          </g>
        </g>
        <g id="组_53" data-name="组 53" transform="translate(0 1.324)">
          <g id="组_52" data-name="组 52">
            <path id="路径_32" data-name="路径 32" d="M266.5,250.138c.075-.042-.062.183-.039.036-.037.238.308.347.37.1a.366.366,0,0,0-.616-.34c-.247.3.156.717.472.523a.186.186,0,0,0-.187-.321Z" transform="translate(-266.138 -249.819)" fill="url(#linear-gradient-30)"/>
          </g>
        </g>
      </g>
      <g id="组_56" data-name="组 56" transform="translate(0.026)">
        <g id="组_55" data-name="组 55">
          <path id="路径_33" data-name="路径 33" d="M266.593,246.456a2.031,2.031,0,0,0,.036-.71.873.873,0,0,0-.21-.575c-.062-.05-.187-.046-.2.054a1.563,1.563,0,0,0,.089.523,2.9,2.9,0,0,1,.035.675.129.129,0,0,0,.253.034Z" transform="translate(-266.211 -245.139)" fill="url(#linear-gradient-31)"/>
        </g>
      </g>
      <g id="组_58" data-name="组 58" transform="translate(0.078 2.484)">
        <g id="组_57" data-name="组 57">
          <path id="路径_34" data-name="路径 34" d="M266.48,252.182a3.236,3.236,0,0,1-.029.437c-.021.145-.072.283-.094.427-.027.168.213.311.3.127a1.837,1.837,0,0,0,.109-.991c-.023-.177-.286-.191-.287,0Z" transform="translate(-266.354 -252.044)" fill="url(#linear-gradient-32)"/>
        </g>
      </g>
    </g>
  </g>
</svg>
