<svg xmlns="http://www.w3.org/2000/svg" xmlns:xlink="http://www.w3.org/1999/xlink" width="199.85" height="324.556" viewBox="0 0 199.85 324.556">
  <defs>
    <filter id="路径_192" x="0" y="0" width="199.85" height="324.556" filterUnits="userSpaceOnUse">
      <feOffset dx="5" dy="5" input="SourceAlpha"/>
      <feGaussianBlur stdDeviation="3" result="blur"/>
      <feFlood flood-opacity="0.161"/>
      <feComposite operator="in" in2="blur"/>
      <feComposite in="SourceGraphic"/>
    </filter>
    <filter id="路径_192-2" x="0" y="0" width="199.85" height="324.556" filterUnits="userSpaceOnUse">
      <feOffset dy="3" input="SourceAlpha"/>
      <feGaussianBlur stdDeviation="3" result="blur-2"/>
      <feFlood flood-opacity="0.161" result="color"/>
      <feComposite operator="out" in="SourceGraphic" in2="blur-2"/>
      <feComposite operator="in" in="color"/>
      <feComposite operator="in" in2="SourceGraphic"/>
    </filter>
  </defs>
  <g id="text-mid" transform="translate(4 4)">
    <g data-type="innerShadowGroup">
      <g transform="matrix(1, 0, 0, 1, -4, -4)" filter="url(#路径_192)">
        <path id="路径_192-3" data-name="路径 192" d="M281.253,263.609h.793q11.008,15.255,24.826,15.267,13.386,3.7,23.353,19.5l6.5,13c2.039,1.065,3.013,2.582,2.922,4.53q-7.576,10.737-16.581,10.737h-.816q-10.736,0-24.01-18.71-7.441-3.7-10.895-18.189-8.495-21.881-8.359-24.69Zm78.442-75.655h3.715q16.172,0,27.861,20.318l.816,2.107-.951,9.423.543,14.61,2.786,2.129c7.248-1.948,12.707-2.922,16.331-2.922h5.3q23.478,0,40.477,12.345,4.383,6.626,4.259,10.872-.271,15.936-27.227,31.848c-2.016,2.129-3.08,4.032-3.171,5.708,4.961,3.9,7.429,7.316,7.429,10.216l-.136,5.187c-.091,2.31-1.631,4.462-4.643,6.5l-22.153.793H400.58q-9.955,0-18.869,11.688l.816,5.708-1.064,16.581-.136,2.922,2.182,109.333-.272,15.924c-.181,10.193-3.216,15.267-9.151,15.267q-6.251,0-14.61-14.587c-2.2-15.674-1.5-99.117-1.253-114.248l.408-25.347.928-13.953c.091-2.016-2.6-3.443-8.086-4.236l-1.994-3.579q0-9.955,12.073-19.639l.136-4.53,1.722-13.659v-4.258l-2.922-2.922q-8.086,3.6-11.824,3.6h-2.107q-16.478,0-27.34-8.109-8.765-4.383-8.766-5.708.135-3.058,28.133-3.579c15.4-6.025,23.15-10.873,23.24-14.61l-.679-9.423.929-6.365q-3.567-8.223-3.442-20.3-3.84-10.907-6.366-10.9h-.793l-12.617,4.259-.793-.793v-.544l6.887-10.216Q354.768,187.954,359.695,187.954Zm26.139,82.02.543,9.287v1.472l1.971,2.242h1.609q24.53-19.095,28.653-33.3l-1.993-2.265h-.793q-5.029,0-26.933,11.552C387.374,260.37,386.378,264.04,385.834,269.974Z" transform="translate(-274.99 -183.95)" fill="#fff"/>
      </g>
      <g transform="matrix(1, 0, 0, 1, -4, -4)" filter="url(#路径_192-2)">
        <path id="路径_192-4" data-name="路径 192" d="M281.253,263.609h.793q11.008,15.255,24.826,15.267,13.386,3.7,23.353,19.5l6.5,13c2.039,1.065,3.013,2.582,2.922,4.53q-7.576,10.737-16.581,10.737h-.816q-10.736,0-24.01-18.71-7.441-3.7-10.895-18.189-8.495-21.881-8.359-24.69Zm78.442-75.655h3.715q16.172,0,27.861,20.318l.816,2.107-.951,9.423.543,14.61,2.786,2.129c7.248-1.948,12.707-2.922,16.331-2.922h5.3q23.478,0,40.477,12.345,4.383,6.626,4.259,10.872-.271,15.936-27.227,31.848c-2.016,2.129-3.08,4.032-3.171,5.708,4.961,3.9,7.429,7.316,7.429,10.216l-.136,5.187c-.091,2.31-1.631,4.462-4.643,6.5l-22.153.793H400.58q-9.955,0-18.869,11.688l.816,5.708-1.064,16.581-.136,2.922,2.182,109.333-.272,15.924c-.181,10.193-3.216,15.267-9.151,15.267q-6.251,0-14.61-14.587c-2.2-15.674-1.5-99.117-1.253-114.248l.408-25.347.928-13.953c.091-2.016-2.6-3.443-8.086-4.236l-1.994-3.579q0-9.955,12.073-19.639l.136-4.53,1.722-13.659v-4.258l-2.922-2.922q-8.086,3.6-11.824,3.6h-2.107q-16.478,0-27.34-8.109-8.765-4.383-8.766-5.708.135-3.058,28.133-3.579c15.4-6.025,23.15-10.873,23.24-14.61l-.679-9.423.929-6.365q-3.567-8.223-3.442-20.3-3.84-10.907-6.366-10.9h-.793l-12.617,4.259-.793-.793v-.544l6.887-10.216Q354.768,187.954,359.695,187.954Zm26.139,82.02.543,9.287v1.472l1.971,2.242h1.609q24.53-19.095,28.653-33.3l-1.993-2.265h-.793q-5.029,0-26.933,11.552C387.374,260.37,386.378,264.04,385.834,269.974Z" transform="translate(-274.99 -183.95)" fill="#fff"/>
      </g>
    </g>
  </g>
</svg>
