<svg xmlns="http://www.w3.org/2000/svg" xmlns:xlink="http://www.w3.org/1999/xlink" width="41.857" height="81.736" viewBox="0 0 41.857 81.736">
  <defs>
    <clipPath id="clip-path">
      <ellipse id="椭圆_13" data-name="椭圆 13" cx="17.799" cy="20.676" rx="17.799" ry="20.676" transform="translate(0 35.595) rotate(-89.18)" fill="none"/>
    </clipPath>
  </defs>
  <g id="white-light" transform="translate(-166.698 -26.234)">
    <rect id="矩形_18" data-name="矩形 18" width="3.536" height="13.456" transform="translate(181.128 69.959) rotate(-89.18)" fill="#eadcca"/>
    <g id="组_348" data-name="组 348" transform="translate(187.421 69.916)">
      <path id="路径_298" data-name="路径 298" d="M195.156,84.788c.2,0,.27,5.024.163,11.215s-.353,11.21-.55,11.208-.27-5.023-.163-11.216S194.96,84.786,195.156,84.788Z" transform="translate(-194.557 -84.788)" fill="#eadcca"/>
    </g>
    <g id="组_354" data-name="组 354" transform="translate(166.698 31.969)">
      <g id="组_353" data-name="组 353" transform="translate(0 0)" clip-path="url(#clip-path)">
        <path id="路径_334" data-name="路径 334" d="M17.8,0c9.83,0,17.8,9.257,17.8,20.676S27.629,41.352,17.8,41.352,0,32.095,0,20.676,7.969,0,17.8,0Z" transform="translate(0 35.595) rotate(-89.18)" fill="#fff6e9"/>
        <g id="组_349" data-name="组 349" transform="translate(4.483 1.584)">
          <path id="路径_299" data-name="路径 299" d="M188.053,67.615c-.007.023-.173,0-.487-.065l-.58-.128-.369-.087c-.131-.034-.265-.083-.41-.129l-.961-.319c-.346-.129-.711-.3-1.109-.462s-.8-.389-1.236-.609-.869-.5-1.328-.78l-.348-.217c-.116-.075-.225-.161-.34-.242l-.7-.508c-.244-.165-.46-.37-.7-.563s-.472-.393-.7-.6l-.683-.668c-.115-.114-.236-.225-.347-.345l-.328-.371c-.218-.25-.448-.5-.664-.763l-.626-.825c-.222-.272-.4-.576-.6-.874s-.4-.6-.565-.92l-.526-.967L174,56.148a17.947,17.947,0,0,1-1.216-4.462,17.718,17.718,0,0,1,.082-4.607q.1-.551.192-1.093.138-.533.274-1.055a10.608,10.608,0,0,1,.322-1.018c.119-.332.217-.666.365-.979l.407-.938c.144-.3.308-.6.458-.886l.227-.431c.079-.141.169-.275.252-.412l.5-.8c.173-.256.361-.5.536-.739s.341-.485.537-.7l.553-.644c.092-.1.176-.212.271-.31l.285-.286a14.781,14.781,0,0,1,1.1-1.046c.369-.309.7-.621,1.053-.86s.659-.49.965-.69l.857-.518c.129-.076.248-.153.366-.215l.338-.165.532-.25c.289-.131.446-.189.458-.168s-.122.121-.386.29l-.491.3-.315.19c-.111.07-.222.154-.344.238l-.806.559c-.287.212-.582.464-.908.72s-.643.567-.991.88-.679.679-1.035,1.055l-.269.286c-.089.1-.168.2-.255.309l-.52.64c-.185.212-.334.456-.5.692s-.341.477-.5.729l-.469.784c-.078.134-.163.265-.237.4l-.212.422c-.14.285-.294.569-.43.865l-.38.913c-.14.3-.23.63-.34.952a10.039,10.039,0,0,0-.3.987q-.126.505-.255,1.022-.088.522-.177,1.055a17.524,17.524,0,0,0-.065,4.432,17.735,17.735,0,0,0,1.155,4.3l.433.988.5.938c.154.315.356.6.537.895s.355.586.565.852l.6.807c.2.259.424.5.631.749l.311.365c.107.118.221.227.33.341l.649.661c.221.21.451.4.67.6s.429.4.661.564l.664.511c.11.082.213.169.324.245l.332.22c.438.288.845.579,1.267.8s.794.473,1.182.642.73.36,1.062.5l.921.369c.139.055.268.113.393.158l.354.116.553.19C187.9,67.524,188.059,67.592,188.053,67.615Z" transform="translate(-172.669 -32.873)" fill="#eadcca"/>
        </g>
        <g id="组_350" data-name="组 350" transform="translate(15.056 0.088)">
          <path id="路径_300" data-name="路径 300" d="M190.1,69.934a5.467,5.467,0,0,1-.591-1.324q-.124-.329-.275-.727c-.094-.267-.182-.562-.283-.878-.194-.634-.438-1.349-.629-2.162q-.153-.608-.321-1.27c-.109-.443-.19-.91-.291-1.39-.212-.96-.355-2-.521-3.093a53.775,53.775,0,0,1-.433-7.172,53.664,53.664,0,0,1,.61-7.16c.192-1.089.36-2.125.6-3.079.113-.478.206-.943.326-1.383s.24-.86.352-1.262c.211-.808.473-1.517.682-2.146.109-.312.2-.606.3-.871s.2-.5.293-.719a5.472,5.472,0,0,1,.623-1.309,5.56,5.56,0,0,1-.352,1.4q-.1.332-.23.735t-.244.884c-.17.634-.395,1.348-.571,2.156l-.3,1.261c-.1.438-.182.9-.28,1.377-.208.948-.352,1.975-.523,3.053a60.731,60.731,0,0,0-.544,7.069,60.79,60.79,0,0,0,.37,7.078c.145,1.08.264,2.111.448,3.064.086.478.153.942.246,1.384s.185.863.272,1.267c.157.812.363,1.53.518,2.169.08.318.155.616.223.889l.212.741A5.5,5.5,0,0,1,190.1,69.934Z" transform="translate(-186.751 -33.989)" fill="#eadcca"/>
        </g>
        <g id="组_351" data-name="组 351" transform="translate(22.637 -1.417)">
          <path id="路径_301" data-name="路径 301" d="M196.852,31.987c.019-.017.127.076.316.268l.344.363a6.245,6.245,0,0,1,.444.518A19.731,19.731,0,0,1,200.3,36.8c.222.4.4.854.61,1.311.2.462.381.953.568,1.461a27.629,27.629,0,0,1,.93,3.333,30.846,30.846,0,0,1,.6,7.884,40.305,40.305,0,0,1-1.239,7.8,52.991,52.991,0,0,1-1.993,6.116c-.668,1.7-1.274,3.052-1.72,3.972a6.39,6.39,0,0,1-.767,1.392c-.109-.047.788-2.119,2-5.545a63.387,63.387,0,0,0,1.822-6.1,42.927,42.927,0,0,0,1.161-7.673,32.084,32.084,0,0,0-.528-7.711,29.285,29.285,0,0,0-.843-3.271c-.171-.5-.338-.984-.517-1.442s-.351-.9-.553-1.3a24.469,24.469,0,0,0-2.1-3.717c-.135-.215-.268-.4-.384-.553s-.207-.293-.287-.4C196.9,32.129,196.832,32,196.852,31.987Z" transform="translate(-196.849 -31.985)" fill="#eadcca"/>
        </g>
        <g id="组_352" data-name="组 352" transform="translate(25.112 1.584)">
          <path id="路径_302" data-name="路径 302" d="M200.146,65.29c-.013-.018.11-.114.357-.278l.46-.3c.185-.114.4-.246.62-.411l.761-.529c.273-.2.556-.428.867-.665s.618-.515.953-.8.662-.608,1.01-.943.676-.712,1.035-1.091c.183-.188.339-.4.511-.605s.346-.417.514-.637l.49-.682c.083-.116.17-.231.249-.35l.23-.366c.153-.247.318-.493.468-.75l.432-.79c.155-.263.271-.544.4-.823s.273-.56.378-.854.228-.587.345-.885q.142-.455.287-.918a16.447,16.447,0,0,0,.408-7.842q-.1-.473-.191-.936-.127-.458-.252-.907c-.074-.3-.189-.59-.288-.879s-.191-.577-.318-.851l-.348-.82c-.123-.267-.261-.524-.388-.781l-.192-.382c-.066-.125-.142-.246-.212-.367l-.418-.716c-.144-.231-.3-.452-.446-.673s-.283-.44-.446-.641c-.318-.4-.595-.811-.917-1.164s-.6-.71-.908-1.014-.574-.614-.867-.867-.544-.51-.794-.727l-.7-.583c-.206-.18-.4-.328-.575-.455l-.427-.33c-.228-.182-.342-.286-.327-.3s.158.053.418.2l.476.286a7.2,7.2,0,0,1,.626.416l.758.551c.27.208.545.45.851.7s.6.547.926.851.637.649.968,1.007.64.759.978,1.166c.173.2.315.426.475.646s.321.447.475.681l.446.726c.074.124.154.246.225.374l.2.389c.135.262.282.524.413.8l.372.837c.134.28.228.576.339.871s.228.592.306.9.179.618.269.932q.1.476.2.962a17.841,17.841,0,0,1,.3,4.063,18.106,18.106,0,0,1-.716,4.025l-.3.943-.364.908c-.111.3-.264.588-.4.875s-.266.573-.429.842l-.457.806c-.159.262-.333.512-.495.763l-.244.372c-.084.122-.176.238-.264.355l-.52.69c-.178.222-.366.433-.544.643s-.348.42-.541.608c-.379.381-.716.764-1.095,1.09s-.708.657-1.069.931-.674.556-1.011.779-.63.449-.92.637l-.812.492a7.363,7.363,0,0,1-.667.368l-.5.25C200.309,65.248,200.159,65.308,200.146,65.29Z" transform="translate(-200.145 -31.374)" fill="#eadcca"/>
        </g>
      </g>
    </g>
    <g id="组_355" data-name="组 355" transform="translate(181.133 69.804)">
      <path id="路径_303" data-name="路径 303" d="M186.025,92.6a29.519,29.519,0,0,1-.089-4.167,29.394,29.394,0,0,1,.208-4.163,29.575,29.575,0,0,1,.088,4.167A29.611,29.611,0,0,1,186.025,92.6Z" transform="translate(-185.925 -84.266)" fill="#eadcca"/>
    </g>
    <g id="组_356" data-name="组 356" transform="translate(181.787 69.813)">
      <path id="路径_304" data-name="路径 304" d="M186.895,92.608a29.446,29.446,0,0,1-.088-4.167,29.481,29.481,0,0,1,.207-4.163,29.6,29.6,0,0,1,.088,4.168A29.6,29.6,0,0,1,186.895,92.608Z" transform="translate(-186.795 -84.278)" fill="#eadcca"/>
    </g>
    <g id="组_357" data-name="组 357" transform="translate(182.44 69.822)">
      <path id="路径_305" data-name="路径 305" d="M187.765,92.621a29.588,29.588,0,0,1-.088-4.167,29.462,29.462,0,0,1,.207-4.163,29.442,29.442,0,0,1,.088,4.167A29.479,29.479,0,0,1,187.765,92.621Z" transform="translate(-187.666 -84.291)" fill="#eadcca"/>
    </g>
    <g id="组_358" data-name="组 358" transform="translate(183.093 69.831)">
      <path id="路径_306" data-name="路径 306" d="M188.636,92.633a29.363,29.363,0,0,1-.089-4.167,29.619,29.619,0,0,1,.207-4.163,29.452,29.452,0,0,1,.088,4.168A29.55,29.55,0,0,1,188.636,92.633Z" transform="translate(-188.536 -84.303)" fill="#eadcca"/>
    </g>
    <g id="组_359" data-name="组 359" transform="translate(183.747 69.841)">
      <path id="路径_307" data-name="路径 307" d="M189.506,92.646a29.454,29.454,0,0,1-.088-4.167,29.334,29.334,0,0,1,.207-4.163,29.572,29.572,0,0,1,.088,4.167A29.624,29.624,0,0,1,189.506,92.646Z" transform="translate(-189.406 -84.316)" fill="#eadcca"/>
    </g>
    <g id="组_360" data-name="组 360" transform="translate(184.4 69.85)">
      <path id="路径_308" data-name="路径 308" d="M190.376,92.658a29.44,29.44,0,0,1-.088-4.167,29.486,29.486,0,0,1,.207-4.163,29.592,29.592,0,0,1,.088,4.168A29.472,29.472,0,0,1,190.376,92.658Z" transform="translate(-190.276 -84.328)" fill="#eadcca"/>
    </g>
    <g id="组_361" data-name="组 361" transform="translate(185.054 69.86)">
      <path id="路径_309" data-name="路径 309" d="M191.246,92.671a29.59,29.59,0,0,1-.088-4.167,29.6,29.6,0,0,1,.207-4.163,29.447,29.447,0,0,1,.088,4.167A29.486,29.486,0,0,1,191.246,92.671Z" transform="translate(-191.146 -84.341)" fill="#eadcca"/>
    </g>
    <g id="组_362" data-name="组 362" transform="translate(185.707 69.869)">
      <path id="路径_310" data-name="路径 310" d="M192.117,92.683a29.51,29.51,0,0,1-.089-4.167,29.4,29.4,0,0,1,.208-4.163,29.591,29.591,0,0,1,.088,4.168A29.6,29.6,0,0,1,192.117,92.683Z" transform="translate(-192.017 -84.353)" fill="#eadcca"/>
    </g>
    <g id="组_363" data-name="组 363" transform="translate(186.361 69.878)">
      <path id="路径_311" data-name="路径 311" d="M192.987,92.7a29.45,29.45,0,0,1-.088-4.167,29.5,29.5,0,0,1,.207-4.164,29.6,29.6,0,0,1,.088,4.168A29.621,29.621,0,0,1,192.987,92.7Z" transform="translate(-192.887 -84.365)" fill="#eadcca"/>
    </g>
    <g id="组_364" data-name="组 364" transform="translate(187.014 69.888)">
      <path id="路径_312" data-name="路径 312" d="M193.857,92.708a29.583,29.583,0,0,1-.088-4.167,29.479,29.479,0,0,1,.207-4.163,29.456,29.456,0,0,1,.088,4.168A29.47,29.47,0,0,1,193.857,92.708Z" transform="translate(-193.758 -84.378)" fill="#eadcca"/>
    </g>
    <g id="组_365" data-name="组 365" transform="translate(187.667 69.897)">
      <path id="路径_313" data-name="路径 313" d="M194.727,92.721a29.589,29.589,0,0,1-.088-4.167,29.625,29.625,0,0,1,.207-4.164,29.462,29.462,0,0,1,.088,4.168A29.35,29.35,0,0,1,194.727,92.721Z" transform="translate(-194.628 -84.39)" fill="#eadcca"/>
    </g>
    <g id="组_366" data-name="组 366" transform="translate(188.321 69.907)">
      <path id="路径_314" data-name="路径 314" d="M195.6,92.733a29.446,29.446,0,0,1-.088-4.167,29.332,29.332,0,0,1,.207-4.163,29.584,29.584,0,0,1,.088,4.168A29.605,29.605,0,0,1,195.6,92.733Z" transform="translate(-195.498 -84.403)" fill="#eadcca"/>
    </g>
    <g id="组_367" data-name="组 367" transform="translate(188.974 69.916)">
      <path id="路径_315" data-name="路径 315" d="M196.468,92.746a29.453,29.453,0,0,1-.088-4.168,29.487,29.487,0,0,1,.207-4.163,29.584,29.584,0,0,1,.088,4.168A29.5,29.5,0,0,1,196.468,92.746Z" transform="translate(-196.368 -84.415)" fill="#eadcca"/>
    </g>
    <g id="组_368" data-name="组 368" transform="translate(189.627 69.925)">
      <path id="路径_316" data-name="路径 316" d="M197.338,92.758a29.6,29.6,0,0,1-.088-4.167,29.6,29.6,0,0,1,.207-4.163,29.449,29.449,0,0,1,.088,4.168A29.468,29.468,0,0,1,197.338,92.758Z" transform="translate(-197.239 -84.428)" fill="#eadcca"/>
    </g>
    <g id="组_369" data-name="组 369" transform="translate(190.281 69.934)">
      <path id="路径_317" data-name="路径 317" d="M198.209,92.77a29.491,29.491,0,0,1-.089-4.167,29.624,29.624,0,0,1,.207-4.163,29.379,29.379,0,0,1,.089,4.168A29.608,29.608,0,0,1,198.209,92.77Z" transform="translate(-198.109 -84.44)" fill="#eadcca"/>
    </g>
    <g id="组_370" data-name="组 370" transform="translate(190.934 69.944)">
      <path id="路径_318" data-name="路径 318" d="M199.079,92.783a29.46,29.46,0,0,1-.088-4.167,29.462,29.462,0,0,1,.207-4.163,29.578,29.578,0,0,1,.088,4.167A29.619,29.619,0,0,1,199.079,92.783Z" transform="translate(-198.979 -84.453)" fill="#eadcca"/>
    </g>
    <g id="组_371" data-name="组 371" transform="translate(191.588 69.953)">
      <path id="路径_319" data-name="路径 319" d="M199.949,92.795a29.572,29.572,0,0,1-.088-4.167,29.484,29.484,0,0,1,.207-4.163,29.458,29.458,0,0,1,.088,4.168A29.467,29.467,0,0,1,199.949,92.795Z" transform="translate(-199.85 -84.465)" fill="#eadcca"/>
    </g>
    <g id="组_372" data-name="组 372" transform="translate(192.241 69.963)">
      <path id="路径_320" data-name="路径 320" d="M200.819,92.808a29.588,29.588,0,0,1-.088-4.167,29.594,29.594,0,0,1,.207-4.163,29.444,29.444,0,0,1,.088,4.167A29.35,29.35,0,0,1,200.819,92.808Z" transform="translate(-200.719 -84.478)" fill="#eadcca"/>
    </g>
    <g id="组_373" data-name="组 373" transform="translate(192.895 69.972)">
      <path id="路径_321" data-name="路径 321" d="M201.69,92.82a29.436,29.436,0,0,1-.088-4.167,29.345,29.345,0,0,1,.207-4.163,29.594,29.594,0,0,1,.088,4.168A29.613,29.613,0,0,1,201.69,92.82Z" transform="translate(-201.59 -84.49)" fill="#eadcca"/>
    </g>
    <g id="组_374" data-name="组 374" transform="translate(193.548 69.982)">
      <path id="路径_322" data-name="路径 322" d="M202.56,92.833a29.451,29.451,0,0,1-.088-4.167,29.459,29.459,0,0,1,.207-4.163,29.581,29.581,0,0,1,.088,4.167A29.489,29.489,0,0,1,202.56,92.833Z" transform="translate(-202.46 -84.503)" fill="#eadcca"/>
    </g>
    <g id="组_375" data-name="组 375" transform="translate(194.201 69.991)">
      <path id="路径_323" data-name="路径 323" d="M203.43,92.845a29.577,29.577,0,0,1-.088-4.167,29.613,29.613,0,0,1,.207-4.163,29.451,29.451,0,0,1,.088,4.168A29.465,29.465,0,0,1,203.43,92.845Z" transform="translate(-203.33 -84.515)" fill="#eadcca"/>
    </g>
    <rect id="矩形_19" data-name="矩形 19" width="3.133" height="4.944" transform="matrix(0.014, -1, 1, 0.014, 185.389, 94.544)" fill="#eadcca"/>
    <g id="组_376" data-name="组 376" transform="translate(185.324 94.156)">
      <path id="路径_324" data-name="路径 324" d="M191.782,116.7c.081,0,.1,3.079.049,6.875s-.164,6.872-.246,6.871-.1-3.079-.05-6.876S191.7,116.7,191.782,116.7Z" transform="translate(-191.507 -116.702)" fill="#eadcca"/>
    </g>
    <g id="组_377" data-name="组 377" transform="translate(185.909 94.164)">
      <path id="路径_325" data-name="路径 325" d="M192.561,116.713c.081,0,.1,3.08.049,6.875s-.164,6.872-.245,6.871-.1-3.079-.05-6.876S192.48,116.711,192.561,116.713Z" transform="translate(-192.286 -116.713)" fill="#eadcca"/>
    </g>
    <g id="组_378" data-name="组 378" transform="translate(186.494 94.173)">
      <path id="路径_326" data-name="路径 326" d="M193.34,116.724c.082,0,.1,3.08.05,6.875s-.165,6.873-.246,6.871-.1-3.079-.05-6.876S193.259,116.723,193.34,116.724Z" transform="translate(-193.064 -116.724)" fill="#eadcca"/>
    </g>
    <g id="组_379" data-name="组 379" transform="translate(187.079 94.181)">
      <path id="路径_327" data-name="路径 327" d="M194.119,116.735c.082,0,.1,3.08.05,6.875s-.164,6.873-.246,6.871-.1-3.079-.049-6.876S194.038,116.734,194.119,116.735Z" transform="translate(-193.844 -116.735)" fill="#eadcca"/>
    </g>
    <g id="组_380" data-name="组 380" transform="translate(187.664 94.189)">
      <path id="路径_328" data-name="路径 328" d="M194.9,116.746c.082,0,.1,3.08.05,6.875s-.164,6.873-.246,6.871-.1-3.079-.049-6.875S194.817,116.745,194.9,116.746Z" transform="translate(-194.623 -116.746)" fill="#eadcca"/>
    </g>
    <g id="组_381" data-name="组 381" transform="translate(188.249 94.198)">
      <path id="路径_329" data-name="路径 329" d="M195.678,116.758c.082,0,.1,3.079.05,6.874s-.164,6.873-.246,6.871-.1-3.078-.049-6.875S195.6,116.757,195.678,116.758Z" transform="translate(-195.402 -116.758)" fill="#eadcca"/>
    </g>
    <g id="组_382" data-name="组 382" transform="translate(188.834 94.207)">
      <path id="路径_330" data-name="路径 330" d="M196.457,116.769c.081,0,.1,3.079.049,6.875s-.164,6.872-.245,6.871-.1-3.079-.05-6.876S196.376,116.767,196.457,116.769Z" transform="translate(-196.181 -116.769)" fill="#eadcca"/>
    </g>
    <g id="组_383" data-name="组 383" transform="translate(189.419 94.215)">
      <path id="路径_331" data-name="路径 331" d="M197.236,116.78c.081,0,.1,3.08.049,6.875s-.164,6.872-.245,6.871-.1-3.079-.05-6.876S197.155,116.779,197.236,116.78Z" transform="translate(-196.96 -116.78)" fill="#eadcca"/>
    </g>
    <g id="组_384" data-name="组 384" transform="translate(190.004 94.223)">
      <path id="路径_332" data-name="路径 332" d="M198.015,116.791c.082,0,.1,3.08.05,6.875s-.165,6.873-.246,6.871-.1-3.079-.05-6.876S197.934,116.789,198.015,116.791Z" transform="translate(-197.74 -116.791)" fill="#eadcca"/>
    </g>
    <path id="路径_333" data-name="路径 333" d="M187.99,34.256l.029-2,10.96.157-.031,2.142Z" transform="translate(-5.306 -1.5)" fill="#eadcca"/>
    <g id="组_386" data-name="组 386" transform="translate(187.626 26.234)">
      <path id="路径_298-2" data-name="路径 298" d="M194.965,84.788a12.092,12.092,0,0,1,.111,3.41,12.3,12.3,0,0,1-.374,3.408,12.114,12.114,0,0,1-.111-3.41A12.323,12.323,0,0,1,194.965,84.788Z" transform="translate(-194.557 -84.788)" fill="#eadcca"/>
    </g>
  </g>
</svg>
